<svg width="290" height="80" viewBox="0 0 290 80" fill="none" xmlns="http://www.w3.org/2000/svg">
<path opacity="0.7" d="M2.27779 79.2767C1.99312 76.59 1.58645 74.1962 1.46444 71.7851C0.935767 61.3485 0.447757 50.912 0.000414044 40.4582C-0.0402535 39.6832 0.122417 38.9082 0.325754 38.1333C0.773097 36.7038 2.6438 35.9288 5.12452 35.8083C13.624 35.4294 22.1235 35.0505 30.7044 35.0333C36.1538 35.0161 41.2373 36.1527 46.6867 35.8944C53.9255 35.55 61.1643 35.86 68.3218 36.6005C68.8912 36.6694 69.5419 36.6522 70.1112 36.6522C79.3834 36.6694 88.7776 36.2216 97.9278 36.8244C108.664 37.5477 119.034 35.9633 129.648 36.4799C134.895 36.7383 140.222 35.8772 145.468 35.2916C151.65 34.62 158.156 34.5511 164.541 34.5511C168.364 34.5511 172.268 35.1538 176.05 35.6016C183.045 36.4455 189.958 35.7911 196.831 35.2744C200.695 34.9816 204.436 34.3961 208.299 34.1033C211.309 33.8794 214.237 33.8966 217.328 34.4133C219.849 34.8439 222.899 34.9472 225.42 34.6372C230.138 34.0516 234.774 34.5166 239.166 34.93C243.07 35.3088 246.934 35.1883 250.797 35.395C256.246 35.705 261.777 35.8083 267.267 35.9461C273.896 36.1011 280.566 36.1699 287.682 36.2905C288.74 50.4987 290.041 64.6724 290 79.1389C283.128 79.0011 276.661 78.8633 270.195 78.7428C269.219 78.7255 268.203 78.7944 267.186 78.8805C266.454 78.9322 265.763 79.1217 265.071 79.1217C257.141 79.1389 249.13 79.69 241.403 77.9506C237.58 77.0895 233.757 77.8472 229.975 78.4672C228.47 78.7083 226.925 78.8461 225.339 78.8805C221.679 78.9494 217.978 79.0011 214.318 78.915C211.471 78.8461 208.584 78.6222 205.737 78.3811C203.013 78.1572 200.329 77.8128 197.645 77.5372C197.075 77.4856 196.465 77.4511 195.936 77.52C192.683 77.9506 189.43 78.4328 186.176 78.8633C185.282 78.9839 184.346 79.0355 183.452 79.0183C177.921 78.8978 172.431 78.7083 166.9 78.6567C160.108 78.5878 153.276 78.6222 146.485 78.6567C145.346 78.6567 144.248 78.9322 143.109 79.0528C137.538 79.6383 131.926 79.5178 126.273 79.225C123.955 79.1044 121.556 78.8633 119.319 79.0528C112.69 79.6211 106.265 79.3111 99.9205 78.2261C97.5211 77.8128 95.6097 77.9333 93.373 78.7083C89.2249 80.1205 84.4262 79.8105 79.7901 79.5694C72.8359 79.2078 65.9224 78.7083 58.9683 78.2778C58.8056 78.2606 58.643 78.2261 58.521 78.2606C54.4135 79.0011 50.1028 79.0011 45.8327 79.1561C42.254 79.2939 38.7159 80.0172 35.1371 79.9828C24.4416 79.8966 13.7054 79.5522 2.27779 79.2767Z" fill="#DCAC68"/>
<path d="M51.532 50.928V53.868H65.196V50.928H51.532ZM49.572 62.856V65.796H69.844V62.856H49.572ZM50.272 46.196V49.192H69.956V46.196H50.272ZM63.88 50.928V51.6C63.628 61.904 63.292 65.768 62.648 66.608C62.396 66.972 62.144 67.056 61.64 67.056C61.08 67.084 59.988 67.056 58.728 66.944C59.148 67.672 59.484 68.792 59.512 69.52C60.94 69.576 62.368 69.576 63.292 69.464C64.244 69.324 64.972 69.016 65.616 68.092C66.484 66.888 66.876 63.248 67.184 52.384C67.184 51.992 67.212 50.928 67.212 50.928H63.88ZM49.936 50.928C49.488 55.996 48.536 62.576 47.696 66.664L51.112 66.888C51.84 62.856 52.736 56.192 53.324 50.928H49.936ZM51.224 43.06C49.824 46.532 47.388 50.088 44.868 52.244C45.736 52.72 47.304 53.728 48.032 54.316C50.412 51.852 53.044 47.932 54.752 44.068L51.224 43.06ZM54.92 54.988C56.516 55.744 58.448 57.004 59.372 57.956L61.332 55.968C60.324 55.044 58.336 53.896 56.768 53.196L54.92 54.988ZM54.556 60.784C56.18 61.596 58.168 62.912 59.092 63.892L61.052 61.904C60.016 60.952 58 59.72 56.376 58.992L54.556 60.784ZM44.952 56.808V59.804H50.86V59.72H65.364V59.804H71.048V56.808H65.364V56.92H50.86V56.808H44.952ZM76.284 44.908V69.184H79.756V48.296H92.216V69.156H95.828V44.908H76.284ZM78.664 54.316V57.648H93.728V54.316H78.664ZM78.636 63.976V67.364H93.728V63.976H78.636ZM101.484 48.436V51.572H112.348V48.436H101.484ZM105.46 43.62V49.976H108.596V43.62H105.46ZM118.956 48.38V51.572H127.104V48.38H118.956ZM114.28 65.04V68.176H124.304V65.04H114.28ZM117.276 43.2V57.788H120.748V43.2H117.276ZM112.796 56.416V69.492H116.044V59.552H122.708V69.38H126.124V56.416H112.796ZM100.868 63.696L101.54 67.056C104.676 66.356 108.82 65.404 112.656 64.48L112.32 61.372C108.204 62.296 103.78 63.192 100.868 63.696ZM102.212 52.888C102.8 55.884 103.248 59.804 103.192 62.352L106.076 61.792C106.02 59.188 105.572 55.408 104.872 52.384L102.212 52.888ZM108.456 52.104C108.316 55.296 107.784 59.664 107.224 62.38L110.024 62.94C110.612 60.336 111.284 56.22 111.732 52.664L108.456 52.104ZM130.184 48.128V51.432H153.928V48.128H130.184ZM129.26 65.068V68.428H154.768V65.068H129.26ZM140.18 43.228V49.976H143.708V43.228H140.18ZM146.508 52.412C145.864 56.556 144.492 61.988 143.176 65.404L146.452 66.132C147.768 62.828 149.28 57.704 150.372 53.084L146.508 52.412ZM133.796 53.336C135 56.752 136.008 61.288 136.204 64.2L139.648 63.276C139.368 60.308 138.332 55.968 136.988 52.496L133.796 53.336ZM163.028 53.42H176.86V56.948H163.028V53.42ZM160.228 51.348V59.02H179.828V51.348H160.228ZM165.044 48.156V50.34H174.928V48.156H165.044ZM168.488 52.02V57.928H171.204V52.02H168.488ZM169.832 45.832C172.548 48.352 177.504 50.956 181.396 52.272C181.9 51.404 182.628 50.256 183.356 49.5C179.016 48.408 174.48 46.196 171.288 43.228H168.096C165.8 45.72 161.208 48.352 156.616 49.724C157.204 50.424 157.988 51.628 158.352 52.384C162.776 50.844 167.34 48.24 169.832 45.832ZM164.008 54.036C164.484 55.016 164.876 56.304 164.988 57.144L167.452 56.416C167.284 55.576 166.836 54.344 166.332 53.392L164.008 54.036ZM173.276 53.28C173.052 54.204 172.52 55.576 172.128 56.5L174.424 57.116C174.872 56.332 175.432 55.156 176.048 53.952L173.276 53.28ZM161.768 59.916V69.52H165.072V62.1H174.9V69.436H178.344V59.916H161.768ZM163.672 63.22V65.432H176.328V63.22H163.672ZM163.672 66.58V68.764H176.328V66.58H163.672ZM200.828 46.392V53.364H204.076V46.392H200.828ZM197.524 56.5V66.776C197.524 67.084 197.44 67.168 197.104 67.196C196.796 67.196 195.704 67.196 194.752 67.14C195.088 67.84 195.452 68.82 195.564 69.52C197.244 69.52 198.448 69.492 199.316 69.128C200.184 68.764 200.436 68.12 200.436 66.86V56.5H197.524ZM205.644 43.2C205.364 44.012 204.748 45.16 204.272 45.972L206.568 46.672C207.156 45.972 207.856 45.02 208.584 43.928L205.644 43.2ZM196.936 44.04C197.552 44.88 198.196 46.028 198.42 46.756L200.912 45.86C200.632 45.104 199.932 43.984 199.288 43.2L196.936 44.04ZM205.868 56.472C206.904 57.256 208.108 58.376 208.64 59.216L210.656 57.732C210.068 56.92 208.836 55.828 207.8 55.128L205.868 56.472ZM193.856 63.136L194.164 65.712C196.628 65.432 199.736 65.068 202.76 64.704L202.704 62.296C199.428 62.66 196.152 62.94 193.856 63.136ZM201.108 54.96C199.456 55.492 196.656 55.884 194.276 56.108C194.528 56.668 194.836 57.536 194.92 58.068C197.468 57.928 200.576 57.536 202.844 56.92L201.108 54.96ZM194.948 45.804V48.044H210.264V45.804H194.948ZM195.844 49.108V51.18H209.424V49.108H195.844ZM194.08 52.328V54.736H210.852V52.328H194.08ZM194.024 59.048V61.484H210.824V59.048H194.024ZM202.788 55.296C202.928 63.584 204.104 69.66 208.304 69.66C210.04 69.66 210.936 68.652 211.328 65.964C210.74 65.684 209.928 65.292 209.396 64.76C209.284 66.328 209.032 67.056 208.584 67.056C206.736 67.056 205.504 62.744 205.588 55.296H202.788ZM207.604 61.792C206.092 64.284 203.236 66.3 200.492 67.42C201.024 67.868 201.752 68.68 202.088 69.184C205 67.924 208.108 65.656 209.872 62.912L207.604 61.792ZM185.988 51.824V54.344H193.436V51.824H185.988ZM186.156 44.096V46.644H193.352V44.096H186.156ZM185.988 55.632V58.18H193.436V55.632H185.988ZM184.812 47.876V50.536H194.136V47.876H184.812ZM187.528 59.524V62.156H190.692V65.348H187.528V67.98H193.38V59.524H187.528ZM185.904 59.524V69.156H188.536V59.524H185.904Z" fill="white"/>
<path d="M66.856 13.096C66.856 15.7413 66.3547 17.9493 65.352 19.72C64.3707 21.4907 62.984 22.8133 61.192 23.688C59.4 24.5627 57.288 25 54.856 25H47.464V2.152H55.368C57.8213 2.152 59.9013 2.57867 61.608 3.432C63.3147 4.264 64.616 5.49067 65.512 7.112C66.408 8.73333 66.856 10.728 66.856 13.096ZM60.456 13.32C60.456 11.9333 60.264 10.7813 59.88 9.864C59.5173 8.94667 58.9627 8.264 58.216 7.816C57.4907 7.368 56.5627 7.144 55.432 7.144H53.64V19.944H55.016C56.8933 19.944 58.2693 19.4 59.144 18.312C60.0187 17.224 60.456 15.56 60.456 13.32ZM79.252 6.984C81.492 6.984 83.2413 7.53867 84.5 8.648C85.7587 9.75733 86.388 11.336 86.388 13.384V25H82.164L80.98 22.664H80.852C80.3613 23.2827 79.8493 23.7947 79.316 24.2C78.804 24.584 78.2067 24.8613 77.524 25.032C76.8413 25.224 76.0093 25.32 75.028 25.32C74.004 25.32 73.0867 25.1173 72.276 24.712C71.4653 24.2853 70.8253 23.656 70.356 22.824C69.8867 21.9707 69.652 20.8933 69.652 19.592C69.652 17.6933 70.3027 16.2853 71.604 15.368C72.9267 14.4507 74.836 13.9387 77.332 13.832L80.276 13.736V13.48C80.276 12.6907 80.084 12.136 79.7 11.816C79.316 11.4747 78.7933 11.304 78.132 11.304C77.428 11.304 76.6493 11.432 75.796 11.688C74.9427 11.9227 74.0787 12.232 73.204 12.616L71.444 8.584C72.468 8.05067 73.62 7.656 74.9 7.4C76.2013 7.12267 77.652 6.984 79.252 6.984ZM78.9 17.16C77.7907 17.2027 77.0013 17.4053 76.532 17.768C76.084 18.1093 75.86 18.6 75.86 19.24C75.86 19.8373 76.02 20.2853 76.34 20.584C76.66 20.8613 77.0867 21 77.62 21C78.3667 21 78.996 20.7653 79.508 20.296C80.0413 19.8267 80.308 19.2187 80.308 18.472V17.096L78.9 17.16ZM96.6935 7.304V25H90.5815V7.304H96.6935ZM93.6535 0.167999C94.5282 0.167999 95.2855 0.349332 95.9255 0.711998C96.5868 1.07467 96.9175 1.8 96.9175 2.888C96.9175 3.93333 96.5868 4.648 95.9255 5.032C95.2855 5.39467 94.5282 5.576 93.6535 5.576C92.7575 5.576 91.9895 5.39467 91.3495 5.032C90.7308 4.648 90.4215 3.93333 90.4215 2.888C90.4215 1.8 90.7308 1.07467 91.3495 0.711998C91.9895 0.349332 92.7575 0.167999 93.6535 0.167999ZM107.068 25H100.956V0.679998H107.068V25ZM109.155 7.304H115.588L118.595 17.448C118.638 17.5973 118.681 17.7787 118.724 17.992C118.766 18.2053 118.798 18.4293 118.82 18.664C118.862 18.8987 118.884 19.1333 118.884 19.368H119.012C119.054 18.9413 119.108 18.5787 119.172 18.28C119.257 17.96 119.332 17.6933 119.396 17.48L122.468 7.304H128.708L121.7 26.12C121.166 27.5493 120.537 28.7547 119.812 29.736C119.108 30.7173 118.233 31.4533 117.188 31.944C116.142 32.4347 114.841 32.68 113.284 32.68C112.729 32.68 112.249 32.648 111.844 32.584C111.438 32.5413 111.086 32.488 110.788 32.424V27.624C111.022 27.6667 111.3 27.7093 111.62 27.752C111.961 27.7947 112.313 27.816 112.676 27.816C113.358 27.816 113.902 27.6773 114.308 27.4C114.734 27.1227 115.086 26.76 115.364 26.312C115.641 25.8853 115.876 25.416 116.068 24.904L116.132 24.744L109.155 7.304ZM154.439 18.056C154.439 19.2933 154.119 20.4667 153.479 21.576C152.861 22.6853 151.89 23.592 150.567 24.296C149.266 24.9787 147.57 25.32 145.479 25.32C144.434 25.32 143.517 25.2667 142.727 25.16C141.959 25.0747 141.234 24.9253 140.551 24.712C139.869 24.4987 139.165 24.2213 138.439 23.88V18.376C139.677 18.9947 140.925 19.4747 142.183 19.816C143.442 20.136 144.583 20.296 145.607 20.296C146.226 20.296 146.727 20.2213 147.111 20.072C147.495 19.9227 147.783 19.72 147.975 19.464C148.167 19.208 148.263 18.92 148.263 18.6C148.263 18.1947 148.125 17.8533 147.847 17.576C147.57 17.2987 147.133 17.0107 146.535 16.712C145.938 16.4133 145.138 16.04 144.135 15.592C143.282 15.208 142.514 14.8027 141.831 14.376C141.149 13.9493 140.562 13.4693 140.071 12.936C139.602 12.4027 139.239 11.784 138.983 11.08C138.727 10.3547 138.599 9.50133 138.599 8.52C138.599 7.048 138.962 5.82133 139.687 4.84C140.413 3.83733 141.415 3.09067 142.695 2.6C143.997 2.088 145.501 1.832 147.207 1.832C148.701 1.832 150.045 2.00267 151.239 2.344C152.434 2.664 153.501 3.03733 154.439 3.464L152.551 8.232C151.57 7.784 150.599 7.432 149.639 7.176C148.701 6.89867 147.826 6.76 147.015 6.76C146.482 6.76 146.045 6.824 145.703 6.952C145.362 7.08 145.106 7.26133 144.935 7.496C144.786 7.70933 144.711 7.95467 144.711 8.232C144.711 8.59467 144.85 8.91467 145.127 9.192C145.405 9.46933 145.863 9.77867 146.503 10.12C147.165 10.44 148.061 10.856 149.191 11.368C150.301 11.8587 151.239 12.4027 152.007 13C152.797 13.576 153.394 14.2693 153.799 15.08C154.226 15.8693 154.439 16.8613 154.439 18.056ZM165.676 25.32C163.884 25.32 162.327 25 161.004 24.36C159.681 23.72 158.657 22.728 157.932 21.384C157.207 20.04 156.844 18.3227 156.844 16.232C156.844 14.0773 157.249 12.328 158.06 10.984C158.871 9.61867 159.969 8.616 161.356 7.976C162.764 7.31467 164.364 6.984 166.156 6.984C167.244 6.984 168.268 7.10133 169.228 7.336C170.209 7.57067 171.116 7.90133 171.948 8.328L170.156 12.84C169.431 12.52 168.748 12.264 168.108 12.072C167.489 11.88 166.839 11.784 166.156 11.784C165.537 11.784 164.993 11.944 164.524 12.264C164.055 12.584 163.692 13.0747 163.436 13.736C163.18 14.376 163.052 15.1973 163.052 16.2C163.052 17.224 163.18 18.0453 163.436 18.664C163.713 19.2827 164.087 19.7413 164.556 20.04C165.025 20.3173 165.569 20.456 166.188 20.456C167.063 20.456 167.937 20.3173 168.812 20.04C169.708 19.7627 170.551 19.3787 171.34 18.888V23.752C170.615 24.2213 169.793 24.6053 168.876 24.904C167.959 25.1813 166.892 25.32 165.676 25.32ZM185.55 6.984C185.891 6.984 186.243 7.00533 186.606 7.048C186.969 7.09067 187.235 7.13333 187.406 7.176L186.862 12.936C186.649 12.8933 186.382 12.8507 186.062 12.808C185.763 12.7653 185.337 12.744 184.782 12.744C184.398 12.744 183.982 12.7867 183.534 12.872C183.107 12.936 182.691 13.0853 182.286 13.32C181.902 13.5547 181.582 13.9067 181.326 14.376C181.091 14.8453 180.974 15.4853 180.974 16.296V25H174.862V7.304H179.406L180.366 10.12H180.654C180.974 9.544 181.39 9.02133 181.902 8.552C182.414 8.06133 182.979 7.67733 183.598 7.4C184.238 7.12267 184.889 6.984 185.55 6.984ZM207.078 7.304V25H202.47L201.702 22.792H201.35C200.987 23.3893 200.518 23.88 199.942 24.264C199.387 24.6267 198.769 24.8933 198.086 25.064C197.425 25.2347 196.731 25.32 196.006 25.32C194.854 25.32 193.809 25.096 192.87 24.648C191.931 24.2 191.185 23.496 190.63 22.536C190.097 21.576 189.83 20.3387 189.83 18.824V7.304H195.942V16.968C195.942 18.12 196.102 18.9947 196.422 19.592C196.763 20.1893 197.307 20.488 198.054 20.488C198.822 20.488 199.419 20.2853 199.846 19.88C200.273 19.4533 200.561 18.8347 200.71 18.024C200.881 17.2133 200.966 16.2213 200.966 15.048V7.304H207.078ZM232.9 6.984C234.926 6.984 236.473 7.496 237.54 8.52C238.606 9.544 239.14 11.1973 239.14 13.48V25H233.028V15.368C233.028 14.024 232.846 13.096 232.484 12.584C232.121 12.0507 231.588 11.784 230.884 11.784C229.902 11.784 229.22 12.2213 228.836 13.096C228.452 13.9493 228.26 15.1653 228.26 16.744V25H222.148V15.368C222.148 14.5147 222.073 13.832 221.924 13.32C221.774 12.7867 221.55 12.4027 221.252 12.168C220.953 11.912 220.569 11.784 220.1 11.784C219.396 11.784 218.841 11.9973 218.436 12.424C218.052 12.8507 217.785 13.4693 217.635 14.28C217.486 15.0907 217.411 16.0827 217.411 17.256V25H211.299V7.304H215.908L216.804 9.48H216.964C217.284 8.98933 217.689 8.56267 218.18 8.2C218.67 7.816 219.257 7.51733 219.94 7.304C220.622 7.09067 221.401 6.984 222.276 6.984C223.577 6.984 224.644 7.208 225.476 7.656C226.329 8.08267 227.022 8.68 227.556 9.448H227.748C228.302 8.65867 229.017 8.05067 229.892 7.624C230.788 7.19733 231.79 6.984 232.9 6.984Z" fill="#605140"/>
<line x1="30" y1="5" x2="30" y2="57" stroke="#9C7548" stroke-width="8"/>
</svg>
