<svg width="1001" height="400" viewBox="0 0 1001 400" fill="none" xmlns="http://www.w3.org/2000/svg">
<ellipse cx="160" cy="138.5" rx="109" ry="104.5" fill="white"/>
<path d="M125.33 138.06C125.33 139.32 125.02 140.42 124.4 141.36C123.78 142.3 122.88 143.03 121.7 143.55C120.54 144.05 119.12 144.3 117.44 144.3C116.7 144.3 115.97 144.25 115.25 144.15C114.55 144.05 113.87 143.91 113.21 143.73C112.57 143.53 111.96 143.29 111.38 143.01V138.78C112.4 139.22 113.45 139.63 114.53 140.01C115.63 140.37 116.72 140.55 117.8 140.55C118.54 140.55 119.13 140.45 119.57 140.25C120.03 140.05 120.36 139.78 120.56 139.44C120.78 139.1 120.89 138.71 120.89 138.27C120.89 137.73 120.7 137.27 120.32 136.89C119.96 136.51 119.47 136.16 118.85 135.84C118.23 135.5 117.52 135.14 116.72 134.76C116.22 134.52 115.68 134.24 115.1 133.92C114.52 133.58 113.96 133.17 113.42 132.69C112.9 132.19 112.47 131.59 112.13 130.89C111.79 130.19 111.62 129.35 111.62 128.37C111.62 127.09 111.91 126 112.49 125.1C113.09 124.18 113.93 123.48 115.01 123C116.11 122.52 117.4 122.28 118.88 122.28C120 122.28 121.06 122.41 122.06 122.67C123.08 122.93 124.14 123.3 125.24 123.78L123.77 127.32C122.79 126.92 121.91 126.61 121.13 126.39C120.35 126.17 119.55 126.06 118.73 126.06C118.17 126.06 117.69 126.15 117.29 126.33C116.89 126.51 116.58 126.76 116.36 127.08C116.16 127.4 116.06 127.78 116.06 128.22C116.06 128.72 116.21 129.15 116.51 129.51C116.81 129.85 117.26 130.18 117.86 130.5C118.46 130.82 119.21 131.2 120.11 131.64C121.21 132.16 122.14 132.7 122.9 133.26C123.68 133.82 124.28 134.48 124.7 135.24C125.12 136 125.33 136.94 125.33 138.06ZM136.063 122.58C138.823 122.58 140.833 123.18 142.093 124.38C143.373 125.56 144.013 127.19 144.013 129.27C144.013 130.21 143.873 131.11 143.593 131.97C143.313 132.81 142.843 133.57 142.183 134.25C141.543 134.91 140.693 135.43 139.633 135.81C138.573 136.19 137.263 136.38 135.703 136.38H133.753V144H129.223V122.58H136.063ZM135.823 126.3H133.753V132.66H135.253C136.113 132.66 136.853 132.55 137.473 132.33C138.093 132.11 138.573 131.76 138.913 131.28C139.253 130.8 139.423 130.18 139.423 129.42C139.423 128.36 139.133 127.58 138.553 127.08C137.973 126.56 137.063 126.3 135.823 126.3ZM154.301 122.58C156.241 122.58 157.841 122.82 159.101 123.3C160.361 123.76 161.301 124.47 161.921 125.43C162.541 126.37 162.851 127.56 162.851 129C162.851 129.98 162.661 130.84 162.281 131.58C161.921 132.3 161.431 132.92 160.811 133.44C160.211 133.94 159.561 134.35 158.861 134.67L165.161 144H160.121L155.021 135.78H152.591V144H148.061V122.58H154.301ZM153.971 126.3H152.591V132.09H154.061C155.061 132.09 155.871 131.98 156.491 131.76C157.111 131.54 157.561 131.21 157.841 130.77C158.121 130.31 158.261 129.76 158.261 129.12C158.261 128.44 158.101 127.9 157.781 127.5C157.481 127.08 157.011 126.78 156.371 126.6C155.751 126.4 154.951 126.3 153.971 126.3ZM175.876 144H166.126V141.42L168.736 140.22V126.36L166.126 125.16V122.58H175.876V125.16L173.266 126.36V140.22L175.876 141.42V144ZM198.516 144H192.756L183.426 127.8H183.306C183.326 128.3 183.346 128.81 183.366 129.33C183.386 129.83 183.406 130.34 183.426 130.86C183.466 131.36 183.496 131.87 183.516 132.39C183.536 132.89 183.556 133.4 183.576 133.92V144H179.526V122.58H185.256L194.556 138.63H194.646C194.626 138.13 194.606 137.64 194.586 137.16C194.566 136.66 194.546 136.17 194.526 135.69C194.526 135.19 194.516 134.7 194.496 134.22C194.476 133.72 194.456 133.22 194.436 132.72V122.58H198.516V144ZM212.18 144H207.65V126.36H201.83V122.58H218V126.36H212.18V144Z" fill="#FFB660"/>
<path d="M49.3699 228.696L50.4839 205.629L29.9502 216.198L49.3699 228.696ZM253.156 35.4536L251.932 37.0352L253.156 35.4536ZM2 386C0.89543 386 0 386.895 0 388C0 389.105 0.89543 390 2 390V386ZM1001 388L981 376.453V399.547L1001 388ZM467.724 115.376L469.279 114.118L467.724 115.376ZM417.189 272.557L440.104 275.428L431.133 254.147L417.189 272.557ZM42.9275 211.811C21.3145 166.633 17.0426 128.042 24.2535 96.8932C31.4611 65.758 50.1858 41.8547 74.9596 26.0875C124.591 -5.50004 198.438 -4.37335 251.932 37.0352L254.38 33.8721C199.564 -8.56064 123.878 -9.78789 72.8119 22.713C47.2371 38.99 27.8221 63.7416 20.3565 95.9911C12.8941 128.227 17.4153 167.751 39.3191 213.537L42.9275 211.811ZM2 390H983V386H2V390ZM251.932 37.0352C278.167 57.3435 292.744 83.8175 300.585 122.874L304.507 122.087C296.527 82.3366 281.556 54.9086 254.38 33.8721L251.932 37.0352ZM300.585 122.874C311.935 179.41 290.2 281.053 163.234 386.461L165.789 389.539C293.527 283.49 316.228 180.47 304.507 122.087L300.585 122.874ZM304.229 123.56C315.336 106.247 342.31 87.686 373.395 81.9328C404.327 76.208 439.11 83.198 466.17 116.634L469.279 114.118C441.153 79.3646 404.802 72.0521 372.668 77.9996C340.687 83.9185 312.664 103.004 300.863 121.4L304.229 123.56ZM466.17 116.634C482.936 137.352 491.137 165.884 486.887 193.348C482.647 220.743 466.009 247.165 432.887 263.773L434.68 267.349C468.957 250.162 486.402 222.637 490.84 193.96C495.266 165.354 486.738 135.691 469.279 114.118L466.17 116.634Z" fill="#FFB660"/>
</svg>
