<svg width="383" height="80" viewBox="0 0 383 80" fill="none" xmlns="http://www.w3.org/2000/svg">
<path opacity="0.7" d="M2.27779 79.2767C1.99312 76.59 1.58645 74.1962 1.46444 71.7851C0.935767 61.3486 0.447757 50.912 0.000414044 40.4583C-0.0402535 39.6833 0.122417 38.9083 0.325754 38.1333C0.773097 36.7039 2.6438 35.9289 5.12452 35.8083C13.624 35.4294 22.1235 35.0505 30.7044 35.0333C36.1538 35.0161 41.2373 36.1528 46.6867 35.8944C53.9255 35.55 61.1643 35.86 68.3218 36.6005C68.8912 36.6694 69.5419 36.6522 70.1112 36.6522C79.3834 36.6694 88.7776 36.2216 97.9278 36.8244C108.664 37.5477 119.034 35.9633 129.648 36.48C134.895 36.7383 140.222 35.8772 145.468 35.2917C151.65 34.62 158.156 34.5511 164.541 34.5511C168.364 34.5511 172.268 35.1539 176.05 35.6017C183.045 36.4455 189.958 35.7911 196.831 35.2744C200.695 34.9817 204.436 34.3961 208.299 34.1033C211.309 33.8795 214.237 33.8967 217.328 34.4133C219.849 34.8439 222.899 34.9472 225.42 34.6372C230.138 34.0517 234.774 34.5167 239.166 34.93C243.07 35.3089 246.934 35.1883 250.797 35.395C256.246 35.705 261.777 35.8083 267.267 35.9461C273.896 36.1011 280.566 36.17 287.682 36.2905C288.74 50.4987 290.041 64.6724 290 79.1389C283.128 79.0011 276.661 78.8634 270.195 78.7428C269.219 78.7256 268.203 78.7945 267.186 78.8806C266.454 78.9322 265.763 79.1217 265.071 79.1217C257.141 79.1389 249.13 79.69 241.403 77.9506C237.58 77.0895 233.757 77.8473 229.975 78.4672C228.47 78.7084 226.925 78.8461 225.339 78.8806C221.679 78.9495 217.978 79.0011 214.318 78.915C211.471 78.8461 208.584 78.6222 205.737 78.3811C203.013 78.1573 200.329 77.8128 197.645 77.5373C197.075 77.4856 196.465 77.4511 195.936 77.52C192.683 77.9506 189.43 78.4328 186.176 78.8634C185.282 78.9839 184.346 79.0356 183.452 79.0184C177.921 78.8978 172.431 78.7084 166.9 78.6567C160.108 78.5878 153.276 78.6222 146.485 78.6567C145.346 78.6567 144.248 78.9322 143.109 79.0528C137.538 79.6383 131.926 79.5178 126.273 79.225C123.955 79.1045 121.556 78.8634 119.319 79.0528C112.69 79.6211 106.265 79.3111 99.9205 78.2261C97.5211 77.8128 95.6097 77.9334 93.373 78.7084C89.2249 80.1206 84.4262 79.8106 79.7901 79.5695C72.8359 79.2078 65.9224 78.7084 58.9683 78.2778C58.8056 78.2606 58.643 78.2261 58.521 78.2606C54.4135 79.0011 50.1028 79.0011 45.8327 79.1561C42.254 79.2939 38.7159 80.0172 35.1371 79.9828C24.4416 79.8967 13.7054 79.5522 2.27779 79.2767Z" fill="#DCAC68"/>
<path d="M56.32 44.376V47.456H70.74V44.376H56.32ZM55.032 65.908V69.016H71.132V65.908H55.032ZM58.028 60.14C58.644 61.848 59.176 64.144 59.26 65.6L62.284 64.816C62.144 63.332 61.556 61.12 60.884 59.44L58.028 60.14ZM65.896 59.272C65.56 61.036 64.832 63.472 64.188 64.984L67.016 65.684C67.688 64.284 68.444 62.044 69.2 60L65.896 59.272ZM60.464 52.552H66.568V55.968H60.464V52.552ZM57.356 49.612V58.88H69.816V49.612H57.356ZM49.852 48.212V53.448C49.852 57.592 49.404 63.276 44.868 67.168C45.484 67.588 46.744 68.848 47.164 69.52C52.176 65.236 53.072 58.208 53.072 53.504V48.212H49.852ZM47.724 46.588V49.64H56.208V46.588H47.724ZM45.064 53.98V57.088H56.544V53.98H45.064ZM52.456 57.872L50.496 59.664C51.616 61.064 53.828 64.032 54.836 65.796L56.964 63.024C56.292 62.184 53.352 58.684 52.456 57.872ZM47.528 43.256C46.996 46.448 45.988 49.724 44.504 51.768C45.288 52.076 46.716 52.832 47.36 53.308C48.816 51.04 50.02 47.428 50.692 43.844L47.528 43.256ZM80.008 60.84V63.5H92.02V60.84H80.008ZM82.892 43.396C82.22 45.776 80.932 48.688 78.804 50.872C79.532 51.236 80.596 52.104 81.1 52.776C83.508 50.116 84.908 46.924 85.86 43.844L82.892 43.396ZM84.404 45.412L83.144 47.96H87.876V45.412H84.404ZM83.144 55.632H88.996V57.172H83.144V55.632ZM83.144 52.02H88.996V53.532H83.144V52.02ZM80.736 49.78V59.44H91.516V49.78H80.736ZM84.936 50.956V58.292H87.288V50.956H84.936ZM84.964 65.012C86.588 66.16 88.576 67.868 89.444 69.044L91.544 66.888C90.564 65.74 88.548 64.144 86.896 63.08L84.964 65.012ZM87.064 45.412V45.972C86.812 47.12 86.196 49.024 85.692 50.228C86.364 50.564 87.4 51.18 87.988 51.6C88.744 50.284 89.724 48.184 90.34 46.588L88.24 45.3L87.764 45.412H87.064ZM84.628 59.02C84.432 63.304 83.9 65.796 79.616 67.224C80.232 67.756 81.016 68.876 81.296 69.604C86.448 67.7 87.344 64.34 87.596 59.02H84.628ZM77.152 43.2C76.2 44.964 74.24 47.204 72.504 48.576C73.008 49.192 73.792 50.452 74.184 51.152C76.312 49.416 78.636 46.784 80.176 44.348L77.152 43.2ZM77.6 49.108C76.34 51.908 74.268 54.736 72.308 56.612C72.84 57.34 73.764 58.964 74.072 59.664C76.396 57.312 78.916 53.56 80.512 50.144L77.6 49.108ZM75.696 55.24V69.548H78.72V52.244V52.216L75.696 55.24ZM92.272 44.712V47.708H98.656V44.712H92.272ZM91.88 51.88V54.932H99.244V51.88H91.88ZM94.092 53.532V65.936C94.092 66.244 93.98 66.328 93.672 66.328C93.364 66.328 92.412 66.328 91.488 66.3C91.852 67.224 92.244 68.596 92.328 69.492C93.98 69.492 95.184 69.436 96.108 68.904C97.032 68.372 97.228 67.476 97.228 65.992V53.532H94.092ZM106.3 52.972V56.08H121.532V52.972H106.3ZM106.3 58.964V62.072H121.532V58.964H106.3ZM106.3 64.984V68.092H121.532V64.984H106.3ZM104.004 46.868V69.492H107.42V50.088H120.776V69.436H124.36V46.868H104.004ZM111.956 43.2C111.76 44.656 111.284 46.616 110.836 48.016L113.916 48.576C114.532 47.344 115.344 45.496 116.016 43.62L111.956 43.2ZM140.292 43.2V49.052C140.292 49.416 140.124 49.5 139.648 49.5C139.2 49.528 137.408 49.528 135.952 49.444C136.456 50.228 137.072 51.432 137.296 52.328C139.312 52.328 140.852 52.3 142.084 51.88C143.288 51.432 143.68 50.704 143.68 49.164V43.2H140.292ZM146.9 48.38C143.512 52.3 136.232 54.372 128.672 55.296C129.316 55.996 130.324 57.452 130.744 58.236C138.192 56.976 145.892 54.568 150.12 49.808L146.9 48.38ZM134.916 44.46C133.6 46.476 131.332 48.408 129.036 49.64C129.792 50.172 131.08 51.376 131.668 51.992C133.992 50.48 136.568 48.044 138.164 45.496L134.916 44.46ZM146.34 45.832C148.468 47.428 151.044 49.752 152.136 51.32L155.076 49.528C153.788 47.904 151.156 45.692 149.028 44.208L146.34 45.832ZM134.524 54.932V69.548H137.772V57.452H148.16V69.408H151.576V54.932H134.524ZM136.12 58.768V61.036H149.504V58.768H136.12ZM136.12 62.464V64.732H149.504V62.464H136.12ZM136.12 66.132V68.596H149.504V66.132H136.12ZM163.028 53.42H176.86V56.948H163.028V53.42ZM160.228 51.348V59.02H179.828V51.348H160.228ZM165.044 48.156V50.34H174.928V48.156H165.044ZM168.488 52.02V57.928H171.204V52.02H168.488ZM169.832 45.832C172.548 48.352 177.504 50.956 181.396 52.272C181.9 51.404 182.628 50.256 183.356 49.5C179.016 48.408 174.48 46.196 171.288 43.228H168.096C165.8 45.72 161.208 48.352 156.616 49.724C157.204 50.424 157.988 51.628 158.352 52.384C162.776 50.844 167.34 48.24 169.832 45.832ZM164.008 54.036C164.484 55.016 164.876 56.304 164.988 57.144L167.452 56.416C167.284 55.576 166.836 54.344 166.332 53.392L164.008 54.036ZM173.276 53.28C173.052 54.204 172.52 55.576 172.128 56.5L174.424 57.116C174.872 56.332 175.432 55.156 176.048 53.952L173.276 53.28ZM161.768 59.916V69.52H165.072V62.1H174.9V69.436H178.344V59.916H161.768ZM163.672 63.22V65.432H176.328V63.22H163.672ZM163.672 66.58V68.764H176.328V66.58H163.672ZM200.828 46.392V53.364H204.076V46.392H200.828ZM197.524 56.5V66.776C197.524 67.084 197.44 67.168 197.104 67.196C196.796 67.196 195.704 67.196 194.752 67.14C195.088 67.84 195.452 68.82 195.564 69.52C197.244 69.52 198.448 69.492 199.316 69.128C200.184 68.764 200.436 68.12 200.436 66.86V56.5H197.524ZM205.644 43.2C205.364 44.012 204.748 45.16 204.272 45.972L206.568 46.672C207.156 45.972 207.856 45.02 208.584 43.928L205.644 43.2ZM196.936 44.04C197.552 44.88 198.196 46.028 198.42 46.756L200.912 45.86C200.632 45.104 199.932 43.984 199.288 43.2L196.936 44.04ZM205.868 56.472C206.904 57.256 208.108 58.376 208.64 59.216L210.656 57.732C210.068 56.92 208.836 55.828 207.8 55.128L205.868 56.472ZM193.856 63.136L194.164 65.712C196.628 65.432 199.736 65.068 202.76 64.704L202.704 62.296C199.428 62.66 196.152 62.94 193.856 63.136ZM201.108 54.96C199.456 55.492 196.656 55.884 194.276 56.108C194.528 56.668 194.836 57.536 194.92 58.068C197.468 57.928 200.576 57.536 202.844 56.92L201.108 54.96ZM194.948 45.804V48.044H210.264V45.804H194.948ZM195.844 49.108V51.18H209.424V49.108H195.844ZM194.08 52.328V54.736H210.852V52.328H194.08ZM194.024 59.048V61.484H210.824V59.048H194.024ZM202.788 55.296C202.928 63.584 204.104 69.66 208.304 69.66C210.04 69.66 210.936 68.652 211.328 65.964C210.74 65.684 209.928 65.292 209.396 64.76C209.284 66.328 209.032 67.056 208.584 67.056C206.736 67.056 205.504 62.744 205.588 55.296H202.788ZM207.604 61.792C206.092 64.284 203.236 66.3 200.492 67.42C201.024 67.868 201.752 68.68 202.088 69.184C205 67.924 208.108 65.656 209.872 62.912L207.604 61.792ZM185.988 51.824V54.344H193.436V51.824H185.988ZM186.156 44.096V46.644H193.352V44.096H186.156ZM185.988 55.632V58.18H193.436V55.632H185.988ZM184.812 47.876V50.536H194.136V47.876H184.812ZM187.528 59.524V62.156H190.692V65.348H187.528V67.98H193.38V59.524H187.528ZM185.904 59.524V69.156H188.536V59.524H185.904Z" fill="white"/>
<path d="M62.408 18.056C62.408 19.2933 62.088 20.4667 61.448 21.576C60.8293 22.6853 59.8587 23.592 58.536 24.296C57.2347 24.9787 55.5387 25.32 53.448 25.32C52.4027 25.32 51.4853 25.2667 50.696 25.16C49.928 25.0747 49.2027 24.9253 48.52 24.712C47.8373 24.4987 47.1333 24.2213 46.408 23.88V18.376C47.6453 18.9947 48.8933 19.4747 50.152 19.816C51.4107 20.136 52.552 20.296 53.576 20.296C54.1947 20.296 54.696 20.2213 55.08 20.072C55.464 19.9227 55.752 19.72 55.944 19.464C56.136 19.208 56.232 18.92 56.232 18.6C56.232 18.1947 56.0933 17.8533 55.816 17.576C55.5387 17.2987 55.1013 17.0107 54.504 16.712C53.9067 16.4133 53.1067 16.04 52.104 15.592C51.2507 15.208 50.4827 14.8027 49.8 14.376C49.1173 13.9493 48.5307 13.4693 48.04 12.936C47.5707 12.4027 47.208 11.784 46.952 11.08C46.696 10.3547 46.568 9.50133 46.568 8.52C46.568 7.048 46.9307 5.82133 47.656 4.84C48.3813 3.83733 49.384 3.09067 50.664 2.6C51.9653 2.088 53.4693 1.832 55.176 1.832C56.6693 1.832 58.0133 2.00267 59.208 2.344C60.4027 2.664 61.4693 3.03733 62.408 3.464L60.52 8.232C59.5387 7.784 58.568 7.432 57.608 7.176C56.6693 6.89867 55.7947 6.76 54.984 6.76C54.4507 6.76 54.0133 6.824 53.672 6.952C53.3307 7.08 53.0747 7.26133 52.904 7.496C52.7547 7.70933 52.68 7.95467 52.68 8.232C52.68 8.59467 52.8187 8.91467 53.096 9.192C53.3733 9.46933 53.832 9.77867 54.472 10.12C55.1333 10.44 56.0293 10.856 57.16 11.368C58.2693 11.8587 59.208 12.4027 59.976 13C60.7653 13.576 61.3627 14.2693 61.768 15.08C62.1947 15.8693 62.408 16.8613 62.408 18.056ZM76.3968 6.984C78.3594 6.984 79.8954 7.77333 81.0048 9.352C82.1141 10.9093 82.6688 13.16 82.6688 16.104C82.6688 18.1093 82.3808 19.8053 81.8048 21.192C81.2501 22.5573 80.4821 23.592 79.5008 24.296C78.5408 24.9787 77.4421 25.32 76.2048 25.32C75.3728 25.32 74.6688 25.2133 74.0928 25C73.5168 24.7867 73.0368 24.5307 72.6528 24.232C72.2688 23.912 71.9488 23.592 71.6927 23.272H71.5008C71.5434 23.6773 71.5861 24.1147 71.6288 24.584C71.6714 25.0533 71.6927 25.5973 71.6927 26.216V32.68H65.5807V7.304H70.5408L71.4048 9.544H71.6927C71.9914 9.07467 72.3434 8.648 72.7488 8.264C73.1754 7.88 73.6874 7.57067 74.2848 7.336C74.8821 7.10133 75.5861 6.984 76.3968 6.984ZM74.0928 11.784C73.4954 11.784 73.0261 11.9333 72.6848 12.232C72.3434 12.5093 72.0981 12.9253 71.9488 13.48C71.7994 14.0347 71.7141 14.7387 71.6927 15.592V16.072C71.6927 17.0107 71.7568 17.8 71.8848 18.44C72.0341 19.08 72.2901 19.5707 72.6528 19.912C73.0154 20.232 73.5061 20.392 74.1248 20.392C74.6368 20.392 75.0634 20.2533 75.4048 19.976C75.7674 19.6773 76.0341 19.208 76.2048 18.568C76.3754 17.928 76.4608 17.0853 76.4608 16.04C76.4608 14.4827 76.2581 13.384 75.8528 12.744C75.4474 12.104 74.8608 11.784 74.0928 11.784ZM96.8313 6.984C97.1726 6.984 97.5246 7.00533 97.8873 7.048C98.2499 7.09067 98.5166 7.13333 98.6873 7.176L98.1433 12.936C97.9299 12.8933 97.6633 12.8507 97.3433 12.808C97.0446 12.7653 96.6179 12.744 96.0633 12.744C95.6793 12.744 95.2633 12.7867 94.8153 12.872C94.3886 12.936 93.9726 13.0853 93.5673 13.32C93.1833 13.5547 92.8633 13.9067 92.6073 14.376C92.3726 14.8453 92.2552 15.4853 92.2552 16.296V25H86.1432V7.304H90.6873L91.6473 10.12H91.9353C92.2553 9.544 92.6713 9.02133 93.1833 8.552C93.6953 8.06133 94.2606 7.67733 94.8793 7.4C95.5193 7.12267 96.1699 6.984 96.8313 6.984ZM107.287 7.304V25H101.175V7.304H107.287ZM104.247 0.167999C105.122 0.167999 105.879 0.349332 106.519 0.711998C107.181 1.07467 107.511 1.8 107.511 2.888C107.511 3.93333 107.181 4.648 106.519 5.032C105.879 5.39467 105.122 5.576 104.247 5.576C103.351 5.576 102.583 5.39467 101.943 5.032C101.325 4.648 101.015 3.93333 101.015 2.888C101.015 1.8 101.325 1.07467 101.943 0.711998C102.583 0.349332 103.351 0.167999 104.247 0.167999ZM122.622 6.984C124.456 6.984 125.95 7.496 127.102 8.52C128.254 9.544 128.83 11.1973 128.83 13.48V25H122.718V15.336C122.718 14.1627 122.547 13.2773 122.206 12.68C121.864 12.0827 121.32 11.784 120.574 11.784C119.422 11.784 118.643 12.2533 118.238 13.192C117.854 14.1307 117.661 15.4853 117.661 17.256V25H111.549V7.304H116.158L116.99 9.64H117.214C117.598 9.08533 118.046 8.616 118.558 8.232C119.091 7.82667 119.688 7.51733 120.35 7.304C121.032 7.09067 121.79 6.984 122.622 6.984ZM141.659 20.488C142.214 20.488 142.715 20.4347 143.163 20.328C143.632 20.2 144.112 20.0507 144.603 19.88V24.328C143.942 24.6053 143.238 24.84 142.491 25.032C141.744 25.224 140.795 25.32 139.643 25.32C138.491 25.32 137.478 25.1387 136.603 24.776C135.75 24.4133 135.078 23.7947 134.587 22.92C134.096 22.024 133.851 20.776 133.851 19.176V11.88H131.707V9.384L134.427 7.464L135.995 3.752H139.995V7.304H144.347V11.88H139.995V18.76C139.995 19.336 140.134 19.7733 140.411 20.072C140.71 20.3493 141.126 20.488 141.659 20.488ZM163.858 2.152C165.928 2.152 167.645 2.408 169.01 2.92C170.397 3.432 171.432 4.18933 172.114 5.192C172.818 6.17333 173.17 7.41067 173.17 8.904C173.17 9.82133 173.01 10.664 172.69 11.432C172.392 12.2 171.954 12.8827 171.378 13.48C170.802 14.0773 170.109 14.6 169.298 15.048L175.954 25H168.946L164.114 16.68H162.546V25H156.37V2.152H163.858ZM163.762 6.824H162.546V12.04H163.698C164.338 12.04 164.893 11.9547 165.362 11.784C165.853 11.592 166.237 11.2933 166.514 10.888C166.792 10.4613 166.93 9.896 166.93 9.192C166.93 8.70133 166.824 8.28533 166.61 7.944C166.397 7.58133 166.056 7.304 165.586 7.112C165.117 6.92 164.509 6.824 163.762 6.824ZM185.643 6.984C187.371 6.984 188.853 7.28267 190.091 7.88C191.349 8.47733 192.309 9.37333 192.971 10.568C193.653 11.7627 193.995 13.2667 193.995 15.08V17.8H183.083C183.125 18.7173 183.467 19.4747 184.107 20.072C184.768 20.6693 185.717 20.968 186.955 20.968C188.064 20.968 189.077 20.8613 189.995 20.648C190.912 20.4347 191.861 20.0933 192.843 19.624V24.008C191.989 24.456 191.051 24.7867 190.027 25C189.024 25.2133 187.755 25.32 186.219 25.32C184.427 25.32 182.827 25.0107 181.419 24.392C180.032 23.752 178.933 22.76 178.123 21.416C177.312 20.072 176.907 18.3547 176.907 16.264C176.907 14.1307 177.269 12.3813 177.995 11.016C178.741 9.65067 179.765 8.63733 181.067 7.976C182.389 7.31467 183.915 6.984 185.643 6.984ZM185.867 11.144C185.141 11.144 184.533 11.368 184.043 11.816C183.573 12.264 183.296 12.9787 183.211 13.96H188.459C188.459 13.4267 188.352 12.9573 188.139 12.552C187.947 12.1253 187.659 11.784 187.275 11.528C186.891 11.272 186.421 11.144 185.867 11.144ZM206.128 20.488C206.682 20.488 207.184 20.4347 207.632 20.328C208.101 20.2 208.581 20.0507 209.072 19.88V24.328C208.41 24.6053 207.706 24.84 206.96 25.032C206.213 25.224 205.264 25.32 204.112 25.32C202.96 25.32 201.946 25.1387 201.072 24.776C200.218 24.4133 199.546 23.7947 199.056 22.92C198.565 22.024 198.32 20.776 198.32 19.176V11.88H196.176V9.384L198.896 7.464L200.464 3.752H204.464V7.304H208.816V11.88H204.464V18.76C204.464 19.336 204.602 19.7733 204.88 20.072C205.178 20.3493 205.594 20.488 206.128 20.488ZM222.863 6.984C223.204 6.984 223.556 7.00533 223.919 7.048C224.281 7.09067 224.548 7.13333 224.719 7.176L224.175 12.936C223.961 12.8933 223.695 12.8507 223.375 12.808C223.076 12.7653 222.649 12.744 222.095 12.744C221.711 12.744 221.295 12.7867 220.847 12.872C220.42 12.936 220.004 13.0853 219.599 13.32C219.215 13.5547 218.895 13.9067 218.639 14.376C218.404 14.8453 218.286 15.4853 218.286 16.296V25H212.174V7.304H216.719L217.679 10.12H217.967C218.287 9.544 218.703 9.02133 219.215 8.552C219.727 8.06133 220.292 7.67733 220.911 7.4C221.551 7.12267 222.201 6.984 222.863 6.984ZM243.446 16.104C243.446 17.576 243.243 18.888 242.838 20.04C242.432 21.192 241.846 22.1627 241.078 22.952C240.31 23.72 239.382 24.3067 238.294 24.712C237.206 25.1173 235.968 25.32 234.582 25.32C233.302 25.32 232.118 25.1173 231.03 24.712C229.963 24.3067 229.035 23.72 228.246 22.952C227.478 22.1627 226.87 21.192 226.422 20.04C225.995 18.888 225.782 17.576 225.782 16.104C225.782 14.1413 226.134 12.488 226.838 11.144C227.563 9.77867 228.587 8.744 229.91 8.04C231.232 7.336 232.822 6.984 234.678 6.984C236.384 6.984 237.888 7.336 239.19 8.04C240.512 8.744 241.547 9.77867 242.294 11.144C243.062 12.488 243.446 14.1413 243.446 16.104ZM231.99 16.104C231.99 17.1067 232.075 17.96 232.246 18.664C232.416 19.368 232.694 19.9013 233.078 20.264C233.483 20.6053 234.006 20.776 234.646 20.776C235.286 20.776 235.787 20.6053 236.15 20.264C236.534 19.9013 236.811 19.368 236.982 18.664C237.152 17.96 237.238 17.1067 237.238 16.104C237.238 15.1013 237.152 14.2587 236.982 13.576C236.811 12.8933 236.534 12.3813 236.15 12.04C235.766 11.6987 235.254 11.528 234.614 11.528C233.696 11.528 233.024 11.912 232.598 12.68C232.192 13.448 231.99 14.5893 231.99 16.104ZM260.077 19.56C260.077 20.6693 259.821 21.6613 259.309 22.536C258.818 23.4107 258.018 24.0933 256.909 24.584C255.821 25.0747 254.381 25.32 252.589 25.32C251.33 25.32 250.199 25.2453 249.197 25.096C248.215 24.968 247.213 24.712 246.189 24.328V19.432C247.319 19.944 248.461 20.3173 249.613 20.552C250.765 20.7653 251.671 20.872 252.333 20.872C253.015 20.872 253.517 20.7973 253.837 20.648C254.157 20.4987 254.317 20.2747 254.317 19.976C254.317 19.72 254.21 19.496 253.997 19.304C253.783 19.112 253.399 18.8987 252.845 18.664C252.311 18.4293 251.543 18.1093 250.541 17.704C249.559 17.2987 248.738 16.8613 248.077 16.392C247.437 15.9013 246.957 15.3253 246.637 14.664C246.317 13.9813 246.157 13.16 246.157 12.2C246.157 10.472 246.818 9.17067 248.141 8.296C249.485 7.42133 251.255 6.984 253.453 6.984C254.626 6.984 255.725 7.112 256.749 7.368C257.773 7.624 258.839 7.99733 259.949 8.488L258.285 12.424C257.709 12.1467 257.111 11.912 256.493 11.72C255.895 11.528 255.33 11.3787 254.797 11.272C254.285 11.1653 253.847 11.112 253.485 11.112C253.015 11.112 252.642 11.176 252.365 11.304C252.109 11.432 251.981 11.6133 251.981 11.848C251.981 12.0613 252.066 12.2533 252.237 12.424C252.429 12.5947 252.781 12.7867 253.293 13C253.805 13.2133 254.551 13.5227 255.533 13.928C256.557 14.3333 257.399 14.7813 258.061 15.272C258.743 15.7413 259.245 16.3173 259.565 17C259.906 17.6613 260.077 18.5147 260.077 19.56ZM274.272 6.984C276.234 6.984 277.77 7.77333 278.88 9.352C279.989 10.9093 280.544 13.16 280.544 16.104C280.544 18.1093 280.256 19.8053 279.68 21.192C279.125 22.5573 278.357 23.592 277.376 24.296C276.416 24.9787 275.317 25.32 274.08 25.32C273.248 25.32 272.544 25.2133 271.968 25C271.392 24.7867 270.912 24.5307 270.528 24.232C270.144 23.912 269.824 23.592 269.568 23.272H269.376C269.418 23.6773 269.461 24.1147 269.504 24.584C269.546 25.0533 269.568 25.5973 269.568 26.216V32.68H263.456V7.304H268.416L269.28 9.544H269.568C269.866 9.07467 270.218 8.648 270.624 8.264C271.05 7.88 271.562 7.57067 272.16 7.336C272.757 7.10133 273.461 6.984 274.272 6.984ZM271.968 11.784C271.37 11.784 270.901 11.9333 270.56 12.232C270.218 12.5093 269.973 12.9253 269.824 13.48C269.674 14.0347 269.589 14.7387 269.568 15.592V16.072C269.568 17.0107 269.632 17.8 269.76 18.44C269.909 19.08 270.165 19.5707 270.528 19.912C270.89 20.232 271.381 20.392 272 20.392C272.512 20.392 272.938 20.2533 273.28 19.976C273.642 19.6773 273.909 19.208 274.08 18.568C274.25 17.928 274.336 17.0853 274.336 16.04C274.336 14.4827 274.133 13.384 273.728 12.744C273.322 12.104 272.736 11.784 271.968 11.784ZM291.986 6.984C293.714 6.984 295.197 7.28267 296.434 7.88C297.693 8.47733 298.653 9.37333 299.314 10.568C299.997 11.7627 300.338 13.2667 300.338 15.08V17.8H289.426C289.469 18.7173 289.81 19.4747 290.45 20.072C291.112 20.6693 292.061 20.968 293.298 20.968C294.408 20.968 295.421 20.8613 296.338 20.648C297.256 20.4347 298.205 20.0933 299.186 19.624V24.008C298.333 24.456 297.394 24.7867 296.37 25C295.368 25.2133 294.098 25.32 292.562 25.32C290.77 25.32 289.17 25.0107 287.762 24.392C286.376 23.752 285.277 22.76 284.466 21.416C283.656 20.072 283.25 18.3547 283.25 16.264C283.25 14.1307 283.613 12.3813 284.338 11.016C285.085 9.65067 286.109 8.63733 287.41 7.976C288.733 7.31467 290.258 6.984 291.986 6.984ZM292.21 11.144C291.485 11.144 290.877 11.368 290.386 11.816C289.917 12.264 289.64 12.9787 289.554 13.96H294.802C294.802 13.4267 294.696 12.9573 294.482 12.552C294.29 12.1253 294.002 11.784 293.618 11.528C293.234 11.272 292.765 11.144 292.21 11.144ZM311.864 25.32C310.072 25.32 308.514 25 307.192 24.36C305.869 23.72 304.845 22.728 304.12 21.384C303.394 20.04 303.032 18.3227 303.032 16.232C303.032 14.0773 303.437 12.328 304.248 10.984C305.058 9.61867 306.157 8.616 307.544 7.976C308.952 7.31467 310.552 6.984 312.344 6.984C313.432 6.984 314.456 7.10133 315.416 7.336C316.397 7.57067 317.304 7.90133 318.135 8.328L316.344 12.84C315.618 12.52 314.936 12.264 314.296 12.072C313.677 11.88 313.026 11.784 312.344 11.784C311.725 11.784 311.181 11.944 310.712 12.264C310.242 12.584 309.88 13.0747 309.624 13.736C309.368 14.376 309.24 15.1973 309.24 16.2C309.24 17.224 309.368 18.0453 309.624 18.664C309.901 19.2827 310.274 19.7413 310.744 20.04C311.213 20.3173 311.757 20.456 312.376 20.456C313.25 20.456 314.125 20.3173 315 20.04C315.896 19.7627 316.738 19.3787 317.528 18.888V23.752C316.802 24.2213 315.981 24.6053 315.064 24.904C314.146 25.1813 313.08 25.32 311.864 25.32ZM329.722 20.488C330.276 20.488 330.778 20.4347 331.226 20.328C331.695 20.2 332.175 20.0507 332.666 19.88V24.328C332.004 24.6053 331.3 24.84 330.554 25.032C329.807 25.224 328.858 25.32 327.706 25.32C326.554 25.32 325.54 25.1387 324.666 24.776C323.812 24.4133 323.14 23.7947 322.65 22.92C322.159 22.024 321.914 20.776 321.914 19.176V11.88H319.77V9.384L322.49 7.464L324.058 3.752H328.058V7.304H332.41V11.88H328.058V18.76C328.058 19.336 328.196 19.7733 328.474 20.072C328.772 20.3493 329.188 20.488 329.722 20.488ZM341.912 7.304V25H335.8V7.304H341.912ZM338.872 0.167999C339.747 0.167999 340.504 0.349332 341.144 0.711998C341.806 1.07467 342.136 1.8 342.136 2.888C342.136 3.93333 341.806 4.648 341.144 5.032C340.504 5.39467 339.747 5.576 338.872 5.576C337.976 5.576 337.208 5.39467 336.568 5.032C335.95 4.648 335.64 3.93333 335.64 2.888C335.64 1.8 335.95 1.07467 336.568 0.711998C337.208 0.349332 337.976 0.167999 338.872 0.167999ZM350.815 25L344.062 7.304H350.431L353.439 17.768C353.46 17.832 353.492 17.9707 353.535 18.184C353.577 18.376 353.62 18.6 353.663 18.856C353.705 19.0907 353.727 19.3253 353.727 19.56H353.823C353.823 19.3253 353.833 19.1013 353.855 18.888C353.897 18.6533 353.94 18.44 353.983 18.248C354.047 18.056 354.089 17.9067 354.111 17.8L357.247 7.304H363.615L356.863 25H350.815ZM373.705 6.984C375.433 6.984 376.916 7.28267 378.153 7.88C379.412 8.47733 380.372 9.37333 381.033 10.568C381.716 11.7627 382.057 13.2667 382.057 15.08V17.8H371.145C371.188 18.7173 371.529 19.4747 372.169 20.072C372.83 20.6693 373.78 20.968 375.017 20.968C376.126 20.968 377.14 20.8613 378.057 20.648C378.974 20.4347 379.924 20.0933 380.905 19.624V24.008C380.052 24.456 379.113 24.7867 378.089 25C377.086 25.2133 375.817 25.32 374.281 25.32C372.489 25.32 370.889 25.0107 369.481 24.392C368.094 23.752 366.996 22.76 366.185 21.416C365.374 20.072 364.969 18.3547 364.969 16.264C364.969 14.1307 365.332 12.3813 366.057 11.016C366.804 9.65067 367.828 8.63733 369.129 7.976C370.452 7.31467 371.977 6.984 373.705 6.984ZM373.929 11.144C373.204 11.144 372.596 11.368 372.105 11.816C371.636 12.264 371.358 12.9787 371.273 13.96H376.521C376.521 13.4267 376.414 12.9573 376.201 12.552C376.009 12.1253 375.721 11.784 375.337 11.528C374.953 11.272 374.484 11.144 373.929 11.144Z" fill="#605140"/>
<line x1="30" y1="5" x2="30" y2="57" stroke="#9C7548" stroke-width="8"/>
</svg>
