<svg width="290" height="80" viewBox="0 0 290 80" fill="none" xmlns="http://www.w3.org/2000/svg">
<path opacity="0.7" d="M2.27779 79.2767C1.99312 76.59 1.58645 74.1962 1.46444 71.7851C0.935767 61.3485 0.447757 50.912 0.000414044 40.4582C-0.0402535 39.6832 0.122417 38.9082 0.325754 38.1333C0.773097 36.7038 2.6438 35.9288 5.12452 35.8083C13.624 35.4294 22.1235 35.0505 30.7044 35.0333C36.1538 35.0161 41.2373 36.1527 46.6867 35.8944C53.9255 35.55 61.1643 35.86 68.3218 36.6005C68.8912 36.6694 69.5419 36.6522 70.1112 36.6522C79.3834 36.6694 88.7776 36.2216 97.9278 36.8244C108.664 37.5477 119.034 35.9633 129.648 36.4799C134.895 36.7383 140.222 35.8772 145.468 35.2916C151.65 34.62 158.156 34.5511 164.541 34.5511C168.364 34.5511 172.268 35.1538 176.05 35.6016C183.045 36.4455 189.958 35.7911 196.831 35.2744C200.695 34.9816 204.436 34.3961 208.299 34.1033C211.309 33.8794 214.237 33.8966 217.328 34.4133C219.849 34.8439 222.899 34.9472 225.42 34.6372C230.138 34.0516 234.774 34.5166 239.166 34.93C243.07 35.3088 246.934 35.1883 250.797 35.395C256.246 35.705 261.777 35.8083 267.267 35.9461C273.896 36.1011 280.566 36.1699 287.682 36.2905C288.74 50.4987 290.041 64.6724 290 79.1389C283.128 79.0011 276.661 78.8633 270.195 78.7428C269.219 78.7255 268.203 78.7944 267.186 78.8805C266.454 78.9322 265.763 79.1217 265.071 79.1217C257.141 79.1389 249.13 79.69 241.403 77.9506C237.58 77.0895 233.757 77.8472 229.975 78.4672C228.47 78.7083 226.925 78.8461 225.339 78.8805C221.679 78.9494 217.978 79.0011 214.318 78.915C211.471 78.8461 208.584 78.6222 205.737 78.3811C203.013 78.1572 200.329 77.8128 197.645 77.5372C197.075 77.4856 196.465 77.4511 195.936 77.52C192.683 77.9506 189.43 78.4328 186.176 78.8633C185.282 78.9839 184.346 79.0355 183.452 79.0183C177.921 78.8978 172.431 78.7083 166.9 78.6567C160.108 78.5878 153.276 78.6222 146.485 78.6567C145.346 78.6567 144.248 78.9322 143.109 79.0528C137.538 79.6383 131.926 79.5178 126.273 79.225C123.955 79.1044 121.556 78.8633 119.319 79.0528C112.69 79.6211 106.265 79.3111 99.9205 78.2261C97.5211 77.8128 95.6097 77.9333 93.373 78.7083C89.2249 80.1205 84.4262 79.8105 79.7901 79.5694C72.8359 79.2078 65.9224 78.7083 58.9683 78.2778C58.8056 78.2606 58.643 78.2261 58.521 78.2606C54.4135 79.0011 50.1028 79.0011 45.8327 79.1561C42.254 79.2939 38.7159 80.0172 35.1371 79.9828C24.4416 79.8966 13.7054 79.5522 2.27779 79.2767Z" fill="#DCAC68"/>
<path d="M56.32 44.376V47.456H70.74V44.376H56.32ZM55.032 65.908V69.016H71.132V65.908H55.032ZM58.028 60.14C58.644 61.848 59.176 64.144 59.26 65.6L62.284 64.816C62.144 63.332 61.556 61.12 60.884 59.44L58.028 60.14ZM65.896 59.272C65.56 61.036 64.832 63.472 64.188 64.984L67.016 65.684C67.688 64.284 68.444 62.044 69.2 60L65.896 59.272ZM60.464 52.552H66.568V55.968H60.464V52.552ZM57.356 49.612V58.88H69.816V49.612H57.356ZM49.852 48.212V53.448C49.852 57.592 49.404 63.276 44.868 67.168C45.484 67.588 46.744 68.848 47.164 69.52C52.176 65.236 53.072 58.208 53.072 53.504V48.212H49.852ZM47.724 46.588V49.64H56.208V46.588H47.724ZM45.064 53.98V57.088H56.544V53.98H45.064ZM52.456 57.872L50.496 59.664C51.616 61.064 53.828 64.032 54.836 65.796L56.964 63.024C56.292 62.184 53.352 58.684 52.456 57.872ZM47.528 43.256C46.996 46.448 45.988 49.724 44.504 51.768C45.288 52.076 46.716 52.832 47.36 53.308C48.816 51.04 50.02 47.428 50.692 43.844L47.528 43.256ZM80.008 60.84V63.5H92.02V60.84H80.008ZM82.892 43.396C82.22 45.776 80.932 48.688 78.804 50.872C79.532 51.236 80.596 52.104 81.1 52.776C83.508 50.116 84.908 46.924 85.86 43.844L82.892 43.396ZM84.404 45.412L83.144 47.96H87.876V45.412H84.404ZM83.144 55.632H88.996V57.172H83.144V55.632ZM83.144 52.02H88.996V53.532H83.144V52.02ZM80.736 49.78V59.44H91.516V49.78H80.736ZM84.936 50.956V58.292H87.288V50.956H84.936ZM84.964 65.012C86.588 66.16 88.576 67.868 89.444 69.044L91.544 66.888C90.564 65.74 88.548 64.144 86.896 63.08L84.964 65.012ZM87.064 45.412V45.972C86.812 47.12 86.196 49.024 85.692 50.228C86.364 50.564 87.4 51.18 87.988 51.6C88.744 50.284 89.724 48.184 90.34 46.588L88.24 45.3L87.764 45.412H87.064ZM84.628 59.02C84.432 63.304 83.9 65.796 79.616 67.224C80.232 67.756 81.016 68.876 81.296 69.604C86.448 67.7 87.344 64.34 87.596 59.02H84.628ZM77.152 43.2C76.2 44.964 74.24 47.204 72.504 48.576C73.008 49.192 73.792 50.452 74.184 51.152C76.312 49.416 78.636 46.784 80.176 44.348L77.152 43.2ZM77.6 49.108C76.34 51.908 74.268 54.736 72.308 56.612C72.84 57.34 73.764 58.964 74.072 59.664C76.396 57.312 78.916 53.56 80.512 50.144L77.6 49.108ZM75.696 55.24V69.548H78.72V52.244V52.216L75.696 55.24ZM92.272 44.712V47.708H98.656V44.712H92.272ZM91.88 51.88V54.932H99.244V51.88H91.88ZM94.092 53.532V65.936C94.092 66.244 93.98 66.328 93.672 66.328C93.364 66.328 92.412 66.328 91.488 66.3C91.852 67.224 92.244 68.596 92.328 69.492C93.98 69.492 95.184 69.436 96.108 68.904C97.032 68.372 97.228 67.476 97.228 65.992V53.532H94.092ZM114.168 49.92V52.496H122.876V49.92H114.168ZM118.48 46.28C120.104 48.576 123.072 51.404 125.704 52.944C126.208 51.964 126.936 50.76 127.58 49.976C124.752 48.688 121.868 46 119.908 43.256H116.828C115.4 45.692 112.46 48.8 109.492 50.424C110.108 51.124 110.808 52.356 111.2 53.196C114.168 51.432 116.912 48.604 118.48 46.28ZM113.636 56.052H115.512V58.264H113.636V56.052ZM111.2 53.784V60.532H118.06V53.784H111.2ZM121.616 56.052H123.576V58.264H121.616V56.052ZM119.124 53.784V60.532H126.18V53.784H119.124ZM113.468 60.812C112.908 63.808 111.508 66.16 109.156 67.476C109.772 67.98 110.724 69.072 111.088 69.66C113.916 68.036 115.68 65.152 116.52 61.484L113.468 60.812ZM113.272 65.096C114.336 65.992 115.624 67.28 116.212 68.148L118.172 66.188C117.556 65.376 116.184 64.172 115.148 63.332L113.272 65.096ZM121.028 60.84C120.58 63.864 119.376 66.076 117.108 67.28C117.668 67.784 118.592 68.904 118.956 69.492C121.728 67.952 123.352 65.152 123.996 61.428L121.028 60.84ZM120.552 65.096C122.148 66.44 124.332 68.344 125.34 69.548L127.468 67.336C126.404 66.188 124.164 64.396 122.54 63.164L120.552 65.096ZM101.26 49.024V52.132H110.388V49.024H101.26ZM104.676 43.228V69.52H107.728V43.228H104.676ZM104.62 51.152C103.976 54.708 102.408 59.104 100.616 61.54C101.092 62.324 101.82 63.612 102.1 64.508C104.088 61.624 105.684 56.22 106.496 51.796L104.62 51.152ZM107.588 53.196L106.188 54.54C106.944 55.856 108.596 59.048 109.24 60.672L110.976 58.264C110.5 57.48 108.204 53.952 107.588 53.196ZM147.432 59.804V65.628C147.432 68.344 147.964 69.296 150.428 69.296C150.876 69.296 151.912 69.296 152.416 69.296C154.32 69.296 155.104 68.316 155.384 64.508C154.572 64.312 153.256 63.836 152.696 63.332C152.612 66.104 152.528 66.468 152.052 66.468C151.856 66.468 151.128 66.468 150.96 66.468C150.54 66.468 150.484 66.356 150.484 65.6V59.804H147.432ZM144.1 51.6H150.232V53.476H144.1V51.6ZM144.1 55.996H150.232V57.872H144.1V55.996ZM144.1 47.26H150.232V49.108H144.1V47.26ZM141.02 44.6V60.532H153.452V44.6H141.02ZM142.924 59.776C142.588 62.996 141.916 65.488 137.828 66.916C138.5 67.532 139.396 68.736 139.732 69.52C144.632 67.532 145.724 64.144 146.116 59.776H142.924ZM129.372 48.408V51.432H137.94V48.408H129.372ZM133.012 57.956V69.548H136.288V54.036L133.012 57.956ZM133.012 43.256V49.836H136.288V43.256H133.012ZM136.232 54.652L134.328 56.36C135.504 57.564 137.716 60.14 138.724 61.624L140.768 58.824C140.068 58.124 137.128 55.352 136.232 54.652ZM136.792 48.408V49.024C135.392 53.14 131.92 57.256 128.336 59.328C128.812 59.972 129.624 61.624 129.904 62.52C133.88 59.888 137.884 54.96 139.872 49.5L138.024 48.296L137.436 48.408H136.792ZM163.028 53.42H176.86V56.948H163.028V53.42ZM160.228 51.348V59.02H179.828V51.348H160.228ZM165.044 48.156V50.34H174.928V48.156H165.044ZM168.488 52.02V57.928H171.204V52.02H168.488ZM169.832 45.832C172.548 48.352 177.504 50.956 181.396 52.272C181.9 51.404 182.628 50.256 183.356 49.5C179.016 48.408 174.48 46.196 171.288 43.228H168.096C165.8 45.72 161.208 48.352 156.616 49.724C157.204 50.424 157.988 51.628 158.352 52.384C162.776 50.844 167.34 48.24 169.832 45.832ZM164.008 54.036C164.484 55.016 164.876 56.304 164.988 57.144L167.452 56.416C167.284 55.576 166.836 54.344 166.332 53.392L164.008 54.036ZM173.276 53.28C173.052 54.204 172.52 55.576 172.128 56.5L174.424 57.116C174.872 56.332 175.432 55.156 176.048 53.952L173.276 53.28ZM161.768 59.916V69.52H165.072V62.1H174.9V69.436H178.344V59.916H161.768ZM163.672 63.22V65.432H176.328V63.22H163.672ZM163.672 66.58V68.764H176.328V66.58H163.672ZM200.828 46.392V53.364H204.076V46.392H200.828ZM197.524 56.5V66.776C197.524 67.084 197.44 67.168 197.104 67.196C196.796 67.196 195.704 67.196 194.752 67.14C195.088 67.84 195.452 68.82 195.564 69.52C197.244 69.52 198.448 69.492 199.316 69.128C200.184 68.764 200.436 68.12 200.436 66.86V56.5H197.524ZM205.644 43.2C205.364 44.012 204.748 45.16 204.272 45.972L206.568 46.672C207.156 45.972 207.856 45.02 208.584 43.928L205.644 43.2ZM196.936 44.04C197.552 44.88 198.196 46.028 198.42 46.756L200.912 45.86C200.632 45.104 199.932 43.984 199.288 43.2L196.936 44.04ZM205.868 56.472C206.904 57.256 208.108 58.376 208.64 59.216L210.656 57.732C210.068 56.92 208.836 55.828 207.8 55.128L205.868 56.472ZM193.856 63.136L194.164 65.712C196.628 65.432 199.736 65.068 202.76 64.704L202.704 62.296C199.428 62.66 196.152 62.94 193.856 63.136ZM201.108 54.96C199.456 55.492 196.656 55.884 194.276 56.108C194.528 56.668 194.836 57.536 194.92 58.068C197.468 57.928 200.576 57.536 202.844 56.92L201.108 54.96ZM194.948 45.804V48.044H210.264V45.804H194.948ZM195.844 49.108V51.18H209.424V49.108H195.844ZM194.08 52.328V54.736H210.852V52.328H194.08ZM194.024 59.048V61.484H210.824V59.048H194.024ZM202.788 55.296C202.928 63.584 204.104 69.66 208.304 69.66C210.04 69.66 210.936 68.652 211.328 65.964C210.74 65.684 209.928 65.292 209.396 64.76C209.284 66.328 209.032 67.056 208.584 67.056C206.736 67.056 205.504 62.744 205.588 55.296H202.788ZM207.604 61.792C206.092 64.284 203.236 66.3 200.492 67.42C201.024 67.868 201.752 68.68 202.088 69.184C205 67.924 208.108 65.656 209.872 62.912L207.604 61.792ZM185.988 51.824V54.344H193.436V51.824H185.988ZM186.156 44.096V46.644H193.352V44.096H186.156ZM185.988 55.632V58.18H193.436V55.632H185.988ZM184.812 47.876V50.536H194.136V47.876H184.812ZM187.528 59.524V62.156H190.692V65.348H187.528V67.98H193.38V59.524H187.528ZM185.904 59.524V69.156H188.536V59.524H185.904Z" fill="white"/>
<path d="M62.408 18.056C62.408 19.2933 62.088 20.4667 61.448 21.576C60.8293 22.6853 59.8587 23.592 58.536 24.296C57.2347 24.9787 55.5387 25.32 53.448 25.32C52.4027 25.32 51.4853 25.2667 50.696 25.16C49.928 25.0747 49.2027 24.9253 48.52 24.712C47.8373 24.4987 47.1333 24.2213 46.408 23.88V18.376C47.6453 18.9947 48.8933 19.4747 50.152 19.816C51.4107 20.136 52.552 20.296 53.576 20.296C54.1947 20.296 54.696 20.2213 55.08 20.072C55.464 19.9227 55.752 19.72 55.944 19.464C56.136 19.208 56.232 18.92 56.232 18.6C56.232 18.1947 56.0933 17.8533 55.816 17.576C55.5387 17.2987 55.1013 17.0107 54.504 16.712C53.9067 16.4133 53.1067 16.04 52.104 15.592C51.2507 15.208 50.4827 14.8027 49.8 14.376C49.1173 13.9493 48.5307 13.4693 48.04 12.936C47.5707 12.4027 47.208 11.784 46.952 11.08C46.696 10.3547 46.568 9.50133 46.568 8.52C46.568 7.048 46.9307 5.82133 47.656 4.84C48.3813 3.83733 49.384 3.09067 50.664 2.6C51.9653 2.088 53.4693 1.832 55.176 1.832C56.6693 1.832 58.0133 2.00267 59.208 2.344C60.4027 2.664 61.4693 3.03733 62.408 3.464L60.52 8.232C59.5387 7.784 58.568 7.432 57.608 7.176C56.6693 6.89867 55.7947 6.76 54.984 6.76C54.4507 6.76 54.0133 6.824 53.672 6.952C53.3307 7.08 53.0747 7.26133 52.904 7.496C52.7547 7.70933 52.68 7.95467 52.68 8.232C52.68 8.59467 52.8187 8.91467 53.096 9.192C53.3733 9.46933 53.832 9.77867 54.472 10.12C55.1333 10.44 56.0293 10.856 57.16 11.368C58.2693 11.8587 59.208 12.4027 59.976 13C60.7653 13.576 61.3627 14.2693 61.768 15.08C62.1947 15.8693 62.408 16.8613 62.408 18.056ZM76.3968 6.984C78.3594 6.984 79.8954 7.77333 81.0048 9.352C82.1141 10.9093 82.6688 13.16 82.6688 16.104C82.6688 18.1093 82.3808 19.8053 81.8048 21.192C81.2501 22.5573 80.4821 23.592 79.5008 24.296C78.5408 24.9787 77.4421 25.32 76.2048 25.32C75.3728 25.32 74.6688 25.2133 74.0928 25C73.5168 24.7867 73.0368 24.5307 72.6528 24.232C72.2688 23.912 71.9488 23.592 71.6927 23.272H71.5008C71.5434 23.6773 71.5861 24.1147 71.6288 24.584C71.6714 25.0533 71.6927 25.5973 71.6927 26.216V32.68H65.5807V7.304H70.5408L71.4048 9.544H71.6927C71.9914 9.07467 72.3434 8.648 72.7488 8.264C73.1754 7.88 73.6874 7.57067 74.2848 7.336C74.8821 7.10133 75.5861 6.984 76.3968 6.984ZM74.0928 11.784C73.4954 11.784 73.0261 11.9333 72.6848 12.232C72.3434 12.5093 72.0981 12.9253 71.9488 13.48C71.7994 14.0347 71.7141 14.7387 71.6927 15.592V16.072C71.6927 17.0107 71.7568 17.8 71.8848 18.44C72.0341 19.08 72.2901 19.5707 72.6528 19.912C73.0154 20.232 73.5061 20.392 74.1248 20.392C74.6368 20.392 75.0634 20.2533 75.4048 19.976C75.7674 19.6773 76.0341 19.208 76.2048 18.568C76.3754 17.928 76.4608 17.0853 76.4608 16.04C76.4608 14.4827 76.2581 13.384 75.8528 12.744C75.4474 12.104 74.8608 11.784 74.0928 11.784ZM96.8313 6.984C97.1726 6.984 97.5246 7.00533 97.8873 7.048C98.2499 7.09067 98.5166 7.13333 98.6873 7.176L98.1433 12.936C97.9299 12.8933 97.6633 12.8507 97.3433 12.808C97.0446 12.7653 96.6179 12.744 96.0633 12.744C95.6793 12.744 95.2633 12.7867 94.8153 12.872C94.3886 12.936 93.9726 13.0853 93.5673 13.32C93.1833 13.5547 92.8633 13.9067 92.6073 14.376C92.3726 14.8453 92.2552 15.4853 92.2552 16.296V25H86.1432V7.304H90.6873L91.6473 10.12H91.9353C92.2553 9.544 92.6713 9.02133 93.1833 8.552C93.6953 8.06133 94.2606 7.67733 94.8793 7.4C95.5193 7.12267 96.1699 6.984 96.8313 6.984ZM107.287 7.304V25H101.175V7.304H107.287ZM104.247 0.167999C105.122 0.167999 105.879 0.349332 106.519 0.711998C107.181 1.07467 107.511 1.8 107.511 2.888C107.511 3.93333 107.181 4.648 106.519 5.032C105.879 5.39467 105.122 5.576 104.247 5.576C103.351 5.576 102.583 5.39467 101.943 5.032C101.325 4.648 101.015 3.93333 101.015 2.888C101.015 1.8 101.325 1.07467 101.943 0.711998C102.583 0.349332 103.351 0.167999 104.247 0.167999ZM122.622 6.984C124.456 6.984 125.95 7.496 127.102 8.52C128.254 9.544 128.83 11.1973 128.83 13.48V25H122.718V15.336C122.718 14.1627 122.547 13.2773 122.206 12.68C121.864 12.0827 121.32 11.784 120.574 11.784C119.422 11.784 118.643 12.2533 118.238 13.192C117.854 14.1307 117.661 15.4853 117.661 17.256V25H111.549V7.304H116.158L116.99 9.64H117.214C117.598 9.08533 118.046 8.616 118.558 8.232C119.091 7.82667 119.688 7.51733 120.35 7.304C121.032 7.09067 121.79 6.984 122.622 6.984ZM141.659 20.488C142.214 20.488 142.715 20.4347 143.163 20.328C143.632 20.2 144.112 20.0507 144.603 19.88V24.328C143.942 24.6053 143.238 24.84 142.491 25.032C141.744 25.224 140.795 25.32 139.643 25.32C138.491 25.32 137.478 25.1387 136.603 24.776C135.75 24.4133 135.078 23.7947 134.587 22.92C134.096 22.024 133.851 20.776 133.851 19.176V11.88H131.707V9.384L134.427 7.464L135.995 3.752H139.995V7.304H144.347V11.88H139.995V18.76C139.995 19.336 140.134 19.7733 140.411 20.072C140.71 20.3493 141.126 20.488 141.659 20.488ZM163.858 2.152C165.928 2.152 167.645 2.408 169.01 2.92C170.397 3.432 171.432 4.18933 172.114 5.192C172.818 6.17333 173.17 7.41067 173.17 8.904C173.17 9.82133 173.01 10.664 172.69 11.432C172.392 12.2 171.954 12.8827 171.378 13.48C170.802 14.0773 170.109 14.6 169.298 15.048L175.954 25H168.946L164.114 16.68H162.546V25H156.37V2.152H163.858ZM163.762 6.824H162.546V12.04H163.698C164.338 12.04 164.893 11.9547 165.362 11.784C165.853 11.592 166.237 11.2933 166.514 10.888C166.792 10.4613 166.93 9.896 166.93 9.192C166.93 8.70133 166.824 8.28533 166.61 7.944C166.397 7.58133 166.056 7.304 165.586 7.112C165.117 6.92 164.509 6.824 163.762 6.824ZM185.643 6.984C187.371 6.984 188.853 7.28267 190.091 7.88C191.349 8.47733 192.309 9.37333 192.971 10.568C193.653 11.7627 193.995 13.2667 193.995 15.08V17.8H183.083C183.125 18.7173 183.467 19.4747 184.107 20.072C184.768 20.6693 185.717 20.968 186.955 20.968C188.064 20.968 189.077 20.8613 189.995 20.648C190.912 20.4347 191.861 20.0933 192.843 19.624V24.008C191.989 24.456 191.051 24.7867 190.027 25C189.024 25.2133 187.755 25.32 186.219 25.32C184.427 25.32 182.827 25.0107 181.419 24.392C180.032 23.752 178.933 22.76 178.123 21.416C177.312 20.072 176.907 18.3547 176.907 16.264C176.907 14.1307 177.269 12.3813 177.995 11.016C178.741 9.65067 179.765 8.63733 181.067 7.976C182.389 7.31467 183.915 6.984 185.643 6.984ZM185.867 11.144C185.141 11.144 184.533 11.368 184.043 11.816C183.573 12.264 183.296 12.9787 183.211 13.96H188.459C188.459 13.4267 188.352 12.9573 188.139 12.552C187.947 12.1253 187.659 11.784 187.275 11.528C186.891 11.272 186.421 11.144 185.867 11.144ZM201.471 25L194.719 7.304H201.087L204.095 17.768C204.116 17.832 204.148 17.9707 204.191 18.184C204.233 18.376 204.276 18.6 204.319 18.856C204.361 19.0907 204.383 19.3253 204.383 19.56H204.479C204.479 19.3253 204.489 19.1013 204.511 18.888C204.553 18.6533 204.596 18.44 204.639 18.248C204.703 18.056 204.745 17.9067 204.767 17.8L207.903 7.304H214.271L207.519 25H201.471ZM222.537 7.304V25H216.425V7.304H222.537ZM219.497 0.167999C220.372 0.167999 221.129 0.349332 221.769 0.711998C222.431 1.07467 222.761 1.8 222.761 2.888C222.761 3.93333 222.431 4.648 221.769 5.032C221.129 5.39467 220.372 5.576 219.497 5.576C218.601 5.576 217.833 5.39467 217.193 5.032C216.575 4.648 216.265 3.93333 216.265 2.888C216.265 1.8 216.575 1.07467 217.193 0.711998C217.833 0.349332 218.601 0.167999 219.497 0.167999ZM234.768 6.984C236.496 6.984 237.978 7.28267 239.216 7.88C240.474 8.47733 241.434 9.37333 242.096 10.568C242.778 11.7627 243.12 13.2667 243.12 15.08V17.8H232.208C232.25 18.7173 232.592 19.4747 233.232 20.072C233.893 20.6693 234.842 20.968 236.08 20.968C237.189 20.968 238.202 20.8613 239.12 20.648C240.037 20.4347 240.986 20.0933 241.968 19.624V24.008C241.114 24.456 240.176 24.7867 239.152 25C238.149 25.2133 236.88 25.32 235.344 25.32C233.552 25.32 231.952 25.0107 230.544 24.392C229.157 23.752 228.058 22.76 227.248 21.416C226.437 20.072 226.032 18.3547 226.032 16.264C226.032 14.1307 226.394 12.3813 227.12 11.016C227.866 9.65067 228.89 8.63733 230.192 7.976C231.514 7.31467 233.04 6.984 234.768 6.984ZM234.992 11.144C234.266 11.144 233.658 11.368 233.168 11.816C232.698 12.264 232.421 12.9787 232.336 13.96H237.584C237.584 13.4267 237.477 12.9573 237.264 12.552C237.072 12.1253 236.784 11.784 236.4 11.528C236.016 11.272 235.546 11.144 234.992 11.144ZM259.332 17.256C259.246 16.8507 259.15 16.4027 259.044 15.912C258.937 15.4 258.841 14.888 258.756 14.376C258.692 13.864 258.628 13.3947 258.564 12.968C258.5 12.5413 258.446 12.2107 258.404 11.976H258.308C258.286 12.2107 258.233 12.5413 258.148 12.968C258.084 13.3947 257.998 13.8747 257.892 14.408C257.806 14.92 257.71 15.4533 257.604 16.008C257.497 16.5413 257.39 17.032 257.284 17.48L255.492 25H249.06L244.228 7.304H250.244L251.684 14.088C251.79 14.5787 251.897 15.176 252.004 15.88C252.11 16.5627 252.206 17.2667 252.292 17.992C252.398 18.696 252.462 19.336 252.484 19.912H252.58C252.601 19.4853 252.654 18.9947 252.74 18.44C252.825 17.8853 252.91 17.3307 252.996 16.776C253.102 16.2213 253.198 15.7307 253.284 15.304C253.369 14.8773 253.422 14.5893 253.444 14.44L255.076 7.304H261.828L263.332 14.536C263.417 14.9413 263.513 15.464 263.62 16.104C263.748 16.7227 263.865 17.3733 263.972 18.056C264.1 18.7387 264.185 19.3573 264.228 19.912H264.324C264.366 19.336 264.43 18.6853 264.516 17.96C264.601 17.2133 264.697 16.4987 264.804 15.816C264.91 15.112 265.017 14.536 265.124 14.088L266.692 7.304H272.58L267.716 25H261.188L259.332 17.256Z" fill="#605140"/>
<line x1="30" y1="5" x2="30" y2="57" stroke="#9C7548" stroke-width="8"/>
</svg>
