<svg width="206" height="59" viewBox="0 0 206 59" fill="none" xmlns="http://www.w3.org/2000/svg">
<rect x="2.5" y="2.5" width="201" height="54" rx="27" fill="white" stroke="#9C7548" stroke-width="5"/>
<path d="M29.3282 26.372V28.682H40.0642V26.372H29.3282ZM27.7882 35.744V38.054H43.7162V35.744H27.7882ZM28.3382 22.654V25.008H43.8042V22.654H28.3382ZM39.0302 26.372V26.9C38.8322 34.996 38.5682 38.032 38.0622 38.692C37.8642 38.978 37.6662 39.044 37.2702 39.044C36.8302 39.066 35.9722 39.044 34.9822 38.956C35.3122 39.528 35.5762 40.408 35.5982 40.98C36.7202 41.024 37.8422 41.024 38.5682 40.936C39.3162 40.826 39.8882 40.584 40.3942 39.858C41.0762 38.912 41.3842 36.052 41.6262 27.516C41.6262 27.208 41.6482 26.372 41.6482 26.372H39.0302ZM28.0742 26.372C27.7222 30.354 26.9742 35.524 26.3142 38.736L28.9982 38.912C29.5702 35.744 30.2742 30.508 30.7362 26.372H28.0742ZM29.0862 20.19C27.9862 22.918 26.0722 25.712 24.0922 27.406C24.7742 27.78 26.0062 28.572 26.5782 29.034C28.4482 27.098 30.5162 24.018 31.8582 20.982L29.0862 20.19ZM31.9902 29.562C33.2442 30.156 34.7622 31.146 35.4882 31.894L37.0282 30.332C36.2362 29.606 34.6742 28.704 33.4422 28.154L31.9902 29.562ZM31.7042 34.116C32.9802 34.754 34.5422 35.788 35.2682 36.558L36.8082 34.996C35.9942 34.248 34.4102 33.28 33.1342 32.708L31.7042 34.116ZM24.1582 30.992V33.346H28.8002V33.28H40.1962V33.346H44.6622V30.992H40.1962V31.08H28.8002V30.992H24.1582ZM57.7302 29.628L55.1342 30.178C56.7622 35.854 59.4682 39.44 65.0782 41.002C65.4962 40.232 66.2882 39.044 66.9042 38.45C61.7342 37.284 58.9842 34.182 57.7302 29.628ZM47.2802 28.528V31.256H65.6062V28.528H47.2802ZM46.5982 21.774V24.502H66.1782V21.774H46.5982ZM54.7822 22.5V27.912C54.7822 31.608 53.8582 36.36 46.0042 38.67C46.5542 39.198 47.3462 40.364 47.6322 41.024C56.4762 38.318 57.6202 32.62 57.6202 27.912V22.5H54.7822ZM76.4962 39H73.1742V29.914C73.1742 29.6647 73.1742 29.3567 73.1742 28.99C73.1888 28.6233 73.2035 28.242 73.2182 27.846C73.2328 27.45 73.2475 27.098 73.2622 26.79C73.1888 26.878 73.0275 27.0393 72.7782 27.274C72.5435 27.494 72.3235 27.692 72.1182 27.868L70.3142 29.32L68.7082 27.318L73.7682 23.292H76.4962V39ZM86.6 28.968C87.5533 28.968 88.404 29.1513 89.152 29.518C89.9 29.8847 90.4867 30.42 90.912 31.124C91.352 31.828 91.572 32.7007 91.572 33.742C91.572 34.8713 91.3373 35.8467 90.868 36.668C90.3987 37.4893 89.6947 38.12 88.756 38.56C87.832 39 86.6807 39.22 85.302 39.22C84.4807 39.22 83.7033 39.1467 82.97 39C82.2513 38.8533 81.6207 38.6407 81.078 38.362V35.502C81.6207 35.7807 82.2733 36.0227 83.036 36.228C83.7987 36.4187 84.5173 36.514 85.192 36.514C85.852 36.514 86.402 36.426 86.842 36.25C87.2967 36.074 87.6413 35.8027 87.876 35.436C88.1107 35.0693 88.228 34.6 88.228 34.028C88.228 33.2507 87.9713 32.664 87.458 32.268C86.9447 31.8573 86.1527 31.652 85.082 31.652C84.6713 31.652 84.246 31.696 83.806 31.784C83.366 31.8573 82.9993 31.9307 82.706 32.004L81.386 31.3L81.98 23.292H90.494V26.108H84.884L84.598 29.188C84.8473 29.144 85.1113 29.1 85.39 29.056C85.6833 28.9973 86.0867 28.968 86.6 28.968ZM96.8578 28.396V30.97H108.76V28.396H96.8578ZM107.902 28.396V28.88C107.704 34.996 107.462 37.46 106.934 38.032C106.692 38.274 106.45 38.34 106.054 38.34C105.504 38.34 104.36 38.318 103.128 38.208C103.612 38.956 103.964 40.1 104.008 40.87C105.306 40.914 106.582 40.936 107.352 40.826C108.188 40.694 108.804 40.496 109.354 39.748C110.124 38.846 110.388 36.228 110.63 29.54C110.652 29.21 110.674 28.396 110.674 28.396H107.902ZM99.3438 20.608C98.0238 23.952 95.5818 27.032 92.8098 28.858C93.4478 29.364 94.5918 30.42 95.0978 30.992C97.8698 28.814 100.554 25.272 102.204 21.444L99.3438 20.608ZM107.726 20.564L105.13 21.598C106.868 24.964 109.574 28.528 112.06 30.816C112.566 30.068 113.578 28.99 114.304 28.418C111.884 26.57 109.112 23.358 107.726 20.564ZM100.796 29.144C100.444 33.06 99.9158 36.778 94.0198 38.714C94.6358 39.286 95.4058 40.408 95.7358 41.134C102.292 38.692 103.238 34.094 103.656 29.144H100.796ZM128.45 20.454V23.094H130.936V20.454H128.45ZM124.292 21.642V23.534H135.402V21.642H124.292ZM123.698 25.162V27.142H135.798V25.162H123.698ZM125.744 23.622C126.03 24.26 126.316 25.118 126.404 25.668L128.626 25.184C128.516 24.656 128.186 23.82 127.856 23.204L125.744 23.622ZM131.596 23.094C131.42 23.71 131.068 24.59 130.782 25.184L132.718 25.69C133.026 25.162 133.378 24.458 133.796 23.644L131.596 23.094ZM126.712 32.026H132.894V33.06H126.712V32.026ZM126.712 29.474H132.894V30.486H126.712V29.474ZM124.644 27.89V34.644H135.05V27.89H124.644ZM128.494 29.166V39.594H130.936V29.166H128.494ZM124.534 35.546V37.46H135.116V35.546H124.534ZM123.5 38.538V40.562H135.908V38.538H123.5ZM116.79 25.8V28H123.148V25.8H116.79ZM115.734 29.606V31.85H123.764V29.606H115.734ZM115.954 33.082C116.284 34.314 116.592 35.898 116.636 36.954L118.418 36.492C118.308 35.436 118 33.896 117.626 32.664L115.954 33.082ZM115.492 38.12L115.998 40.518C118.308 40.056 121.344 39.44 124.182 38.824L124.006 36.646C120.926 37.218 117.648 37.812 115.492 38.12ZM122.048 32.488C121.894 33.544 121.564 35.084 121.278 36.074L122.862 36.514C123.192 35.59 123.544 34.204 123.94 32.95L122.048 32.488ZM118.748 26.68V38.934L121.014 38.538V26.68H118.748ZM118.638 20.322C117.956 22.038 116.658 24.106 114.81 25.69C115.294 26.042 116.042 26.878 116.394 27.406C118.572 25.426 119.914 23.16 120.772 21.488V20.806H120.024V20.322H118.638ZM118.968 20.322V22.192H119.43C120.64 23.182 122.136 25.03 122.84 26.13L124.534 24.106C123.742 22.984 122.092 21.422 120.816 20.322H118.968Z" fill="#9C7548"/>
<circle cx="167" cy="30" r="14.5" fill="#9C7548" stroke="#9C7548" stroke-width="3"/>
<path d="M166.5 20V29.5H175" stroke="white" stroke-width="2" stroke-linecap="round"/>
</svg>
