<svg width="165" height="165" viewBox="0 0 165 165" fill="none" xmlns="http://www.w3.org/2000/svg">
<path d="M132.575 23.2082C138.423 20.6273 144.387 26.5906 141.806 32.4386L137.43 42.3534C134.513 48.9631 138.652 56.5424 145.789 57.6618L156.496 59.3411C162.811 60.3316 164.603 68.5722 159.27 72.0965L150.229 78.0717C144.202 82.0551 143.585 90.6686 148.985 95.4692L157.084 102.67C161.861 106.918 158.914 114.819 152.522 114.901L141.685 115.039C134.461 115.132 129.286 122.045 131.233 129.003L134.153 139.439C135.875 145.595 129.124 150.649 123.703 147.262L114.512 141.52C108.384 137.692 100.293 140.71 98.1695 147.615L94.9836 157.974C93.1045 164.083 84.6927 164.685 81.9632 158.905L77.3355 149.105C74.2505 142.572 65.8123 140.737 60.2921 145.398L52.0117 152.389C47.1277 156.513 39.726 152.472 40.5548 146.133L41.9599 135.387C42.8966 128.224 36.7903 122.117 29.6265 123.054L18.8806 124.459C12.5423 125.288 8.50067 117.886 12.6246 113.002L19.6164 104.722C24.2775 99.2017 22.4418 90.7635 15.9088 87.6785L6.10911 83.0508C0.328928 80.3213 0.930547 71.9095 7.04035 70.0304L17.3989 66.8445C24.3044 64.7206 27.3223 56.6295 23.4942 50.5022L17.7521 41.3111C14.3652 35.8899 19.419 29.1387 25.5749 30.8611L36.0115 33.7812C42.969 35.7279 49.8822 30.5528 49.9745 23.3286L50.113 12.4921C50.1947 6.10033 58.0962 3.15321 62.3437 7.93027L69.5447 16.0293C74.3454 21.4285 82.9589 20.8124 86.9423 14.785L92.9175 5.74358C96.4418 0.410684 104.682 2.2033 105.673 8.51835L107.352 19.2249C108.472 26.3624 116.051 30.501 122.661 27.5839L132.575 23.2082Z" fill="#FF7A7A" stroke="white" stroke-width="4"/>
<path d="M51.5129 51.4396C56.8396 59.9473 55.7932 67.0535 52.9731 75.1695C51.0826 80.6104 49.1601 84.9731 47.7511 85.9572C47.1697 86.3141 46.7282 86.4148 45.987 86.2081C44.8969 85.9817 43.1582 85.4284 40.7275 84.3805C41.2347 86.2845 41.0245 88.4981 40.4554 90.2822C42.8112 91.2532 44.9126 91.9325 46.8838 92.1093C48.1572 92.2469 49.3752 91.9587 50.4769 91.2744C53.5394 89.188 56.163 83.392 58.3214 77.1803C61.3305 68.5202 63.0171 60.0103 56.5131 49.7724L51.5129 51.4396ZM56.0199 67.1323C52.4375 70.7149 46.4778 73.8273 41.6705 74.6468C42.3648 76.1584 42.9393 78.7463 43.1625 80.2976C48.4801 78.7406 54.9797 74.952 59.1453 70.8606L56.0199 67.1323ZM63.6416 52.6559C59.3338 55.9865 51.884 59.2925 46.1936 60.3133C46.9018 61.9314 47.4605 64.5646 47.6364 66.2519C53.7917 64.4779 61.7656 60.541 66.7927 56.7489L63.6416 52.6559ZM67.5693 56.5614L65.789 61.6849L89.6383 69.9718L91.4186 64.8483L67.5693 56.5614ZM54.2802 88.2258L52.4999 93.3493L79.0697 102.582L80.8499 97.458L54.2802 88.2258ZM62.7391 72.3635L60.9431 77.5323L83.7949 85.4726L85.5909 80.3038L62.7391 72.3635ZM75.7395 62.2967L64.0181 96.0303L69.6403 97.9839L81.3617 64.2503L75.7395 62.2967ZM96.4729 66.0964L94.9763 70.4038L112.432 76.4693L113.929 72.1619L96.4729 66.0964ZM112.478 71.6578L112.273 72.2472C110.422 76.9903 109.504 78.7547 108.877 79.0959C108.434 79.3484 108.056 79.2677 107.421 79.0471C106.741 78.8108 105.244 78.2909 103.63 77.5266C103.916 78.8965 103.8 80.8381 103.405 82.1234C105.443 82.9841 107.363 83.6004 108.453 83.8268C109.77 84.1319 110.832 84.1453 111.964 83.5221C113.249 82.749 114.539 80.3517 116.64 75.0349C116.891 74.4613 117.284 73.3277 117.284 73.3277L112.478 71.6578ZM122.963 79.2137L129.129 81.3563L127.57 85.845L121.403 83.7024L122.963 79.2137ZM119.484 73.4315L115.104 86.0363L131.382 91.6922L135.762 79.0874L119.484 73.4315ZM99.3215 91.6807L119.045 98.5339L118.367 100.484L98.644 93.6303L99.3215 91.6807ZM97.5727 96.7135L117.296 103.567L116.603 105.562L96.8795 98.7085L97.5727 96.7135ZM101.054 86.6932L120.778 93.5464L120.116 95.4507L100.393 88.5975L101.054 86.6932ZM96.9293 81.6011L90.5014 100.1L120.97 110.687L127.398 92.1882L96.9293 81.6011ZM107.138 108.523C111.255 111.885 115.305 115.731 117.476 118.112L124.284 117.53C121.51 114.838 116.614 110.647 112.33 107.329L107.138 108.523ZM98.018 102.305C94.3361 102.957 88.3892 102.669 83.2679 101.906C84.1771 103.238 85.3428 105.879 85.9169 107.298C90.9985 107.59 97.6806 107.371 102.234 106.26L98.018 102.305ZM104.355 65.7864C101.708 72.2348 99.2732 76.3177 91.2882 76.338C92.0455 77.6683 92.7302 79.9388 92.7879 81.3817C102.462 81.0336 106.036 75.7203 109.434 67.5509L104.355 65.7864Z" fill="white"/>
</svg>
