<svg width="166" height="165" viewBox="0 0 166 165" fill="none" xmlns="http://www.w3.org/2000/svg">
<path d="M76.4732 7.37264C78.7834 1.41247 87.2166 1.41247 89.5268 7.37265L93.4436 17.4775C96.0547 24.214 104.34 26.6469 110.179 22.3915L118.937 16.0083C124.103 12.2433 131.197 16.8026 129.919 23.0656L127.75 33.684C126.305 40.7627 131.96 47.289 139.173 46.8657L149.991 46.2308C156.373 45.8563 159.876 53.5275 155.414 58.1049L147.849 65.8654C142.806 71.039 144.035 79.5866 150.332 83.1298L159.776 88.4448C165.347 91.5797 164.147 99.9271 157.919 101.366L147.359 103.804C140.32 105.43 136.732 113.285 140.113 119.67L145.185 129.248C148.177 134.897 142.654 141.27 136.637 139.113L126.435 135.456C119.634 133.018 112.37 137.686 111.762 144.886L110.851 155.685C110.313 162.054 102.222 164.43 98.326 159.362L91.721 150.77C87.3178 145.042 78.6822 145.042 74.279 150.77L67.674 159.362C63.7782 164.43 55.6866 162.054 55.1491 155.685L54.2379 144.886C53.6304 137.686 46.3657 133.018 39.5648 135.456L29.3631 139.113C23.3458 141.27 17.8232 134.897 20.8147 129.248L25.8866 119.67C29.2677 113.285 25.6804 105.43 18.6409 103.804L8.08147 101.366C1.85318 99.9271 0.653002 91.5797 6.22374 88.4448L15.6684 83.1298C21.9646 79.5866 23.1936 71.039 18.1506 65.8654L10.586 58.1049C6.12408 53.5275 9.62739 45.8563 16.0087 46.2308L26.8275 46.8657C34.0398 47.289 39.6949 40.7627 38.2495 33.684L36.0814 23.0656C34.8026 16.8026 41.8971 12.2433 47.0629 16.0083L55.821 22.3915C61.6595 26.6469 69.9453 24.214 72.5564 17.4775L76.4732 7.37264Z" fill="#FF7A7A" stroke="white" stroke-width="4"/>
<path d="M54.9648 67.8612L61.6594 81.6855L66.8003 79.196L60.1057 65.3716L54.9648 67.8612ZM47.2005 74.0744L48.7277 77.2281L71.6242 66.1401L70.097 62.9865L47.2005 74.0744ZM50.4758 78.1948L51.9194 81.1757L72.7854 71.071L71.3419 68.0901L50.4758 78.1948ZM50.5138 83.6696L52.0829 86.9097L76.9234 74.8803L75.3544 71.6403L50.5138 83.6696ZM63.9877 92.771L74.4856 87.6873L75.3852 89.5449L64.8873 94.6287L63.9877 92.771ZM66.3099 97.5663L76.8078 92.4826L77.7074 94.3403L67.2095 99.424L66.3099 97.5663ZM61.6865 88.0189L72.1843 82.9352L73.0421 84.7064L62.5442 89.7902L61.6865 88.0189ZM55.4726 87.0815L64.0919 104.88L84.1372 95.1731L75.5179 77.3743L55.4726 87.0815ZM76.2002 101.47C79.5231 101.834 83.55 102.551 85.8192 103.052L89.1406 98.4567C86.5271 98.0157 82.0668 97.6157 78.4428 97.2907L76.2002 101.47ZM68.5748 101.803C67.3171 104.492 64.1962 108.51 61.2213 111.177C62.6334 111.56 64.7494 112.295 65.9873 112.869C68.9426 110.051 72.2376 105.842 73.8896 102.536L68.5748 101.803ZM36.15 77.0258C36.5999 80.4879 36.7716 85.5779 36.5148 88.9022L40.6613 88.6542C41.1314 85.44 41.2567 80.6327 41.3961 76.4053L36.15 77.0258ZM43.5004 79.7595C43.4493 85.4908 42.5724 93.7019 41.2152 99.1591L45.0119 99.4004C46.5392 94.0742 47.8218 86.04 48.6323 79.6742L43.5004 79.7595ZM34.3284 90.3343C37.5554 91.4916 41.5896 93.3245 43.5652 94.9811L44.4485 89.6468C42.4284 88.1184 38.4333 86.5865 35.2036 85.6439L34.3284 90.3343ZM47.249 90.5839C50.2477 92.8116 53.6203 96.0316 55.288 98.2639L58.3393 94.653C56.6716 92.4207 53.2099 89.4572 50.1665 87.3577L47.249 90.5839ZM38.4875 99.2533L40.988 103.536C44.9456 101.246 50.092 98.3269 55.0028 95.3622L52.9303 91.1926C47.6975 94.1533 42.271 97.1544 38.4875 99.2533ZM53.516 100.882C55.6589 102.884 58.0487 105.727 59.2257 107.717L62.4639 104.602C61.2005 102.654 58.7661 99.9396 56.5577 98.0224L53.516 100.882ZM43.4624 104.791C44.8741 108.587 46.1089 112.789 46.1336 115.923C47.3365 115.874 49.6348 115.775 50.7708 115.918C50.6847 112.546 49.5208 107.83 47.9444 103.474L43.4624 104.791ZM46.2061 98.3421L55.5576 117.653L60.0073 115.498L50.6558 96.1873L46.2061 98.3421ZM86.6903 54.631L88.4895 58.3462L115.101 45.4591L113.302 41.7438L86.6903 54.631ZM96.1604 61.1913L97.1855 63.3082L113.472 55.4211L112.447 53.3042L96.1604 61.1913ZM97.8341 64.6474L98.8592 66.7643L115.146 58.8772L114.121 56.7603L97.8341 64.6474ZM91.6841 58.6658L97.5001 70.6757L102.123 68.4372L97.541 58.9762L109.551 53.1602L114.132 62.6212L118.971 60.2781L113.155 48.2682L91.6841 58.6658ZM92.9621 71.3266L95.9538 77.5044L100.317 75.3914L98.7271 72.1081L118.816 62.38L120.406 65.6633L125.028 63.4248L122.036 57.247L92.9621 71.3266ZM100.163 72.3195C99.8582 74.3336 99.0102 76.8776 97.7424 78.6648L102.023 79.6851C103.21 77.5104 103.91 74.7714 104.261 72.5217L100.163 72.3195ZM102.864 70.9583L103.93 73.1616C105.374 76.1424 106.744 76.4389 110.632 74.556C111.496 74.1376 114.78 72.5476 115.644 72.1292C118.192 70.8949 118.851 69.7225 117.984 67.0495C116.906 67.3579 115.185 67.6581 114.262 67.6249C114.675 68.9182 114.585 69.282 113.764 69.6795C113.03 70.0352 110.437 71.2904 109.919 71.5415C108.753 72.1063 108.474 72.0813 108.035 71.1741L106.968 68.9708L102.864 70.9583ZM105.879 68.4848C107.85 68.8103 110.245 69.5705 111.544 70.3813L113.755 67.0174C112.412 66.2275 109.973 65.5955 107.98 65.3341L105.879 68.4848ZM115.778 66.5707C118.152 67.2878 121.099 68.5273 122.61 69.5554L125.079 66.1733C123.483 65.0797 120.469 64.0325 118.137 63.4019L115.778 66.5707ZM107.174 74.6839C106.126 77.805 103.436 81.721 99.0492 85.6585C100.27 85.8672 102.321 86.6875 103.428 87.4314C107.932 82.6367 110.714 78.2495 112.192 73.4809L107.174 74.6839ZM119.166 72.0236L119.521 72.758C118.878 77.8163 112.397 84.3678 101.709 90.9304C103.054 91.5056 104.908 92.581 105.927 93.4741C117.077 86.1016 123.869 78.6523 124.823 71.1506L120.896 70.9721L120.116 71.5633L119.166 72.0236ZM107.693 79.4993L104.258 82.8692C111.495 86.1382 120.589 85.0941 130.942 81.2537C130.897 79.7289 131.207 77.2855 131.676 75.8316C122.094 79.8321 113.29 81.6956 107.693 79.4993ZM107.588 77.6303L106.095 81.9264L121.777 74.3322L120.375 71.4378L107.588 77.6303ZM97.809 51.3799C98.307 52.7387 98.7745 54.8055 99.1193 56.3985L103.925 54.9781C103.901 53.4965 103.84 51.4992 103.718 49.265L97.809 51.3799ZM80.668 55.5207C81.8648 62.7277 81.7432 70.6263 80.2105 76.3818C81.7008 77.3667 84.3762 79.6977 85.4358 80.7845C87.3319 73.4665 87.3314 63.3336 86.1328 54.581L80.668 55.5207ZM82.9874 69.0105L96.8369 97.6096L101.762 95.2246L85.6529 61.9599L85.4814 61.9362L82.9874 69.0105Z" fill="white"/>
</svg>
