<svg width="30" height="395" viewBox="0 0 30 395" fill="none" xmlns="http://www.w3.org/2000/svg">
<path d="M17 2C17 0.89543 16.1046 -4.82823e-08 15 0C13.8954 4.82823e-08 13 0.895431 13 2L17 2ZM13.5858 394.414C14.3669 395.195 15.6332 395.195 16.4142 394.414L29.1422 381.686C29.9232 380.905 29.9232 379.639 29.1422 378.858C28.3611 378.077 27.0948 378.077 26.3137 378.858L15 390.172L3.68631 378.858C2.90526 378.077 1.63893 378.077 0.857881 378.858C0.0768321 379.639 0.0768322 380.905 0.857881 381.686L13.5858 394.414ZM13 2L13 393L17 393L17 2L13 2Z" fill="#605140"/>
</svg>
