<svg width="1488" height="930" viewBox="0 0 1488 930" fill="none" xmlns="http://www.w3.org/2000/svg">
<rect x="1" y="1" width="59.4876" height="58" stroke="white" stroke-width="2"/>
<rect x="1.00024" y="465" width="59.4876" height="58" stroke="white" stroke-width="2"/>
<rect x="1.00024" y="233" width="59.4876" height="58" stroke="white" stroke-width="2"/>
<rect x="1.00024" y="697" width="59.4876" height="58" stroke="white" stroke-width="2"/>
<rect x="1.00024" y="117" width="59.4876" height="58" stroke="white" stroke-width="2"/>
<rect x="1.00024" y="581" width="59.4876" height="58" stroke="white" stroke-width="2"/>
<rect x="1.00024" y="349" width="59.4876" height="58" stroke="white" stroke-width="2"/>
<rect x="1.00024" y="813" width="59.4876" height="58" stroke="white" stroke-width="2"/>
<rect x="1.00024" y="58.9998" width="59.4876" height="58" stroke="white" stroke-width="2"/>
<rect x="1.00024" y="523" width="59.4876" height="58" stroke="white" stroke-width="2"/>
<rect x="1.00024" y="291" width="59.4876" height="58" stroke="white" stroke-width="2"/>
<rect x="1.00024" y="755" width="59.4876" height="58" stroke="white" stroke-width="2"/>
<rect x="1.00024" y="175" width="59.4876" height="58" stroke="white" stroke-width="2"/>
<rect x="1.00024" y="639" width="59.4876" height="58" stroke="white" stroke-width="2"/>
<rect x="1.00024" y="407" width="59.4876" height="58" stroke="white" stroke-width="2"/>
<rect x="1.00024" y="871" width="59.4876" height="58" stroke="white" stroke-width="2"/>
<rect x="476.503" y="1" width="59.4876" height="58" stroke="white" stroke-width="2"/>
<rect x="476.503" y="465" width="59.4876" height="58" stroke="white" stroke-width="2"/>
<rect x="476.503" y="233" width="59.4876" height="58" stroke="white" stroke-width="2"/>
<rect x="476.503" y="697" width="59.4876" height="58" stroke="white" stroke-width="2"/>
<rect x="476.503" y="117" width="59.4876" height="58" stroke="white" stroke-width="2"/>
<rect x="476.503" y="581" width="59.4876" height="58" stroke="white" stroke-width="2"/>
<rect x="476.503" y="349" width="59.4876" height="58" stroke="white" stroke-width="2"/>
<rect x="476.503" y="813" width="59.4876" height="58" stroke="white" stroke-width="2"/>
<rect x="476.503" y="58.9998" width="59.4876" height="58" stroke="white" stroke-width="2"/>
<rect x="476.503" y="523" width="59.4876" height="58" stroke="white" stroke-width="2"/>
<rect x="476.503" y="291" width="59.4876" height="58" stroke="white" stroke-width="2"/>
<rect x="476.503" y="755" width="59.4876" height="58" stroke="white" stroke-width="2"/>
<rect x="476.503" y="175" width="59.4876" height="58" stroke="white" stroke-width="2"/>
<rect x="476.503" y="639" width="59.4876" height="58" stroke="white" stroke-width="2"/>
<rect x="476.503" y="407" width="59.4876" height="58" stroke="white" stroke-width="2"/>
<rect x="476.503" y="871" width="59.4876" height="58" stroke="white" stroke-width="2"/>
<rect x="238.752" y="1" width="59.4876" height="58" stroke="white" stroke-width="2"/>
<rect x="238.752" y="465" width="59.4876" height="58" stroke="white" stroke-width="2"/>
<rect x="238.752" y="233" width="59.4876" height="58" stroke="white" stroke-width="2"/>
<rect x="238.752" y="697" width="59.4876" height="58" stroke="white" stroke-width="2"/>
<rect x="238.752" y="117" width="59.4876" height="58" stroke="white" stroke-width="2"/>
<rect x="238.752" y="581" width="59.4876" height="58" stroke="white" stroke-width="2"/>
<rect x="238.752" y="349" width="59.4876" height="58" stroke="white" stroke-width="2"/>
<rect x="238.752" y="813" width="59.4876" height="58" stroke="white" stroke-width="2"/>
<rect x="238.752" y="58.9998" width="59.4876" height="58" stroke="white" stroke-width="2"/>
<rect x="238.752" y="523" width="59.4876" height="58" stroke="white" stroke-width="2"/>
<rect x="238.752" y="291" width="59.4876" height="58" stroke="white" stroke-width="2"/>
<rect x="238.752" y="755" width="59.4876" height="58" stroke="white" stroke-width="2"/>
<rect x="238.752" y="175" width="59.4876" height="58" stroke="white" stroke-width="2"/>
<rect x="238.752" y="639" width="59.4876" height="58" stroke="white" stroke-width="2"/>
<rect x="238.752" y="407" width="59.4876" height="58" stroke="white" stroke-width="2"/>
<rect x="238.752" y="871" width="59.4876" height="58" stroke="white" stroke-width="2"/>
<rect x="714.256" y="1" width="59.4876" height="58" stroke="white" stroke-width="2"/>
<rect x="714.256" y="465" width="59.4876" height="58" stroke="white" stroke-width="2"/>
<rect x="714.256" y="233" width="59.4876" height="58" stroke="white" stroke-width="2"/>
<rect x="714.256" y="697" width="59.4876" height="58" stroke="white" stroke-width="2"/>
<rect x="714.256" y="117" width="59.4876" height="58" stroke="white" stroke-width="2"/>
<rect x="714.256" y="581" width="59.4876" height="58" stroke="white" stroke-width="2"/>
<rect x="714.256" y="349" width="59.4876" height="58" stroke="white" stroke-width="2"/>
<rect x="714.256" y="813" width="59.4876" height="58" stroke="white" stroke-width="2"/>
<rect x="714.256" y="58.9998" width="59.4876" height="58" stroke="white" stroke-width="2"/>
<rect x="714.256" y="523" width="59.4876" height="58" stroke="white" stroke-width="2"/>
<rect x="714.256" y="291" width="59.4876" height="58" stroke="white" stroke-width="2"/>
<rect x="714.256" y="755" width="59.4876" height="58" stroke="white" stroke-width="2"/>
<rect x="714.256" y="175" width="59.4876" height="58" stroke="white" stroke-width="2"/>
<rect x="714.256" y="639" width="59.4876" height="58" stroke="white" stroke-width="2"/>
<rect x="714.256" y="407" width="59.4876" height="58" stroke="white" stroke-width="2"/>
<rect x="714.256" y="871" width="59.4876" height="58" stroke="white" stroke-width="2"/>
<rect x="119.876" y="1" width="59.4876" height="58" stroke="white" stroke-width="2"/>
<rect x="119.876" y="465" width="59.4876" height="58" stroke="white" stroke-width="2"/>
<rect x="119.876" y="233" width="59.4876" height="58" stroke="white" stroke-width="2"/>
<rect x="119.876" y="697" width="59.4876" height="58" stroke="white" stroke-width="2"/>
<rect x="119.876" y="117" width="59.4876" height="58" stroke="white" stroke-width="2"/>
<rect x="119.876" y="581" width="59.4876" height="58" stroke="white" stroke-width="2"/>
<rect x="119.876" y="349" width="59.4876" height="58" stroke="white" stroke-width="2"/>
<rect x="119.876" y="813" width="59.4876" height="58" stroke="white" stroke-width="2"/>
<rect x="119.876" y="58.9998" width="59.4876" height="58" stroke="white" stroke-width="2"/>
<rect x="119.876" y="523" width="59.4876" height="58" stroke="white" stroke-width="2"/>
<rect x="119.876" y="291" width="59.4876" height="58" stroke="white" stroke-width="2"/>
<rect x="119.876" y="755" width="59.4876" height="58" stroke="white" stroke-width="2"/>
<rect x="119.876" y="175" width="59.4876" height="58" stroke="white" stroke-width="2"/>
<rect x="119.876" y="639" width="59.4876" height="58" stroke="white" stroke-width="2"/>
<rect x="119.876" y="407" width="59.4876" height="58" stroke="white" stroke-width="2"/>
<rect x="119.876" y="871" width="59.4876" height="58" stroke="white" stroke-width="2"/>
<rect x="595.38" y="1" width="59.4876" height="58" stroke="white" stroke-width="2"/>
<rect x="595.38" y="465" width="59.4876" height="58" stroke="white" stroke-width="2"/>
<rect x="595.38" y="233" width="59.4876" height="58" stroke="white" stroke-width="2"/>
<rect x="595.38" y="697" width="59.4876" height="58" stroke="white" stroke-width="2"/>
<rect x="595.38" y="117" width="59.4876" height="58" stroke="white" stroke-width="2"/>
<rect x="595.38" y="581" width="59.4876" height="58" stroke="white" stroke-width="2"/>
<rect x="595.38" y="349" width="59.4876" height="58" stroke="white" stroke-width="2"/>
<rect x="595.38" y="813" width="59.4876" height="58" stroke="white" stroke-width="2"/>
<rect x="595.38" y="58.9998" width="59.4876" height="58" stroke="white" stroke-width="2"/>
<rect x="595.38" y="523" width="59.4876" height="58" stroke="white" stroke-width="2"/>
<rect x="595.38" y="291" width="59.4876" height="58" stroke="white" stroke-width="2"/>
<rect x="595.38" y="755" width="59.4876" height="58" stroke="white" stroke-width="2"/>
<rect x="595.38" y="175" width="59.4876" height="58" stroke="white" stroke-width="2"/>
<rect x="595.38" y="639" width="59.4876" height="58" stroke="white" stroke-width="2"/>
<rect x="595.38" y="407" width="59.4876" height="58" stroke="white" stroke-width="2"/>
<rect x="595.38" y="871" width="59.4876" height="58" stroke="white" stroke-width="2"/>
<rect x="357.628" y="1" width="59.4876" height="58" stroke="white" stroke-width="2"/>
<rect x="357.628" y="465" width="59.4876" height="58" stroke="white" stroke-width="2"/>
<rect x="357.628" y="233" width="59.4876" height="58" stroke="white" stroke-width="2"/>
<rect x="357.628" y="697" width="59.4876" height="58" stroke="white" stroke-width="2"/>
<rect x="357.628" y="117" width="59.4876" height="58" stroke="white" stroke-width="2"/>
<rect x="357.628" y="581" width="59.4876" height="58" stroke="white" stroke-width="2"/>
<rect x="357.628" y="349" width="59.4876" height="58" stroke="white" stroke-width="2"/>
<rect x="357.628" y="813" width="59.4876" height="58" stroke="white" stroke-width="2"/>
<rect x="357.628" y="58.9998" width="59.4876" height="58" stroke="white" stroke-width="2"/>
<rect x="357.628" y="523" width="59.4876" height="58" stroke="white" stroke-width="2"/>
<rect x="357.628" y="291" width="59.4876" height="58" stroke="white" stroke-width="2"/>
<rect x="357.628" y="755" width="59.4876" height="58" stroke="white" stroke-width="2"/>
<rect x="357.628" y="175" width="59.4876" height="58" stroke="white" stroke-width="2"/>
<rect x="357.628" y="639" width="59.4876" height="58" stroke="white" stroke-width="2"/>
<rect x="357.628" y="407" width="59.4876" height="58" stroke="white" stroke-width="2"/>
<rect x="357.628" y="871" width="59.4876" height="58" stroke="white" stroke-width="2"/>
<rect x="833.13" y="1" width="59.4876" height="58" stroke="white" stroke-width="2"/>
<rect x="833.13" y="465" width="59.4876" height="58" stroke="white" stroke-width="2"/>
<rect x="833.13" y="233" width="59.4876" height="58" stroke="white" stroke-width="2"/>
<rect x="833.13" y="697" width="59.4876" height="58" stroke="white" stroke-width="2"/>
<rect x="833.13" y="117" width="59.4876" height="58" stroke="white" stroke-width="2"/>
<rect x="833.13" y="581" width="59.4876" height="58" stroke="white" stroke-width="2"/>
<rect x="833.13" y="349" width="59.4876" height="58" stroke="white" stroke-width="2"/>
<rect x="833.13" y="813" width="59.4876" height="58" stroke="white" stroke-width="2"/>
<rect x="833.13" y="58.9998" width="59.4876" height="58" stroke="white" stroke-width="2"/>
<rect x="833.13" y="523" width="59.4876" height="58" stroke="white" stroke-width="2"/>
<rect x="833.13" y="291" width="59.4876" height="58" stroke="white" stroke-width="2"/>
<rect x="833.13" y="755" width="59.4876" height="58" stroke="white" stroke-width="2"/>
<rect x="833.13" y="175" width="59.4876" height="58" stroke="white" stroke-width="2"/>
<rect x="833.13" y="639" width="59.4876" height="58" stroke="white" stroke-width="2"/>
<rect x="833.13" y="407" width="59.4876" height="58" stroke="white" stroke-width="2"/>
<rect x="833.13" y="871" width="59.4876" height="58" stroke="white" stroke-width="2"/>
<rect x="60.4382" y="1" width="59.4876" height="58" stroke="white" stroke-width="2"/>
<rect x="60.4385" y="465" width="59.4876" height="58" stroke="white" stroke-width="2"/>
<rect x="60.4385" y="233" width="59.4876" height="58" stroke="white" stroke-width="2"/>
<rect x="60.4385" y="697" width="59.4876" height="58" stroke="white" stroke-width="2"/>
<rect x="60.4385" y="117" width="59.4876" height="58" stroke="white" stroke-width="2"/>
<rect x="60.4385" y="581" width="59.4876" height="58" stroke="white" stroke-width="2"/>
<rect x="60.4385" y="349" width="59.4876" height="58" stroke="white" stroke-width="2"/>
<rect x="60.4385" y="813" width="59.4876" height="58" stroke="white" stroke-width="2"/>
<rect x="60.4385" y="58.9998" width="59.4876" height="58" stroke="white" stroke-width="2"/>
<rect x="60.4385" y="523" width="59.4876" height="58" stroke="white" stroke-width="2"/>
<rect x="60.4385" y="291" width="59.4876" height="58" stroke="white" stroke-width="2"/>
<rect x="60.4385" y="755" width="59.4876" height="58" stroke="white" stroke-width="2"/>
<rect x="60.4385" y="175" width="59.4876" height="58" stroke="white" stroke-width="2"/>
<rect x="60.4385" y="639" width="59.4876" height="58" stroke="white" stroke-width="2"/>
<rect x="60.4385" y="407" width="59.4876" height="58" stroke="white" stroke-width="2"/>
<rect x="60.4385" y="871" width="59.4876" height="58" stroke="white" stroke-width="2"/>
<rect x="535.941" y="1" width="59.4876" height="58" stroke="white" stroke-width="2"/>
<rect x="535.941" y="465" width="59.4876" height="58" stroke="white" stroke-width="2"/>
<rect x="535.941" y="233" width="59.4876" height="58" stroke="white" stroke-width="2"/>
<rect x="535.941" y="697" width="59.4876" height="58" stroke="white" stroke-width="2"/>
<rect x="535.941" y="117" width="59.4876" height="58" stroke="white" stroke-width="2"/>
<rect x="535.941" y="581" width="59.4876" height="58" stroke="white" stroke-width="2"/>
<rect x="535.941" y="349" width="59.4876" height="58" stroke="white" stroke-width="2"/>
<rect x="535.941" y="813" width="59.4876" height="58" stroke="white" stroke-width="2"/>
<rect x="535.941" y="58.9998" width="59.4876" height="58" stroke="white" stroke-width="2"/>
<rect x="535.941" y="523" width="59.4876" height="58" stroke="white" stroke-width="2"/>
<rect x="535.941" y="291" width="59.4876" height="58" stroke="white" stroke-width="2"/>
<rect x="535.941" y="755" width="59.4876" height="58" stroke="white" stroke-width="2"/>
<rect x="535.941" y="175" width="59.4876" height="58" stroke="white" stroke-width="2"/>
<rect x="535.941" y="639" width="59.4876" height="58" stroke="white" stroke-width="2"/>
<rect x="535.941" y="407" width="59.4876" height="58" stroke="white" stroke-width="2"/>
<rect x="535.941" y="871" width="59.4876" height="58" stroke="white" stroke-width="2"/>
<rect x="298.19" y="1" width="59.4876" height="58" stroke="white" stroke-width="2"/>
<rect x="298.19" y="465" width="59.4876" height="58" stroke="white" stroke-width="2"/>
<rect x="298.19" y="233" width="59.4876" height="58" stroke="white" stroke-width="2"/>
<rect x="298.19" y="697" width="59.4876" height="58" stroke="white" stroke-width="2"/>
<rect x="298.19" y="117" width="59.4876" height="58" stroke="white" stroke-width="2"/>
<rect x="298.19" y="581" width="59.4876" height="58" stroke="white" stroke-width="2"/>
<rect x="298.19" y="349" width="59.4876" height="58" stroke="white" stroke-width="2"/>
<rect x="298.19" y="813" width="59.4876" height="58" stroke="white" stroke-width="2"/>
<rect x="298.19" y="58.9998" width="59.4876" height="58" stroke="white" stroke-width="2"/>
<rect x="298.19" y="523" width="59.4876" height="58" stroke="white" stroke-width="2"/>
<rect x="298.19" y="291" width="59.4876" height="58" stroke="white" stroke-width="2"/>
<rect x="298.19" y="755" width="59.4876" height="58" stroke="white" stroke-width="2"/>
<rect x="298.19" y="175" width="59.4876" height="58" stroke="white" stroke-width="2"/>
<rect x="298.19" y="639" width="59.4876" height="58" stroke="white" stroke-width="2"/>
<rect x="298.19" y="407" width="59.4876" height="58" stroke="white" stroke-width="2"/>
<rect x="298.19" y="871" width="59.4876" height="58" stroke="white" stroke-width="2"/>
<rect x="773.693" y="1" width="59.4876" height="58" stroke="white" stroke-width="2"/>
<rect x="773.693" y="465" width="59.4876" height="58" stroke="white" stroke-width="2"/>
<rect x="773.693" y="233" width="59.4876" height="58" stroke="white" stroke-width="2"/>
<rect x="773.693" y="697" width="59.4876" height="58" stroke="white" stroke-width="2"/>
<rect x="773.693" y="117" width="59.4876" height="58" stroke="white" stroke-width="2"/>
<rect x="773.693" y="581" width="59.4876" height="58" stroke="white" stroke-width="2"/>
<rect x="773.693" y="349" width="59.4876" height="58" stroke="white" stroke-width="2"/>
<rect x="773.693" y="813" width="59.4876" height="58" stroke="white" stroke-width="2"/>
<rect x="773.693" y="58.9998" width="59.4876" height="58" stroke="white" stroke-width="2"/>
<rect x="773.693" y="523" width="59.4876" height="58" stroke="white" stroke-width="2"/>
<rect x="773.693" y="291" width="59.4876" height="58" stroke="white" stroke-width="2"/>
<rect x="773.693" y="755" width="59.4876" height="58" stroke="white" stroke-width="2"/>
<rect x="773.693" y="175" width="59.4876" height="58" stroke="white" stroke-width="2"/>
<rect x="773.693" y="639" width="59.4876" height="58" stroke="white" stroke-width="2"/>
<rect x="773.693" y="407" width="59.4876" height="58" stroke="white" stroke-width="2"/>
<rect x="773.693" y="871" width="59.4876" height="58" stroke="white" stroke-width="2"/>
<rect x="179.313" y="1" width="59.4876" height="58" stroke="white" stroke-width="2"/>
<rect x="179.313" y="465" width="59.4876" height="58" stroke="white" stroke-width="2"/>
<rect x="179.313" y="233" width="59.4876" height="58" stroke="white" stroke-width="2"/>
<rect x="179.313" y="697" width="59.4876" height="58" stroke="white" stroke-width="2"/>
<rect x="179.313" y="117" width="59.4876" height="58" stroke="white" stroke-width="2"/>
<rect x="179.313" y="581" width="59.4876" height="58" stroke="white" stroke-width="2"/>
<rect x="179.313" y="349" width="59.4876" height="58" stroke="white" stroke-width="2"/>
<rect x="179.313" y="813" width="59.4876" height="58" stroke="white" stroke-width="2"/>
<rect x="179.313" y="58.9998" width="59.4876" height="58" stroke="white" stroke-width="2"/>
<rect x="179.313" y="523" width="59.4876" height="58" stroke="white" stroke-width="2"/>
<rect x="179.313" y="291" width="59.4876" height="58" stroke="white" stroke-width="2"/>
<rect x="179.313" y="755" width="59.4876" height="58" stroke="white" stroke-width="2"/>
<rect x="179.313" y="175" width="59.4876" height="58" stroke="white" stroke-width="2"/>
<rect x="179.313" y="639" width="59.4876" height="58" stroke="white" stroke-width="2"/>
<rect x="179.313" y="407" width="59.4876" height="58" stroke="white" stroke-width="2"/>
<rect x="179.313" y="871" width="59.4876" height="58" stroke="white" stroke-width="2"/>
<rect x="654.814" y="1" width="59.4876" height="58" stroke="white" stroke-width="2"/>
<rect x="654.814" y="465" width="59.4876" height="58" stroke="white" stroke-width="2"/>
<rect x="654.814" y="233" width="59.4876" height="58" stroke="white" stroke-width="2"/>
<rect x="654.814" y="697" width="59.4876" height="58" stroke="white" stroke-width="2"/>
<rect x="654.814" y="117" width="59.4876" height="58" stroke="white" stroke-width="2"/>
<rect x="654.814" y="581" width="59.4876" height="58" stroke="white" stroke-width="2"/>
<rect x="654.814" y="349" width="59.4876" height="58" stroke="white" stroke-width="2"/>
<rect x="654.814" y="813" width="59.4876" height="58" stroke="white" stroke-width="2"/>
<rect x="654.814" y="58.9998" width="59.4876" height="58" stroke="white" stroke-width="2"/>
<rect x="654.814" y="523" width="59.4876" height="58" stroke="white" stroke-width="2"/>
<rect x="654.814" y="291" width="59.4876" height="58" stroke="white" stroke-width="2"/>
<rect x="654.814" y="755" width="59.4876" height="58" stroke="white" stroke-width="2"/>
<rect x="654.814" y="175" width="59.4876" height="58" stroke="white" stroke-width="2"/>
<rect x="654.814" y="639" width="59.4876" height="58" stroke="white" stroke-width="2"/>
<rect x="654.814" y="407" width="59.4876" height="58" stroke="white" stroke-width="2"/>
<rect x="654.814" y="871" width="59.4876" height="58" stroke="white" stroke-width="2"/>
<rect x="417.066" y="1" width="59.4876" height="58" stroke="white" stroke-width="2"/>
<rect x="417.066" y="465" width="59.4876" height="58" stroke="white" stroke-width="2"/>
<rect x="417.066" y="233" width="59.4876" height="58" stroke="white" stroke-width="2"/>
<rect x="417.066" y="697" width="59.4876" height="58" stroke="white" stroke-width="2"/>
<rect x="417.066" y="117" width="59.4876" height="58" stroke="white" stroke-width="2"/>
<rect x="417.066" y="581" width="59.4876" height="58" stroke="white" stroke-width="2"/>
<rect x="417.066" y="349" width="59.4876" height="58" stroke="white" stroke-width="2"/>
<rect x="417.066" y="813" width="59.4876" height="58" stroke="white" stroke-width="2"/>
<rect x="417.066" y="58.9998" width="59.4876" height="58" stroke="white" stroke-width="2"/>
<rect x="417.066" y="523" width="59.4876" height="58" stroke="white" stroke-width="2"/>
<rect x="417.066" y="291" width="59.4876" height="58" stroke="white" stroke-width="2"/>
<rect x="417.066" y="755" width="59.4876" height="58" stroke="white" stroke-width="2"/>
<rect x="417.066" y="175" width="59.4876" height="58" stroke="white" stroke-width="2"/>
<rect x="417.066" y="639" width="59.4876" height="58" stroke="white" stroke-width="2"/>
<rect x="417.066" y="407" width="59.4876" height="58" stroke="white" stroke-width="2"/>
<rect x="417.066" y="871" width="59.4876" height="58" stroke="white" stroke-width="2"/>
<rect x="892.569" y="1" width="59.4876" height="58" stroke="white" stroke-width="2"/>
<rect x="892.569" y="465" width="59.4876" height="58" stroke="white" stroke-width="2"/>
<rect x="892.569" y="233" width="59.4876" height="58" stroke="white" stroke-width="2"/>
<rect x="892.569" y="697" width="59.4876" height="58" stroke="white" stroke-width="2"/>
<rect x="892.569" y="117" width="59.4876" height="58" stroke="white" stroke-width="2"/>
<rect x="892.569" y="581" width="59.4876" height="58" stroke="white" stroke-width="2"/>
<rect x="892.569" y="349" width="59.4876" height="58" stroke="white" stroke-width="2"/>
<rect x="892.569" y="813" width="59.4876" height="58" stroke="white" stroke-width="2"/>
<rect x="892.569" y="58.9998" width="59.4876" height="58" stroke="white" stroke-width="2"/>
<rect x="892.569" y="523" width="59.4876" height="58" stroke="white" stroke-width="2"/>
<rect x="892.569" y="291" width="59.4876" height="58" stroke="white" stroke-width="2"/>
<rect x="892.569" y="755" width="59.4876" height="58" stroke="white" stroke-width="2"/>
<rect x="892.569" y="175" width="59.4876" height="58" stroke="white" stroke-width="2"/>
<rect x="892.569" y="639" width="59.4876" height="58" stroke="white" stroke-width="2"/>
<rect x="892.569" y="407" width="59.4876" height="58" stroke="white" stroke-width="2"/>
<rect x="892.569" y="871" width="59.4876" height="58" stroke="white" stroke-width="2"/>
<rect x="952.009" y="1" width="59.4876" height="58" stroke="white" stroke-width="2"/>
<rect x="952.009" y="465" width="59.4876" height="58" stroke="white" stroke-width="2"/>
<rect x="952.009" y="233" width="59.4876" height="58" stroke="white" stroke-width="2"/>
<rect x="952.009" y="697" width="59.4876" height="58" stroke="white" stroke-width="2"/>
<rect x="952.009" y="117" width="59.4876" height="58" stroke="white" stroke-width="2"/>
<rect x="952.009" y="581" width="59.4876" height="58" stroke="white" stroke-width="2"/>
<rect x="952.009" y="349" width="59.4876" height="58" stroke="white" stroke-width="2"/>
<rect x="952.009" y="813" width="59.4876" height="58" stroke="white" stroke-width="2"/>
<rect x="952.009" y="58.9998" width="59.4876" height="58" stroke="white" stroke-width="2"/>
<rect x="952.009" y="523" width="59.4876" height="58" stroke="white" stroke-width="2"/>
<rect x="952.009" y="291" width="59.4876" height="58" stroke="white" stroke-width="2"/>
<rect x="952.009" y="755" width="59.4876" height="58" stroke="white" stroke-width="2"/>
<rect x="952.009" y="175" width="59.4876" height="58" stroke="white" stroke-width="2"/>
<rect x="952.009" y="639" width="59.4876" height="58" stroke="white" stroke-width="2"/>
<rect x="952.009" y="407" width="59.4876" height="58" stroke="white" stroke-width="2"/>
<rect x="952.009" y="871" width="59.4876" height="58" stroke="white" stroke-width="2"/>
<rect x="1427.51" y="1" width="59.4876" height="58" stroke="white" stroke-width="2"/>
<rect x="1427.51" y="465" width="59.4876" height="58" stroke="white" stroke-width="2"/>
<rect x="1427.51" y="233" width="59.4876" height="58" stroke="white" stroke-width="2"/>
<rect x="1427.51" y="697" width="59.4876" height="58" stroke="white" stroke-width="2"/>
<rect x="1427.51" y="117" width="59.4876" height="58" stroke="white" stroke-width="2"/>
<rect x="1427.51" y="581" width="59.4876" height="58" stroke="white" stroke-width="2"/>
<rect x="1427.51" y="349" width="59.4876" height="58" stroke="white" stroke-width="2"/>
<rect x="1427.51" y="813" width="59.4876" height="58" stroke="white" stroke-width="2"/>
<rect x="1427.51" y="58.9998" width="59.4876" height="58" stroke="white" stroke-width="2"/>
<rect x="1427.51" y="523" width="59.4876" height="58" stroke="white" stroke-width="2"/>
<rect x="1427.51" y="291" width="59.4876" height="58" stroke="white" stroke-width="2"/>
<rect x="1427.51" y="755" width="59.4876" height="58" stroke="white" stroke-width="2"/>
<rect x="1427.51" y="175" width="59.4876" height="58" stroke="white" stroke-width="2"/>
<rect x="1427.51" y="639" width="59.4876" height="58" stroke="white" stroke-width="2"/>
<rect x="1427.51" y="407" width="59.4876" height="58" stroke="white" stroke-width="2"/>
<rect x="1427.51" y="871" width="59.4876" height="58" stroke="white" stroke-width="2"/>
<rect x="1189.76" y="1" width="59.4876" height="58" stroke="white" stroke-width="2"/>
<rect x="1189.76" y="465" width="59.4876" height="58" stroke="white" stroke-width="2"/>
<rect x="1189.76" y="233" width="59.4876" height="58" stroke="white" stroke-width="2"/>
<rect x="1189.76" y="697" width="59.4876" height="58" stroke="white" stroke-width="2"/>
<rect x="1189.76" y="117" width="59.4876" height="58" stroke="white" stroke-width="2"/>
<rect x="1189.76" y="581" width="59.4876" height="58" stroke="white" stroke-width="2"/>
<rect x="1189.76" y="349" width="59.4876" height="58" stroke="white" stroke-width="2"/>
<rect x="1189.76" y="813" width="59.4876" height="58" stroke="white" stroke-width="2"/>
<rect x="1189.76" y="58.9998" width="59.4876" height="58" stroke="white" stroke-width="2"/>
<rect x="1189.76" y="523" width="59.4876" height="58" stroke="white" stroke-width="2"/>
<rect x="1189.76" y="291" width="59.4876" height="58" stroke="white" stroke-width="2"/>
<rect x="1189.76" y="755" width="59.4876" height="58" stroke="white" stroke-width="2"/>
<rect x="1189.76" y="175" width="59.4876" height="58" stroke="white" stroke-width="2"/>
<rect x="1189.76" y="639" width="59.4876" height="58" stroke="white" stroke-width="2"/>
<rect x="1189.76" y="407" width="59.4876" height="58" stroke="white" stroke-width="2"/>
<rect x="1189.76" y="871" width="59.4876" height="58" stroke="white" stroke-width="2"/>
<rect x="1070.88" y="1" width="59.4876" height="58" stroke="white" stroke-width="2"/>
<rect x="1070.88" y="465" width="59.4876" height="58" stroke="white" stroke-width="2"/>
<rect x="1070.88" y="233" width="59.4876" height="58" stroke="white" stroke-width="2"/>
<rect x="1070.88" y="697" width="59.4876" height="58" stroke="white" stroke-width="2"/>
<rect x="1070.88" y="117" width="59.4876" height="58" stroke="white" stroke-width="2"/>
<rect x="1070.88" y="581" width="59.4876" height="58" stroke="white" stroke-width="2"/>
<rect x="1070.88" y="349" width="59.4876" height="58" stroke="white" stroke-width="2"/>
<rect x="1070.88" y="813" width="59.4876" height="58" stroke="white" stroke-width="2"/>
<rect x="1070.88" y="58.9998" width="59.4876" height="58" stroke="white" stroke-width="2"/>
<rect x="1070.88" y="523" width="59.4876" height="58" stroke="white" stroke-width="2"/>
<rect x="1070.88" y="291" width="59.4876" height="58" stroke="white" stroke-width="2"/>
<rect x="1070.88" y="755" width="59.4876" height="58" stroke="white" stroke-width="2"/>
<rect x="1070.88" y="175" width="59.4876" height="58" stroke="white" stroke-width="2"/>
<rect x="1070.88" y="639" width="59.4876" height="58" stroke="white" stroke-width="2"/>
<rect x="1070.88" y="407" width="59.4876" height="58" stroke="white" stroke-width="2"/>
<rect x="1070.88" y="871" width="59.4876" height="58" stroke="white" stroke-width="2"/>
<rect x="1308.63" y="1" width="59.4876" height="58" stroke="white" stroke-width="2"/>
<rect x="1308.63" y="465" width="59.4876" height="58" stroke="white" stroke-width="2"/>
<rect x="1308.63" y="233" width="59.4876" height="58" stroke="white" stroke-width="2"/>
<rect x="1308.63" y="697" width="59.4876" height="58" stroke="white" stroke-width="2"/>
<rect x="1308.63" y="117" width="59.4876" height="58" stroke="white" stroke-width="2"/>
<rect x="1308.63" y="581" width="59.4876" height="58" stroke="white" stroke-width="2"/>
<rect x="1308.63" y="349" width="59.4876" height="58" stroke="white" stroke-width="2"/>
<rect x="1308.63" y="813" width="59.4876" height="58" stroke="white" stroke-width="2"/>
<rect x="1308.63" y="59" width="59.4876" height="58" stroke="white" stroke-width="2"/>
<rect x="1308.63" y="523" width="59.4876" height="58" stroke="white" stroke-width="2"/>
<rect x="1308.63" y="291" width="59.4876" height="58" stroke="white" stroke-width="2"/>
<rect x="1308.63" y="755" width="59.4876" height="58" stroke="white" stroke-width="2"/>
<rect x="1308.63" y="175" width="59.4876" height="58" stroke="white" stroke-width="2"/>
<rect x="1308.63" y="639" width="59.4876" height="58" stroke="white" stroke-width="2"/>
<rect x="1308.63" y="407" width="59.4876" height="58" stroke="white" stroke-width="2"/>
<rect x="1308.63" y="871" width="59.4876" height="58" stroke="white" stroke-width="2"/>
<rect x="1011.44" y="1" width="59.4876" height="58" stroke="white" stroke-width="2"/>
<rect x="1011.44" y="465" width="59.4876" height="58" stroke="white" stroke-width="2"/>
<rect x="1011.44" y="233" width="59.4876" height="58" stroke="white" stroke-width="2"/>
<rect x="1011.44" y="697" width="59.4876" height="58" stroke="white" stroke-width="2"/>
<rect x="1011.44" y="117" width="59.4876" height="58" stroke="white" stroke-width="2"/>
<rect x="1011.44" y="581" width="59.4876" height="58" stroke="white" stroke-width="2"/>
<rect x="1011.44" y="349" width="59.4876" height="58" stroke="white" stroke-width="2"/>
<rect x="1011.44" y="813" width="59.4876" height="58" stroke="white" stroke-width="2"/>
<rect x="1011.44" y="58.9998" width="59.4876" height="58" stroke="white" stroke-width="2"/>
<rect x="1011.44" y="523" width="59.4876" height="58" stroke="white" stroke-width="2"/>
<rect x="1011.44" y="291" width="59.4876" height="58" stroke="white" stroke-width="2"/>
<rect x="1011.44" y="755" width="59.4876" height="58" stroke="white" stroke-width="2"/>
<rect x="1011.44" y="175" width="59.4876" height="58" stroke="white" stroke-width="2"/>
<rect x="1011.44" y="639" width="59.4876" height="58" stroke="white" stroke-width="2"/>
<rect x="1011.44" y="407" width="59.4876" height="58" stroke="white" stroke-width="2"/>
<rect x="1011.44" y="871" width="59.4876" height="58" stroke="white" stroke-width="2"/>
<rect x="1249.2" y="1" width="59.4876" height="58" stroke="white" stroke-width="2"/>
<rect x="1249.2" y="465" width="59.4876" height="58" stroke="white" stroke-width="2"/>
<rect x="1249.2" y="233" width="59.4876" height="58" stroke="white" stroke-width="2"/>
<rect x="1249.2" y="697" width="59.4876" height="58" stroke="white" stroke-width="2"/>
<rect x="1249.2" y="117" width="59.4876" height="58" stroke="white" stroke-width="2"/>
<rect x="1249.2" y="581" width="59.4876" height="58" stroke="white" stroke-width="2"/>
<rect x="1249.2" y="349" width="59.4876" height="58" stroke="white" stroke-width="2"/>
<rect x="1249.2" y="813" width="59.4876" height="58" stroke="white" stroke-width="2"/>
<rect x="1249.2" y="58.9998" width="59.4876" height="58" stroke="white" stroke-width="2"/>
<rect x="1249.2" y="523" width="59.4876" height="58" stroke="white" stroke-width="2"/>
<rect x="1249.2" y="291" width="59.4876" height="58" stroke="white" stroke-width="2"/>
<rect x="1249.2" y="755" width="59.4876" height="58" stroke="white" stroke-width="2"/>
<rect x="1249.2" y="175" width="59.4876" height="58" stroke="white" stroke-width="2"/>
<rect x="1249.2" y="639" width="59.4876" height="58" stroke="white" stroke-width="2"/>
<rect x="1249.2" y="407" width="59.4876" height="58" stroke="white" stroke-width="2"/>
<rect x="1249.2" y="871" width="59.4876" height="58" stroke="white" stroke-width="2"/>
<rect x="1130.32" y="1" width="59.4876" height="58" stroke="white" stroke-width="2"/>
<rect x="1130.32" y="465" width="59.4876" height="58" stroke="white" stroke-width="2"/>
<rect x="1130.32" y="233" width="59.4876" height="58" stroke="white" stroke-width="2"/>
<rect x="1130.32" y="697" width="59.4876" height="58" stroke="white" stroke-width="2"/>
<rect x="1130.32" y="117" width="59.4876" height="58" stroke="white" stroke-width="2"/>
<rect x="1130.32" y="581" width="59.4876" height="58" stroke="white" stroke-width="2"/>
<rect x="1130.32" y="349" width="59.4876" height="58" stroke="white" stroke-width="2"/>
<rect x="1130.32" y="813" width="59.4876" height="58" stroke="white" stroke-width="2"/>
<rect x="1130.32" y="58.9998" width="59.4876" height="58" stroke="white" stroke-width="2"/>
<rect x="1130.32" y="523" width="59.4876" height="58" stroke="white" stroke-width="2"/>
<rect x="1130.32" y="291" width="59.4876" height="58" stroke="white" stroke-width="2"/>
<rect x="1130.32" y="755" width="59.4876" height="58" stroke="white" stroke-width="2"/>
<rect x="1130.32" y="175" width="59.4876" height="58" stroke="white" stroke-width="2"/>
<rect x="1130.32" y="639" width="59.4876" height="58" stroke="white" stroke-width="2"/>
<rect x="1130.32" y="407" width="59.4876" height="58" stroke="white" stroke-width="2"/>
<rect x="1130.32" y="871" width="59.4876" height="58" stroke="white" stroke-width="2"/>
<rect x="1368.07" y="1" width="59.4876" height="58" stroke="white" stroke-width="2"/>
<rect x="1368.07" y="465" width="59.4876" height="58" stroke="white" stroke-width="2"/>
<rect x="1368.07" y="233" width="59.4876" height="58" stroke="white" stroke-width="2"/>
<rect x="1368.07" y="697" width="59.4876" height="58" stroke="white" stroke-width="2"/>
<rect x="1368.07" y="117" width="59.4876" height="58" stroke="white" stroke-width="2"/>
<rect x="1368.07" y="581" width="59.4876" height="58" stroke="white" stroke-width="2"/>
<rect x="1368.07" y="349" width="59.4876" height="58" stroke="white" stroke-width="2"/>
<rect x="1368.07" y="813" width="59.4876" height="58" stroke="white" stroke-width="2"/>
<rect x="1368.07" y="58.9998" width="59.4876" height="58" stroke="white" stroke-width="2"/>
<rect x="1368.07" y="523" width="59.4876" height="58" stroke="white" stroke-width="2"/>
<rect x="1368.07" y="291" width="59.4876" height="58" stroke="white" stroke-width="2"/>
<rect x="1368.07" y="755" width="59.4876" height="58" stroke="white" stroke-width="2"/>
<rect x="1368.07" y="175" width="59.4876" height="58" stroke="white" stroke-width="2"/>
<rect x="1368.07" y="639" width="59.4876" height="58" stroke="white" stroke-width="2"/>
<rect x="1368.07" y="407" width="59.4876" height="58" stroke="white" stroke-width="2"/>
<rect x="1368.07" y="871" width="59.4876" height="58" stroke="white" stroke-width="2"/>
<mask id="mask0_732_1269" style="mask-type:alpha" maskUnits="userSpaceOnUse" x="536" y="29" width="812" height="898">
<rect x="536.51" y="29.6113" width="810.693" height="896.654" fill="#D9D9D9"/>
</mask>
<g mask="url(#mask0_732_1269)">
</g>
</svg>
