<svg width="318" height="94" viewBox="0 0 318 94" fill="none" xmlns="http://www.w3.org/2000/svg">
<g clip-path="url(#clip0_838_1665)">
<path opacity="0.7" d="M2.27779 93.2768C1.99312 90.5901 1.58645 88.1963 1.46444 85.7852C0.935767 75.3487 0.447757 64.9121 0.000414044 54.4584C-0.0402535 53.6834 0.122417 52.9084 0.325754 52.1334C0.773097 50.704 2.6438 49.929 5.12452 49.8084C13.624 49.4295 22.1235 49.0506 30.7044 49.0334C36.1538 49.0162 41.2373 50.1528 46.6867 49.8945C53.9255 49.5501 61.1643 49.8601 68.3218 50.6006C68.8912 50.6695 69.5419 50.6523 70.1112 50.6523C79.3834 50.6695 88.7776 50.2217 97.9278 50.8245C108.664 51.5478 119.034 49.9634 129.648 50.4801C134.895 50.7384 140.222 49.8773 145.468 49.2917C151.65 48.6201 158.156 48.5512 164.541 48.5512C168.364 48.5512 172.268 49.154 176.05 49.6017C183.045 50.4456 189.958 49.7912 196.831 49.2745C200.695 48.9818 204.436 48.3962 208.299 48.1034C211.309 47.8795 214.237 47.8968 217.328 48.4134C219.849 48.844 222.899 48.9473 225.42 48.6373C230.138 48.0518 234.774 48.5168 239.166 48.9301C243.07 49.309 246.934 49.1884 250.797 49.3951C256.246 49.7051 261.777 49.8084 267.267 49.9462C273.896 50.1012 280.566 50.1701 287.682 50.2906C288.74 64.4988 290.041 78.6725 290 93.139C283.128 93.0012 276.661 92.8634 270.195 92.7429C269.219 92.7257 268.203 92.7946 267.186 92.8807C266.454 92.9323 265.763 93.1218 265.071 93.1218C257.141 93.139 249.13 93.6901 241.403 91.9507C237.58 91.0896 233.757 91.8473 229.975 92.4673C228.47 92.7084 226.925 92.8462 225.339 92.8807C221.679 92.9496 217.978 93.0012 214.318 92.9151C211.471 92.8462 208.584 92.6223 205.737 92.3812C203.013 92.1573 200.329 91.8129 197.645 91.5374C197.075 91.4857 196.465 91.4512 195.936 91.5201C192.683 91.9507 189.43 92.4329 186.176 92.8634C185.282 92.984 184.346 93.0357 183.452 93.0184C177.921 92.8979 172.431 92.7084 166.9 92.6568C160.108 92.5879 153.276 92.6223 146.485 92.6568C145.346 92.6568 144.248 92.9323 143.109 93.0529C137.538 93.6384 131.926 93.5179 126.273 93.2251C123.955 93.1046 121.556 92.8634 119.319 93.0529C112.69 93.6212 106.265 93.3112 99.9205 92.2262C97.5211 91.8129 95.6097 91.9335 93.373 92.7084C89.2249 94.1207 84.4262 93.8107 79.7901 93.5695C72.8359 93.2079 65.9224 92.7084 58.9683 92.2779C58.8056 92.2607 58.643 92.2262 58.521 92.2607C54.4135 93.0012 50.1028 93.0012 45.8327 93.1562C42.254 93.294 38.7159 94.0173 35.1371 93.9829C24.4416 93.8968 13.7054 93.5523 2.27779 93.2768Z" fill="#DCAC68"/>
</g>
<path d="M48.732 66.328V69.016H70.824V66.328H48.732ZM46.856 59.132V61.736H69.452V59.132H46.856ZM53.688 71.2V73.804H69.2V71.2H53.688ZM53.212 75.596V78.172H68.36V75.596H53.212ZM50.804 80.3V83.016H70.6V80.3H50.804ZM56.236 57.256V61.176H59.596V57.256H56.236ZM59.092 69.352V81.308H62.396V69.352H59.092ZM47.052 66.328V71.004C47.052 74.14 46.828 78.592 44.56 81.756C45.26 82.148 46.66 83.268 47.192 83.884C49.824 80.328 50.328 74.756 50.328 71.032V66.328H47.052ZM53.632 69.044C52.96 71.004 51.756 72.936 50.3 74.196C51.028 74.588 52.232 75.456 52.792 75.96C54.304 74.476 55.732 72.124 56.572 69.744L53.632 69.044ZM50.72 62.856C55.368 63.836 61.164 65.572 64.412 66.86L66.456 65.124C63.04 63.92 57.3 62.24 52.82 61.288L50.72 62.856ZM63.264 60.896C60.492 62.716 54.444 64.2 49.684 64.9C50.048 65.404 50.636 66.356 50.86 66.916C55.9 66.076 61.92 64.424 65.504 62.1L63.264 60.896ZM81.044 61.54H90.9V65.32H81.044V61.54ZM77.796 58.348V68.512H94.344V58.348H77.796ZM73.96 70.864V83.52H77.124V74.056H81.296V83.352H84.656V70.864H73.96ZM87.036 70.864V83.52H90.256V74.056H94.736V83.38H98.124V70.864H87.036ZM75.36 78.9V82.12H82.696V78.9H75.36ZM88.576 78.9V82.12H96.416V78.9H88.576ZM110.724 60.42V63.444H125.872V60.42H110.724ZM109.436 71.172V74.224H126.964V71.172H109.436ZM109.156 65.908V68.96H127.188V65.908H109.156ZM116.464 57.34V67.476H119.824V57.34H116.464ZM120.3 68.428V79.936C120.3 80.3 120.16 80.412 119.74 80.412C119.292 80.44 117.752 80.44 116.38 80.356C116.8 81.252 117.276 82.596 117.416 83.52C119.544 83.52 121.084 83.492 122.232 82.988C123.352 82.484 123.66 81.644 123.66 79.992V68.428H120.3ZM110.976 75.82C112.208 77.332 113.58 79.432 114.084 80.776L117.024 79.18C116.436 77.808 114.98 75.82 113.748 74.392L110.976 75.82ZM107.252 63.416C105.656 66.132 102.94 68.904 100.504 70.64C101.008 71.452 101.848 73.356 102.072 74.112C104.956 71.788 108.176 68.092 110.164 64.648L107.252 63.416ZM106.58 57.256C105.404 59.132 102.94 61.428 100.812 62.772C101.288 63.472 102.1 64.844 102.436 65.6C105.04 63.892 107.868 61.148 109.688 58.544L106.58 57.256ZM104.62 69.66V83.52H107.84V66.636L107.7 66.552L104.62 69.66ZM137.912 63.444V66.328H143.624V63.444H137.912ZM142.7 63.444V64.116C142.588 75.512 142.448 79.236 142 79.992C141.804 80.384 141.608 80.496 141.3 80.496C140.908 80.496 140.348 80.496 139.648 80.412C140.04 81.168 140.32 82.344 140.376 83.156C141.272 83.156 142.112 83.156 142.728 83.016C143.456 82.904 143.932 82.624 144.408 81.812C145.08 80.692 145.22 76.632 145.36 64.732C145.36 64.396 145.388 63.444 145.388 63.444H142.7ZM139.2 57.228C139.284 67.588 139.116 76.408 135.644 81.644C136.232 82.064 137.408 83.1 137.8 83.548C141.468 77.5 141.748 68.568 141.776 57.228H139.2ZM131.92 57.228V61.932H135V57.228H131.92ZM129.232 60.728V63.472H137.548V60.728H129.232ZM128.924 68.456V71.2H137.8V68.456H128.924ZM129.82 64.116C130.24 65.516 130.548 67.392 130.492 68.596L132.956 67.896C132.9 66.692 132.592 64.844 132.088 63.472L129.82 64.116ZM134.748 63.416C134.608 64.76 134.188 66.748 133.852 68.036L136.008 68.568C136.428 67.42 136.904 65.6 137.436 63.948L134.748 63.416ZM128.7 74.392L129.26 77.304C131.724 76.856 134.888 76.324 137.884 75.764L137.688 73.076C134.384 73.58 130.996 74.112 128.7 74.392ZM148.832 57.228V61.932H151.94V57.228H148.832ZM148.832 69.492V83.548H151.94V69.492H148.832ZM145.836 60.7V63.444H154.74V60.7H145.836ZM145.724 68.428V71.172H155.132V68.428H145.724ZM145.948 74.14V76.912H154.796V74.14H145.948ZM146.452 64.088C146.928 65.516 147.236 67.392 147.236 68.596L149.672 67.896C149.644 66.692 149.28 64.816 148.748 63.444L146.452 64.088ZM151.744 63.304C151.576 64.676 151.128 66.664 150.792 67.952L153.004 68.512C153.452 67.336 153.956 65.544 154.488 63.892L151.744 63.304ZM131.92 69.296V74.364C131.92 76.604 131.612 79.656 128.868 81.364C129.568 81.868 130.492 82.904 130.912 83.548C134.188 81.196 135 77.472 135 74.392V69.296H131.92ZM169.3 72.684V74.84H178.876V72.684H169.3ZM165.632 58.684V61.092H182.264V58.684H165.632ZM166.388 62.156V64.396H181.508V62.156H166.388ZM164.736 65.544V67.952H183.16V65.544H164.736ZM169.3 76.156V78.396H178.904V76.156H169.3ZM167.144 68.988V83.492H170.252V71.452H179.128V68.988H167.144ZM177.896 68.988V80.132C177.896 80.468 177.756 80.58 177.392 80.58C177.028 80.608 175.684 80.608 174.536 80.552C174.928 81.336 175.348 82.568 175.46 83.408C177.392 83.408 178.792 83.38 179.8 82.932C180.836 82.484 181.088 81.672 181.088 80.188V68.988H177.896ZM172.1 57.228V66.888H175.432V57.228H172.1ZM158.212 59.832C159.976 60.616 162.188 61.904 163.196 62.884L165.156 60.14C164.008 59.188 161.768 58.04 160.032 57.368L158.212 59.832ZM156.756 67.448C158.548 68.204 160.788 69.436 161.852 70.388L163.784 67.588C162.636 66.664 160.312 65.544 158.576 64.928L156.756 67.448ZM157.568 81.028L160.508 83.156C162.076 80.384 163.756 77.136 165.156 74.168L162.58 72.068C161.012 75.344 158.996 78.9 157.568 81.028ZM196.124 66.58V83.52H199.624V66.58H196.124ZM191.42 71.536H204.664V73.048H191.42V71.536ZM191.42 67.644H204.664V69.128H191.42V67.644ZM188.116 65.068V75.624H208.108V65.068H188.116ZM185.484 77.08V79.964H210.572V77.08H185.484ZM190.104 60.336H194.052V61.96H190.104V60.336ZM187.108 58.32V63.948H197.188V58.32H187.108ZM201.836 60.336H205.868V61.96H201.836V60.336ZM198.868 58.32V63.948H209.004V58.32H198.868Z" fill="white"/>
<path d="M55.368 16.152C58.2693 16.152 60.4347 16.7813 61.864 18.04C63.3147 19.2987 64.04 21.0907 64.04 23.416C64.04 24.4613 63.8907 25.464 63.592 26.424C63.2933 27.3627 62.8027 28.216 62.12 28.984C61.4587 29.7307 60.5733 30.328 59.464 30.776C58.3547 31.2027 56.9893 31.416 55.368 31.416H53.64V39H47.464V16.152H55.368ZM55.24 21.144H53.64V26.392H54.856C55.3893 26.392 55.88 26.3067 56.328 26.136C56.7973 25.944 57.1707 25.6453 57.448 25.24C57.7253 24.8133 57.864 24.2587 57.864 23.576C57.864 22.8507 57.6507 22.264 57.224 21.816C56.7973 21.368 56.136 21.144 55.24 21.144ZM78.0188 20.984C78.3601 20.984 78.7121 21.0053 79.0748 21.048C79.4374 21.0907 79.7041 21.1333 79.8748 21.176L79.3308 26.936C79.1174 26.8933 78.8508 26.8507 78.5308 26.808C78.2321 26.7653 77.8054 26.744 77.2508 26.744C76.8668 26.744 76.4508 26.7867 76.0028 26.872C75.5761 26.936 75.1601 27.0853 74.7548 27.32C74.3708 27.5547 74.0508 27.9067 73.7948 28.376C73.5601 28.8453 73.4427 29.4853 73.4427 30.296V39H67.3307V21.304H71.8748L72.8348 24.12H73.1228C73.4428 23.544 73.8588 23.0213 74.3708 22.552C74.8828 22.0613 75.4481 21.6773 76.0668 21.4C76.7068 21.1227 77.3574 20.984 78.0188 20.984ZM98.6018 30.104C98.6018 31.576 98.3991 32.888 97.9938 34.04C97.5884 35.192 97.0018 36.1627 96.2338 36.952C95.4658 37.72 94.5378 38.3067 93.4498 38.712C92.3618 39.1173 91.1244 39.32 89.7378 39.32C88.4578 39.32 87.2738 39.1173 86.1858 38.712C85.1191 38.3067 84.1911 37.72 83.4018 36.952C82.6338 36.1627 82.0258 35.192 81.5778 34.04C81.1511 32.888 80.9378 31.576 80.9378 30.104C80.9378 28.1413 81.2898 26.488 81.9938 25.144C82.7191 23.7787 83.7431 22.744 85.0658 22.04C86.3884 21.336 87.9778 20.984 89.8338 20.984C91.5404 20.984 93.0444 21.336 94.3458 22.04C95.6684 22.744 96.7031 23.7787 97.4498 25.144C98.2178 26.488 98.6018 28.1413 98.6018 30.104ZM87.1458 30.104C87.1458 31.1067 87.2311 31.96 87.4018 32.664C87.5724 33.368 87.8498 33.9013 88.2338 34.264C88.6391 34.6053 89.1618 34.776 89.8018 34.776C90.4418 34.776 90.9431 34.6053 91.3058 34.264C91.6898 33.9013 91.9671 33.368 92.1378 32.664C92.3084 31.96 92.3938 31.1067 92.3938 30.104C92.3938 29.1013 92.3084 28.2587 92.1378 27.576C91.9671 26.8933 91.6898 26.3813 91.3058 26.04C90.9218 25.6987 90.4098 25.528 89.7698 25.528C88.8524 25.528 88.1804 25.912 87.7538 26.68C87.3484 27.448 87.1458 28.5893 87.1458 30.104ZM107.585 39.32C105.771 39.32 104.267 38.5413 103.073 36.984C101.899 35.4267 101.313 33.1547 101.313 30.168C101.313 27.1387 101.91 24.856 103.105 23.32C104.321 21.7627 105.889 20.984 107.809 20.984C108.598 20.984 109.281 21.1013 109.857 21.336C110.433 21.5493 110.934 21.8587 111.361 22.264C111.787 22.648 112.15 23.0853 112.449 23.576H112.577C112.491 23.128 112.417 22.5093 112.353 21.72C112.31 20.9307 112.289 20.1627 112.289 19.416V14.68H118.433V39H113.825L112.513 36.76H112.289C112.011 37.2293 111.659 37.656 111.233 38.04C110.806 38.424 110.294 38.7333 109.697 38.968C109.099 39.2027 108.395 39.32 107.585 39.32ZM110.081 34.488C111.062 34.488 111.755 34.1787 112.161 33.56C112.566 32.9413 112.779 31.992 112.801 30.712V30.232C112.801 28.8453 112.598 27.7787 112.193 27.032C111.809 26.2853 111.083 25.912 110.017 25.912C109.291 25.912 108.683 26.264 108.193 26.968C107.723 27.672 107.489 28.7707 107.489 30.264C107.489 31.736 107.723 32.8133 108.193 33.496C108.683 34.1573 109.313 34.488 110.081 34.488ZM139.859 21.304V39H135.251L134.483 36.792H134.131C133.769 37.3893 133.299 37.88 132.723 38.264C132.169 38.6267 131.55 38.8933 130.867 39.064C130.206 39.2347 129.513 39.32 128.787 39.32C127.635 39.32 126.59 39.096 125.651 38.648C124.713 38.2 123.966 37.496 123.411 36.536C122.878 35.576 122.611 34.3387 122.611 32.824V21.304H128.723V30.968C128.723 32.12 128.883 32.9947 129.203 33.592C129.545 34.1893 130.089 34.488 130.835 34.488C131.603 34.488 132.201 34.2853 132.627 33.88C133.054 33.4533 133.342 32.8347 133.491 32.024C133.662 31.2133 133.747 30.2213 133.747 29.048V21.304H139.859ZM152.145 39.32C150.353 39.32 148.795 39 147.473 38.36C146.15 37.72 145.126 36.728 144.401 35.384C143.675 34.04 143.313 32.3227 143.313 30.232C143.313 28.0773 143.718 26.328 144.529 24.984C145.339 23.6187 146.438 22.616 147.825 21.976C149.233 21.3147 150.833 20.984 152.625 20.984C153.713 20.984 154.737 21.1013 155.697 21.336C156.678 21.5707 157.585 21.9013 158.417 22.328L156.625 26.84C155.899 26.52 155.217 26.264 154.577 26.072C153.958 25.88 153.307 25.784 152.625 25.784C152.006 25.784 151.462 25.944 150.993 26.264C150.523 26.584 150.161 27.0747 149.905 27.736C149.649 28.376 149.521 29.1973 149.521 30.2C149.521 31.224 149.649 32.0453 149.905 32.664C150.182 33.2827 150.555 33.7413 151.025 34.04C151.494 34.3173 152.038 34.456 152.657 34.456C153.531 34.456 154.406 34.3173 155.281 34.04C156.177 33.7627 157.019 33.3787 157.809 32.888V37.752C157.083 38.2213 156.262 38.6053 155.345 38.904C154.427 39.1813 153.361 39.32 152.145 39.32ZM170.003 34.488C170.557 34.488 171.059 34.4347 171.507 34.328C171.976 34.2 172.456 34.0507 172.947 33.88V38.328C172.285 38.6053 171.581 38.84 170.835 39.032C170.088 39.224 169.139 39.32 167.987 39.32C166.835 39.32 165.821 39.1387 164.947 38.776C164.093 38.4133 163.421 37.7947 162.931 36.92C162.44 36.024 162.195 34.776 162.195 33.176V25.88H160.051V23.384L162.771 21.464L164.339 17.752H168.339V21.304H172.691V25.88H168.339V32.76C168.339 33.336 168.477 33.7733 168.755 34.072C169.053 34.3493 169.469 34.488 170.003 34.488ZM192.682 16.152C194.879 16.152 196.65 16.376 197.994 16.824C199.338 17.2507 200.319 17.8907 200.938 18.744C201.557 19.576 201.866 20.6107 201.866 21.848C201.866 22.8507 201.685 23.704 201.322 24.408C200.959 25.0907 200.501 25.6347 199.946 26.04C199.413 26.4453 198.858 26.7227 198.282 26.872V27.032C198.901 27.1813 199.519 27.4373 200.138 27.8C200.757 28.1627 201.269 28.7067 201.674 29.432C202.101 30.136 202.314 31.096 202.314 32.312C202.314 33.6987 201.962 34.8933 201.258 35.896C200.554 36.8987 199.551 37.6667 198.25 38.2C196.949 38.7333 195.402 39 193.61 39H184.714V16.152H192.682ZM192.746 24.92C193.77 24.92 194.485 24.7067 194.89 24.28C195.317 23.8533 195.53 23.3413 195.53 22.744C195.53 22.1253 195.295 21.656 194.826 21.336C194.357 20.9947 193.621 20.824 192.618 20.824H190.89V24.92H192.746ZM190.89 29.432V34.232H193.066C194.133 34.232 194.879 34.008 195.306 33.56C195.733 33.0907 195.946 32.504 195.946 31.8C195.946 31.3947 195.85 31.0107 195.658 30.648C195.487 30.2853 195.178 29.9973 194.73 29.784C194.303 29.5493 193.706 29.432 192.938 29.432H190.89ZM214.565 20.984C216.805 20.984 218.554 21.5387 219.812 22.648C221.071 23.7573 221.701 25.336 221.701 27.384V39H217.477L216.293 36.664H216.165C215.674 37.2827 215.162 37.7947 214.629 38.2C214.117 38.584 213.519 38.8613 212.837 39.032C212.154 39.224 211.322 39.32 210.341 39.32C209.317 39.32 208.399 39.1173 207.589 38.712C206.778 38.2853 206.138 37.656 205.669 36.824C205.199 35.9707 204.965 34.8933 204.965 33.592C204.965 31.6933 205.615 30.2853 206.917 29.368C208.239 28.4507 210.149 27.9387 212.645 27.832L215.589 27.736V27.48C215.589 26.6907 215.397 26.136 215.013 25.816C214.629 25.4747 214.106 25.304 213.445 25.304C212.741 25.304 211.962 25.432 211.109 25.688C210.255 25.9227 209.391 26.232 208.516 26.616L206.757 22.584C207.781 22.0507 208.933 21.656 210.213 21.4C211.514 21.1227 212.965 20.984 214.565 20.984ZM214.213 31.16C213.103 31.2027 212.314 31.4053 211.845 31.768C211.397 32.1093 211.173 32.6 211.173 33.24C211.173 33.8373 211.333 34.2853 211.653 34.584C211.973 34.8613 212.399 35 212.933 35C213.679 35 214.309 34.7653 214.821 34.296C215.354 33.8267 215.621 33.2187 215.621 32.472V31.096L214.213 31.16ZM233.926 39.32C232.134 39.32 230.577 39 229.254 38.36C227.931 37.72 226.907 36.728 226.182 35.384C225.457 34.04 225.094 32.3227 225.094 30.232C225.094 28.0773 225.499 26.328 226.31 24.984C227.121 23.6187 228.219 22.616 229.606 21.976C231.014 21.3147 232.614 20.984 234.406 20.984C235.494 20.984 236.518 21.1013 237.478 21.336C238.459 21.5707 239.366 21.9013 240.198 22.328L238.406 26.84C237.681 26.52 236.998 26.264 236.358 26.072C235.739 25.88 235.089 25.784 234.406 25.784C233.787 25.784 233.243 25.944 232.774 26.264C232.305 26.584 231.942 27.0747 231.686 27.736C231.43 28.376 231.302 29.1973 231.302 30.2C231.302 31.224 231.43 32.0453 231.686 32.664C231.963 33.2827 232.337 33.7413 232.806 34.04C233.275 34.3173 233.819 34.456 234.438 34.456C235.313 34.456 236.187 34.3173 237.062 34.04C237.958 33.7627 238.801 33.3787 239.59 32.888V37.752C238.865 38.2213 238.043 38.6053 237.126 38.904C236.209 39.1813 235.142 39.32 233.926 39.32ZM249.256 24.248C249.256 24.9733 249.224 25.7733 249.16 26.648C249.096 27.5227 249.011 28.3227 248.904 29.048H249.032C249.203 28.792 249.395 28.504 249.608 28.184C249.821 27.8427 250.045 27.5013 250.28 27.16C250.515 26.8187 250.728 26.5307 250.92 26.296L254.888 21.304H261.704L255.56 28.824L262.088 39H255.112L251.24 32.664L249.256 34.168V39H243.112V14.68H249.256V24.248ZM270.318 39H264.206V14.68H270.318V39ZM291.446 30.104C291.446 31.576 291.243 32.888 290.838 34.04C290.432 35.192 289.846 36.1627 289.078 36.952C288.31 37.72 287.382 38.3067 286.294 38.712C285.206 39.1173 283.968 39.32 282.582 39.32C281.302 39.32 280.118 39.1173 279.03 38.712C277.963 38.3067 277.035 37.72 276.246 36.952C275.478 36.1627 274.87 35.192 274.422 34.04C273.995 32.888 273.782 31.576 273.782 30.104C273.782 28.1413 274.134 26.488 274.838 25.144C275.563 23.7787 276.587 22.744 277.91 22.04C279.232 21.336 280.822 20.984 282.678 20.984C284.384 20.984 285.888 21.336 287.19 22.04C288.512 22.744 289.547 23.7787 290.294 25.144C291.062 26.488 291.446 28.1413 291.446 30.104ZM279.99 30.104C279.99 31.1067 280.075 31.96 280.246 32.664C280.416 33.368 280.694 33.9013 281.078 34.264C281.483 34.6053 282.006 34.776 282.646 34.776C283.286 34.776 283.787 34.6053 284.15 34.264C284.534 33.9013 284.811 33.368 284.982 32.664C285.152 31.96 285.238 31.1067 285.238 30.104C285.238 29.1013 285.152 28.2587 284.982 27.576C284.811 26.8933 284.534 26.3813 284.15 26.04C283.766 25.6987 283.254 25.528 282.614 25.528C281.696 25.528 281.024 25.912 280.598 26.68C280.192 27.448 279.99 28.5893 279.99 30.104ZM300.589 20.984C301.826 20.984 302.818 21.2293 303.565 21.72C304.333 22.1893 304.951 22.776 305.421 23.48H305.549L305.997 21.304H311.277V39.032C311.277 40.696 310.935 42.0933 310.253 43.224C309.57 44.3547 308.525 45.208 307.117 45.784C305.73 46.3813 303.97 46.68 301.837 46.68C300.407 46.68 299.149 46.6053 298.061 46.456C296.973 46.3067 295.927 46.04 294.924 45.656V40.568C295.65 40.8667 296.333 41.112 296.973 41.304C297.613 41.5173 298.295 41.6667 299.021 41.752C299.746 41.8587 300.567 41.912 301.485 41.912C302.722 41.912 303.639 41.688 304.237 41.24C304.855 40.792 305.165 40.1413 305.165 39.288V38.968C305.165 38.6907 305.175 38.36 305.197 37.976C305.239 37.592 305.293 37.1867 305.357 36.76H305.165C304.759 37.464 304.183 38.072 303.437 38.584C302.69 39.0747 301.709 39.32 300.493 39.32C298.615 39.32 297.09 38.5413 295.917 36.984C294.743 35.4267 294.157 33.1547 294.157 30.168C294.157 28.1627 294.423 26.488 294.957 25.144C295.511 23.7787 296.269 22.744 297.229 22.04C298.21 21.336 299.33 20.984 300.589 20.984ZM302.893 25.72C302.338 25.72 301.869 25.8907 301.485 26.232C301.101 26.5733 300.813 27.0853 300.621 27.768C300.45 28.4293 300.365 29.2613 300.365 30.264C300.365 31.8 300.578 32.9093 301.005 33.592C301.431 34.2533 302.093 34.584 302.989 34.584C303.479 34.584 303.895 34.5093 304.237 34.36C304.578 34.1893 304.845 33.9547 305.037 33.656C305.25 33.336 305.399 32.9413 305.485 32.472C305.591 32.0027 305.645 31.448 305.645 30.808V30.072C305.645 29.1547 305.559 28.376 305.389 27.736C305.239 27.0747 304.962 26.5733 304.557 26.232C304.173 25.8907 303.618 25.72 302.893 25.72Z" fill="#605140"/>
<line x1="30" y1="19" x2="30" y2="71" stroke="#9C7548" stroke-width="8"/>
<defs>
<clipPath id="clip0_838_1665">
<rect width="290" height="46" fill="white" transform="translate(0 48)"/>
</clipPath>
</defs>
</svg>
