<svg width="298" height="80" viewBox="0 0 298 80" fill="none" xmlns="http://www.w3.org/2000/svg">
<path opacity="0.7" d="M2.27779 79.2768C1.99312 76.5901 1.58645 74.1963 1.46444 71.7852C0.935767 61.3487 0.447757 50.9121 0.000414044 40.4584C-0.0402535 39.6834 0.122417 38.9084 0.325754 38.1334C0.773097 36.704 2.6438 35.929 5.12452 35.8084C13.624 35.4295 22.1235 35.0506 30.7044 35.0334C36.1538 35.0162 41.2373 36.1528 46.6867 35.8945C53.9255 35.5501 61.1643 35.8601 68.3218 36.6006C68.8912 36.6695 69.5419 36.6523 70.1112 36.6523C79.3834 36.6695 88.7776 36.2217 97.9278 36.8245C108.664 37.5478 119.034 35.9634 129.648 36.4801C134.895 36.7384 140.222 35.8773 145.468 35.2917C151.65 34.6201 158.156 34.5512 164.541 34.5512C168.364 34.5512 172.268 35.154 176.05 35.6017C183.045 36.4456 189.958 35.7912 196.831 35.2745C200.695 34.9818 204.436 34.3962 208.299 34.1034C211.309 33.8795 214.237 33.8968 217.328 34.4134C219.849 34.844 222.899 34.9473 225.42 34.6373C230.138 34.0518 234.774 34.5168 239.166 34.9301C243.07 35.309 246.934 35.1884 250.797 35.3951C256.246 35.7051 261.777 35.8084 267.267 35.9462C273.896 36.1012 280.566 36.1701 287.682 36.2906C288.74 50.4988 290.041 64.6725 290 79.139C283.128 79.0012 276.661 78.8634 270.195 78.7429C269.219 78.7257 268.203 78.7946 267.186 78.8807C266.454 78.9323 265.763 79.1218 265.071 79.1218C257.141 79.139 249.13 79.6901 241.403 77.9507C237.58 77.0896 233.757 77.8473 229.975 78.4673C228.47 78.7084 226.925 78.8462 225.339 78.8807C221.679 78.9496 217.978 79.0012 214.318 78.9151C211.471 78.8462 208.584 78.6223 205.737 78.3812C203.013 78.1573 200.329 77.8129 197.645 77.5374C197.075 77.4857 196.465 77.4512 195.936 77.5201C192.683 77.9507 189.43 78.4329 186.176 78.8634C185.282 78.984 184.346 79.0357 183.452 79.0184C177.921 78.8979 172.431 78.7085 166.9 78.6568C160.108 78.5879 153.276 78.6223 146.485 78.6568C145.346 78.6568 144.248 78.9323 143.109 79.0529C137.538 79.6384 131.926 79.5179 126.273 79.2251C123.955 79.1046 121.556 78.8634 119.319 79.0529C112.69 79.6212 106.265 79.3112 99.9205 78.2262C97.5211 77.8129 95.6097 77.9335 93.373 78.7084C89.2249 80.1207 84.4262 79.8107 79.7901 79.5695C72.8359 79.2079 65.9224 78.7084 58.9683 78.2779C58.8056 78.2607 58.643 78.2262 58.521 78.2607C54.4135 79.0012 50.1028 79.0012 45.8327 79.1562C42.254 79.294 38.7159 80.0173 35.1371 79.9829C24.4416 79.8968 13.7054 79.5523 2.27779 79.2768Z" fill="#DCAC68"/>
<path d="M56.32 44.376V47.456H70.74V44.376H56.32ZM55.032 65.908V69.016H71.132V65.908H55.032ZM58.028 60.14C58.644 61.848 59.176 64.144 59.26 65.6L62.284 64.816C62.144 63.332 61.556 61.12 60.884 59.44L58.028 60.14ZM65.896 59.272C65.56 61.036 64.832 63.472 64.188 64.984L67.016 65.684C67.688 64.284 68.444 62.044 69.2 60L65.896 59.272ZM60.464 52.552H66.568V55.968H60.464V52.552ZM57.356 49.612V58.88H69.816V49.612H57.356ZM49.852 48.212V53.448C49.852 57.592 49.404 63.276 44.868 67.168C45.484 67.588 46.744 68.848 47.164 69.52C52.176 65.236 53.072 58.208 53.072 53.504V48.212H49.852ZM47.724 46.588V49.64H56.208V46.588H47.724ZM45.064 53.98V57.088H56.544V53.98H45.064ZM52.456 57.872L50.496 59.664C51.616 61.064 53.828 64.032 54.836 65.796L56.964 63.024C56.292 62.184 53.352 58.684 52.456 57.872ZM47.528 43.256C46.996 46.448 45.988 49.724 44.504 51.768C45.288 52.076 46.716 52.832 47.36 53.308C48.816 51.04 50.02 47.428 50.692 43.844L47.528 43.256ZM92.272 44.712V47.708H98.656V44.712H92.272ZM91.88 51.852V54.904H99.244V51.852H91.88ZM80.204 48.184V50.788H91.88V48.184H80.204ZM80.68 61.456V63.892H91.264V61.456H80.68ZM84.6 45.496V66.552H87.26V45.048L84.6 45.496ZM82.836 57.06H88.968V58.32H82.836V57.06ZM82.836 54.008H88.968V55.24H82.836V54.008ZM80.512 52.048V60.28H91.404V52.048H80.512ZM79.924 65.572L80.232 68.176C83.34 67.98 87.596 67.7 91.628 67.42L91.656 64.984C87.344 65.208 82.92 65.46 79.924 65.572ZM89.976 43.48C87.456 44.068 83.536 44.488 80.148 44.684C80.428 45.328 80.764 46.364 80.848 47.008C84.32 46.924 88.52 46.56 91.544 45.888L89.976 43.48ZM94.092 53.504V65.992C94.092 66.3 93.98 66.384 93.672 66.384C93.364 66.384 92.412 66.384 91.488 66.356C91.852 67.252 92.244 68.624 92.328 69.52C93.98 69.52 95.184 69.464 96.108 68.932C97.032 68.428 97.228 67.532 97.228 66.02V53.504H94.092ZM77.152 43.2C76.2 44.964 74.24 47.204 72.504 48.576C73.008 49.192 73.792 50.452 74.184 51.152C76.312 49.416 78.636 46.784 80.176 44.348L77.152 43.2ZM77.6 49.108C76.34 51.908 74.268 54.736 72.308 56.612C72.84 57.34 73.764 58.964 74.072 59.664C76.396 57.312 78.916 53.56 80.512 50.144L77.6 49.108ZM75.696 55.24V69.52H78.72V52.216V52.188L75.696 55.24ZM110.724 46.42V49.444H125.872V46.42H110.724ZM109.436 57.172V60.224H126.964V57.172H109.436ZM109.156 51.908V54.96H127.188V51.908H109.156ZM116.464 43.34V53.476H119.824V43.34H116.464ZM120.3 54.428V65.936C120.3 66.3 120.16 66.412 119.74 66.412C119.292 66.44 117.752 66.44 116.38 66.356C116.8 67.252 117.276 68.596 117.416 69.52C119.544 69.52 121.084 69.492 122.232 68.988C123.352 68.484 123.66 67.644 123.66 65.992V54.428H120.3ZM110.976 61.82C112.208 63.332 113.58 65.432 114.084 66.776L117.024 65.18C116.436 63.808 114.98 61.82 113.748 60.392L110.976 61.82ZM107.252 49.416C105.656 52.132 102.94 54.904 100.504 56.64C101.008 57.452 101.848 59.356 102.072 60.112C104.956 57.788 108.176 54.092 110.164 50.648L107.252 49.416ZM106.58 43.256C105.404 45.132 102.94 47.428 100.812 48.772C101.288 49.472 102.1 50.844 102.436 51.6C105.04 49.892 107.868 47.148 109.688 44.544L106.58 43.256ZM104.62 55.66V69.52H107.84V52.636L107.7 52.552L104.62 55.66ZM137.912 49.444V52.328H143.624V49.444H137.912ZM142.7 49.444V50.116C142.588 61.512 142.448 65.236 142 65.992C141.804 66.384 141.608 66.496 141.3 66.496C140.908 66.496 140.348 66.496 139.648 66.412C140.04 67.168 140.32 68.344 140.376 69.156C141.272 69.156 142.112 69.156 142.728 69.016C143.456 68.904 143.932 68.624 144.408 67.812C145.08 66.692 145.22 62.632 145.36 50.732C145.36 50.396 145.388 49.444 145.388 49.444H142.7ZM139.2 43.228C139.284 53.588 139.116 62.408 135.644 67.644C136.232 68.064 137.408 69.1 137.8 69.548C141.468 63.5 141.748 54.568 141.776 43.228H139.2ZM131.92 43.228V47.932H135V43.228H131.92ZM129.232 46.728V49.472H137.548V46.728H129.232ZM128.924 54.456V57.2H137.8V54.456H128.924ZM129.82 50.116C130.24 51.516 130.548 53.392 130.492 54.596L132.956 53.896C132.9 52.692 132.592 50.844 132.088 49.472L129.82 50.116ZM134.748 49.416C134.608 50.76 134.188 52.748 133.852 54.036L136.008 54.568C136.428 53.42 136.904 51.6 137.436 49.948L134.748 49.416ZM128.7 60.392L129.26 63.304C131.724 62.856 134.888 62.324 137.884 61.764L137.688 59.076C134.384 59.58 130.996 60.112 128.7 60.392ZM148.832 43.228V47.932H151.94V43.228H148.832ZM148.832 55.492V69.548H151.94V55.492H148.832ZM145.836 46.7V49.444H154.74V46.7H145.836ZM145.724 54.428V57.172H155.132V54.428H145.724ZM145.948 60.14V62.912H154.796V60.14H145.948ZM146.452 50.088C146.928 51.516 147.236 53.392 147.236 54.596L149.672 53.896C149.644 52.692 149.28 50.816 148.748 49.444L146.452 50.088ZM151.744 49.304C151.576 50.676 151.128 52.664 150.792 53.952L153.004 54.512C153.452 53.336 153.956 51.544 154.488 49.892L151.744 49.304ZM131.92 55.296V60.364C131.92 62.604 131.612 65.656 128.868 67.364C129.568 67.868 130.492 68.904 130.912 69.548C134.188 67.196 135 63.472 135 60.392V55.296H131.92ZM169.3 58.684V60.84H178.876V58.684H169.3ZM165.632 44.684V47.092H182.264V44.684H165.632ZM166.388 48.156V50.396H181.508V48.156H166.388ZM164.736 51.544V53.952H183.16V51.544H164.736ZM169.3 62.156V64.396H178.904V62.156H169.3ZM167.144 54.988V69.492H170.252V57.452H179.128V54.988H167.144ZM177.896 54.988V66.132C177.896 66.468 177.756 66.58 177.392 66.58C177.028 66.608 175.684 66.608 174.536 66.552C174.928 67.336 175.348 68.568 175.46 69.408C177.392 69.408 178.792 69.38 179.8 68.932C180.836 68.484 181.088 67.672 181.088 66.188V54.988H177.896ZM172.1 43.228V52.888H175.432V43.228H172.1ZM158.212 45.832C159.976 46.616 162.188 47.904 163.196 48.884L165.156 46.14C164.008 45.188 161.768 44.04 160.032 43.368L158.212 45.832ZM156.756 53.448C158.548 54.204 160.788 55.436 161.852 56.388L163.784 53.588C162.636 52.664 160.312 51.544 158.576 50.928L156.756 53.448ZM157.568 67.028L160.508 69.156C162.076 66.384 163.756 63.136 165.156 60.168L162.58 58.068C161.012 61.344 158.996 64.9 157.568 67.028ZM196.124 52.58V69.52H199.624V52.58H196.124ZM191.42 57.536H204.664V59.048H191.42V57.536ZM191.42 53.644H204.664V55.128H191.42V53.644ZM188.116 51.068V61.624H208.108V51.068H188.116ZM185.484 63.08V65.964H210.572V63.08H185.484ZM190.104 46.336H194.052V47.96H190.104V46.336ZM187.108 44.32V49.948H197.188V44.32H187.108ZM201.836 46.336H205.868V47.96H201.836V46.336ZM198.868 44.32V49.948H209.004V44.32H198.868Z" fill="white"/>
<path d="M62.408 18.056C62.408 19.2933 62.088 20.4667 61.448 21.576C60.8293 22.6853 59.8587 23.592 58.536 24.296C57.2347 24.9787 55.5387 25.32 53.448 25.32C52.4027 25.32 51.4853 25.2667 50.696 25.16C49.928 25.0747 49.2027 24.9253 48.52 24.712C47.8373 24.4987 47.1333 24.2213 46.408 23.88V18.376C47.6453 18.9947 48.8933 19.4747 50.152 19.816C51.4107 20.136 52.552 20.296 53.576 20.296C54.1947 20.296 54.696 20.2213 55.08 20.072C55.464 19.9227 55.752 19.72 55.944 19.464C56.136 19.208 56.232 18.92 56.232 18.6C56.232 18.1947 56.0933 17.8533 55.816 17.576C55.5387 17.2987 55.1013 17.0107 54.504 16.712C53.9067 16.4133 53.1067 16.04 52.104 15.592C51.2507 15.208 50.4827 14.8027 49.8 14.376C49.1173 13.9493 48.5307 13.4693 48.04 12.936C47.5707 12.4027 47.208 11.784 46.952 11.08C46.696 10.3547 46.568 9.50133 46.568 8.52C46.568 7.048 46.9307 5.82133 47.656 4.84C48.3813 3.83733 49.384 3.09067 50.664 2.6C51.9653 2.088 53.4693 1.832 55.176 1.832C56.6693 1.832 58.0133 2.00267 59.208 2.344C60.4027 2.664 61.4693 3.03733 62.408 3.464L60.52 8.232C59.5387 7.784 58.568 7.432 57.608 7.176C56.6693 6.89867 55.7947 6.76 54.984 6.76C54.4507 6.76 54.0133 6.824 53.672 6.952C53.3307 7.08 53.0747 7.26133 52.904 7.496C52.7547 7.70933 52.68 7.95467 52.68 8.232C52.68 8.59467 52.8187 8.91467 53.096 9.192C53.3733 9.46933 53.832 9.77867 54.472 10.12C55.1333 10.44 56.0293 10.856 57.16 11.368C58.2693 11.8587 59.208 12.4027 59.976 13C60.7653 13.576 61.3627 14.2693 61.768 15.08C62.1947 15.8693 62.408 16.8613 62.408 18.056ZM76.3968 6.984C78.3594 6.984 79.8954 7.77333 81.0048 9.352C82.1141 10.9093 82.6688 13.16 82.6688 16.104C82.6688 18.1093 82.3808 19.8053 81.8048 21.192C81.2501 22.5573 80.4821 23.592 79.5008 24.296C78.5408 24.9787 77.4421 25.32 76.2048 25.32C75.3728 25.32 74.6688 25.2133 74.0928 25C73.5168 24.7867 73.0368 24.5307 72.6528 24.232C72.2688 23.912 71.9488 23.592 71.6927 23.272H71.5008C71.5434 23.6773 71.5861 24.1147 71.6288 24.584C71.6714 25.0533 71.6927 25.5973 71.6927 26.216V32.68H65.5807V7.304H70.5408L71.4048 9.544H71.6927C71.9914 9.07467 72.3434 8.648 72.7488 8.264C73.1754 7.88 73.6874 7.57067 74.2848 7.336C74.8821 7.10133 75.5861 6.984 76.3968 6.984ZM74.0928 11.784C73.4954 11.784 73.0261 11.9333 72.6848 12.232C72.3434 12.5093 72.0981 12.9253 71.9488 13.48C71.7994 14.0347 71.7141 14.7387 71.6927 15.592V16.072C71.6927 17.0107 71.7568 17.8 71.8848 18.44C72.0341 19.08 72.2901 19.5707 72.6528 19.912C73.0154 20.232 73.5061 20.392 74.1248 20.392C74.6368 20.392 75.0634 20.2533 75.4048 19.976C75.7674 19.6773 76.0341 19.208 76.2048 18.568C76.3754 17.928 76.4608 17.0853 76.4608 16.04C76.4608 14.4827 76.2581 13.384 75.8528 12.744C75.4474 12.104 74.8608 11.784 74.0928 11.784ZM96.8313 6.984C97.1726 6.984 97.5246 7.00533 97.8873 7.048C98.2499 7.09067 98.5166 7.13333 98.6873 7.176L98.1433 12.936C97.9299 12.8933 97.6633 12.8507 97.3433 12.808C97.0446 12.7653 96.6179 12.744 96.0633 12.744C95.6793 12.744 95.2633 12.7867 94.8153 12.872C94.3886 12.936 93.9726 13.0853 93.5673 13.32C93.1833 13.5547 92.8633 13.9067 92.6073 14.376C92.3726 14.8453 92.2552 15.4853 92.2552 16.296V25H86.1432V7.304H90.6873L91.6473 10.12H91.9353C92.2553 9.544 92.6713 9.02133 93.1833 8.552C93.6953 8.06133 94.2606 7.67733 94.8793 7.4C95.5193 7.12267 96.1699 6.984 96.8313 6.984ZM107.287 7.304V25H101.175V7.304H107.287ZM104.247 0.167999C105.122 0.167999 105.879 0.349332 106.519 0.711998C107.181 1.07467 107.511 1.8 107.511 2.888C107.511 3.93333 107.181 4.648 106.519 5.032C105.879 5.39467 105.122 5.576 104.247 5.576C103.351 5.576 102.583 5.39467 101.943 5.032C101.325 4.648 101.015 3.93333 101.015 2.888C101.015 1.8 101.325 1.07467 101.943 0.711998C102.583 0.349332 103.351 0.167999 104.247 0.167999ZM122.622 6.984C124.456 6.984 125.95 7.496 127.102 8.52C128.254 9.544 128.83 11.1973 128.83 13.48V25H122.718V15.336C122.718 14.1627 122.547 13.2773 122.206 12.68C121.864 12.0827 121.32 11.784 120.574 11.784C119.422 11.784 118.643 12.2533 118.238 13.192C117.854 14.1307 117.661 15.4853 117.661 17.256V25H111.549V7.304H116.158L116.99 9.64H117.214C117.598 9.08533 118.046 8.616 118.558 8.232C119.091 7.82667 119.688 7.51733 120.35 7.304C121.032 7.09067 121.79 6.984 122.622 6.984ZM141.659 20.488C142.214 20.488 142.715 20.4347 143.163 20.328C143.632 20.2 144.112 20.0507 144.603 19.88V24.328C143.942 24.6053 143.238 24.84 142.491 25.032C141.744 25.224 140.795 25.32 139.643 25.32C138.491 25.32 137.478 25.1387 136.603 24.776C135.75 24.4133 135.078 23.7947 134.587 22.92C134.096 22.024 133.851 20.776 133.851 19.176V11.88H131.707V9.384L134.427 7.464L135.995 3.752H139.995V7.304H144.347V11.88H139.995V18.76C139.995 19.336 140.134 19.7733 140.411 20.072C140.71 20.3493 141.126 20.488 141.659 20.488ZM164.274 2.152C167.176 2.152 169.341 2.78133 170.77 4.04C172.221 5.29867 172.946 7.09067 172.946 9.416C172.946 10.4613 172.797 11.464 172.498 12.424C172.2 13.3627 171.709 14.216 171.026 14.984C170.365 15.7307 169.48 16.328 168.37 16.776C167.261 17.2027 165.896 17.416 164.274 17.416H162.546V25H156.37V2.152H164.274ZM164.146 7.144H162.546V12.392H163.762C164.296 12.392 164.786 12.3067 165.234 12.136C165.704 11.944 166.077 11.6453 166.354 11.24C166.632 10.8133 166.77 10.2587 166.77 9.576C166.77 8.85067 166.557 8.264 166.13 7.816C165.704 7.368 165.042 7.144 164.146 7.144ZM182.349 25H176.237V0.679998H182.349V25ZM195.221 6.984C197.461 6.984 199.21 7.53867 200.469 8.648C201.727 9.75733 202.357 11.336 202.357 13.384V25H198.133L196.949 22.664H196.821C196.33 23.2827 195.818 23.7947 195.285 24.2C194.773 24.584 194.175 24.8613 193.493 25.032C192.81 25.224 191.978 25.32 190.997 25.32C189.973 25.32 189.055 25.1173 188.245 24.712C187.434 24.2853 186.794 23.656 186.325 22.824C185.855 21.9707 185.621 20.8933 185.621 19.592C185.621 17.6933 186.271 16.2853 187.573 15.368C188.895 14.4507 190.805 13.9387 193.301 13.832L196.245 13.736V13.48C196.245 12.6907 196.053 12.136 195.669 11.816C195.285 11.4747 194.762 11.304 194.101 11.304C193.397 11.304 192.618 11.432 191.765 11.688C190.911 11.9227 190.047 12.232 189.173 12.616L187.413 8.584C188.437 8.05067 189.589 7.656 190.869 7.4C192.17 7.12267 193.621 6.984 195.221 6.984ZM194.869 17.16C193.759 17.2027 192.97 17.4053 192.501 17.768C192.053 18.1093 191.829 18.6 191.829 19.24C191.829 19.8373 191.989 20.2853 192.309 20.584C192.629 20.8613 193.055 21 193.589 21C194.335 21 194.965 20.7653 195.477 20.296C196.01 19.8267 196.277 19.2187 196.277 18.472V17.096L194.869 17.16ZM217.59 6.984C219.425 6.984 220.918 7.496 222.07 8.52C223.222 9.544 223.798 11.1973 223.798 13.48V25H217.686V15.336C217.686 14.1627 217.516 13.2773 217.174 12.68C216.833 12.0827 216.289 11.784 215.542 11.784C214.39 11.784 213.612 12.2533 213.206 13.192C212.822 14.1307 212.63 15.4853 212.63 17.256V25H206.518V7.304H211.126L211.958 9.64H212.182C212.566 9.08533 213.014 8.616 213.526 8.232C214.06 7.82667 214.657 7.51733 215.318 7.304C216.001 7.09067 216.758 6.984 217.59 6.984ZM239.028 6.984C240.862 6.984 242.356 7.496 243.508 8.52C244.66 9.544 245.236 11.1973 245.236 13.48V25H239.124V15.336C239.124 14.1627 238.953 13.2773 238.612 12.68C238.27 12.0827 237.726 11.784 236.98 11.784C235.828 11.784 235.049 12.2533 234.644 13.192C234.26 14.1307 234.068 15.4853 234.068 17.256V25H227.956V7.304H232.564L233.396 9.64H233.62C234.004 9.08533 234.452 8.616 234.964 8.232C235.497 7.82667 236.094 7.51733 236.756 7.304C237.438 7.09067 238.196 6.984 239.028 6.984ZM255.537 7.304V25H249.425V7.304H255.537ZM252.497 0.167999C253.372 0.167999 254.129 0.349332 254.769 0.711998C255.431 1.07467 255.761 1.8 255.761 2.888C255.761 3.93333 255.431 4.648 254.769 5.032C254.129 5.39467 253.372 5.576 252.497 5.576C251.601 5.576 250.833 5.39467 250.193 5.032C249.575 4.648 249.265 3.93333 249.265 2.888C249.265 1.8 249.575 1.07467 250.193 0.711998C250.833 0.349332 251.601 0.167999 252.497 0.167999ZM270.872 6.984C272.706 6.984 274.2 7.496 275.352 8.52C276.504 9.544 277.08 11.1973 277.08 13.48V25H270.968V15.336C270.968 14.1627 270.797 13.2773 270.456 12.68C270.114 12.0827 269.57 11.784 268.824 11.784C267.672 11.784 266.893 12.2533 266.488 13.192C266.104 14.1307 265.911 15.4853 265.911 17.256V25H259.799V7.304H264.408L265.24 9.64H265.464C265.848 9.08533 266.296 8.616 266.808 8.232C267.341 7.82667 267.938 7.51733 268.6 7.304C269.282 7.09067 270.04 6.984 270.872 6.984ZM286.901 6.984C288.138 6.984 289.13 7.22933 289.877 7.72C290.645 8.18933 291.264 8.776 291.733 9.48H291.861L292.309 7.304H297.589V25.032C297.589 26.696 297.248 28.0933 296.565 29.224C295.882 30.3547 294.837 31.208 293.429 31.784C292.042 32.3813 290.282 32.68 288.149 32.68C286.72 32.68 285.461 32.6053 284.373 32.456C283.285 32.3067 282.24 32.04 281.237 31.656V26.568C281.962 26.8667 282.645 27.112 283.285 27.304C283.925 27.5173 284.608 27.6667 285.333 27.752C286.058 27.8587 286.88 27.912 287.797 27.912C289.034 27.912 289.952 27.688 290.549 27.24C291.168 26.792 291.477 26.1413 291.477 25.288V24.968C291.477 24.6907 291.488 24.36 291.509 23.976C291.552 23.592 291.605 23.1867 291.669 22.76H291.477C291.072 23.464 290.496 24.072 289.749 24.584C289.002 25.0747 288.021 25.32 286.805 25.32C284.928 25.32 283.402 24.5413 282.229 22.984C281.056 21.4267 280.469 19.1547 280.469 16.168C280.469 14.1627 280.736 12.488 281.269 11.144C281.824 9.77867 282.581 8.744 283.541 8.04C284.522 7.336 285.642 6.984 286.901 6.984ZM289.205 11.72C288.65 11.72 288.181 11.8907 287.797 12.232C287.413 12.5733 287.125 13.0853 286.933 13.768C286.762 14.4293 286.677 15.2613 286.677 16.264C286.677 17.8 286.89 18.9093 287.317 19.592C287.744 20.2533 288.405 20.584 289.301 20.584C289.792 20.584 290.208 20.5093 290.549 20.36C290.89 20.1893 291.157 19.9547 291.349 19.656C291.562 19.336 291.712 18.9413 291.797 18.472C291.904 18.0027 291.957 17.448 291.957 16.808V16.072C291.957 15.1547 291.872 14.376 291.701 13.736C291.552 13.0747 291.274 12.5733 290.869 12.232C290.485 11.8907 289.93 11.72 289.205 11.72Z" fill="#605140"/>
<line x1="30" y1="5" x2="30" y2="57" stroke="#9C7548" stroke-width="8"/>
</svg>
